/* XPM */
static const char *BackAttack_04[] = {
/* columns rows colors chars-per-pixel */
"32 32 128 2 ",
"   c None",
".  c #3D0102",
"X  c #270032",
"o  c #590608",
"O  c #600608",
"+  c #6C0B0F",
"@  c #7E0509",
"#  c #3A004B",
"$  c #7C7C7C",
"%  c #84060B",
"&  c #8A080D",
"*  c #8E080E",
"=  c #90090F",
"-  c #960A10",
";  c #990B11",
":  c #9B0B12",
">  c #9D0C13",
",  c #9E0C13",
"<  c #9E0D13",
"1  c #9F0D14",
"2  c #8E7E7E",
"3  c #868686",
"4  c gray55",
"5  c gray56",
"6  c #988A8A",
"7  c #918F91",
"8  c #929191",
"9  c #939192",
"0  c #939393",
"q  c #949393",
"w  c gray58",
"e  c #959495",
"r  c #959595",
"t  c #979797",
"y  c #989898",
"u  c gray60",
"i  c #9A9A9A",
"p  c #9B9B9B",
"a  c #9D9D9D",
"s  c gray62",
"d  c #9F9F9F",
"f  c #A0A0A0",
"g  c #A2A2A2",
"h  c gray64",
"j  c #A5A5A5",
"k  c gray65",
"l  c gray66",
"z  c #A9A9A9",
"x  c #AAA9A9",
"c  c gray67",
"v  c #ACACAC",
"b  c #AEACAD",
"n  c #AEAEAE",
"m  c #AFAFAF",
"M  c #B0AFAF",
"N  c #B8ACAD",
"B  c gray69",
"V  c #B1B1B1",
"C  c #B2B2B2",
"Z  c gray70",
"A  c #B4B4B4",
"S  c #B5B4B4",
"D  c gray71",
"F  c #B6B6B6",
"G  c #B7B7B7",
"H  c gray72",
"J  c #B9B9B9",
"K  c gray73",
"L  c #BBBBBB",
"P  c #BCBCBC",
"I  c gray74",
"U  c gray",
"Y  c gray75",
"T  c #C0B4B4",
"R  c #C4BBBC",
"E  c #C0C0C0",
"W  c #C1C1C1",
"Q  c gray76",
"!  c #C3C3C3",
"~  c gray77",
"^  c #C5C5C5",
"/  c #C6C6C6",
"(  c gray78",
")  c #CDC5C5",
"_  c #CEC5C5",
"`  c #C8C8C8",
"'  c #CACACA",
"]  c #CBCBCB",
"[  c gray80",
"{  c #CDCDCD",
"}  c #CECECE",
"|  c gray81",
" . c #D1C9C9",
".. c #D0D0D0",
"X. c gray82",
"o. c #D2D2D2",
"O. c LightGray",
"+. c gray83",
"@. c #D5D5D5",
"#. c #D6D5D5",
"$. c gray84",
"%. c #D7D7D7",
"&. c #D8D8D8",
"*. c gray85",
"=. c #DADADA",
"-. c gray86",
";. c gainsboro",
":. c #DDDDDD",
">. c gray87",
",. c #DFDFDF",
"<. c gray88",
"1. c #E1E1E1",
"2. c #E2E2E2",
"3. c gray89",
"4. c #E4E4E4",
"5. c #E6E6E6",
"6. c #E7E7E7",
"7. c gray91",
"8. c #E9E9E9",
"9. c #EAEAEA",
"0. c gray92",
"q. c gray93",
"w. c #EEEEEE",
"e. c #EFEFEF",
"r. c gray94",
"t. c gray95",
"y. c #F3F3F3",
"u. c #F4F4F4",
/* pixels */
"                      # # # # # # # # # #                       ",
"                    # X X X X X X X X X X #                     ",
"                  # X ~ ,.q.y.u.e.*.c m ,.X #                   ",
"                # X >.y.y.e.4.O./ B c *.y.r.X #                 ",
"              # X >.8.2.*.] ^ m t j ` 2.7.9.2.X #               ",
"            # X / [ ' Q G v d 7 z b e l V D U U X #             ",
"          # X a 3 3 3 0 G ( x J %.' q ^ { ] F y 3 X #           ",
"        # X r | &.@.*.1.,.S M ..3.$.U 9 U &.6.6.=.p X #         ",
"        # X l -.u.t.8.X.v 8 f k f h A Z v l ~ +.&.C X #         ",
"        # X K -.0.<./ u A ^ o.=.,.<.7.9.X.U 0 w E / X #         ",
"        # X j A D g 5 v Y | =.#.&.:.$.K C m 4 I h v X #         ",
"        # X $ z ! H J K F F G G U W L l Z +.2.6.*.V X #         ",
"          # X Q >.t.r.6.O.....X.o.$.=.8.w.t.t.5.| X #           ",
"          # X g K } 2.5.4.2.2.2.2.2.2.1.;.[ P H j X #           ",
"  # # # # # # X p F m m n d s s f f f z G ( v i X # # # # # #   ",
"# X X X X X # # X h h / :.-.:.:.;.;.;.<.2.+.W X # # X X X X X # ",
"# X O O O O X X X X X 6 2 N _  .) R T 2 6 X X X X X O O O O X # ",
"# X O % % % O O O O O o O O O O O O O O o O O O O O % % % O X # ",
"# X O % * * * * * * * % % % % % % % % % % * * * * * * * % O X # ",
"# X O % * - - 1 1 1 ; ; ; ; ; ; ; ; ; ; ; ; 1 1 1 - - * % O X # ",
"# X O % % * - 1 1 1 1 1 1 1 1 1 1 1 1 1 1 1 1 1 1 - * % % O X # ",
"  # X O % * - 1 1 1 1 1 1 1 1 1 1 1 1 1 1 1 1 1 1 - * % O X #   ",
"  # X O % * - 1 1 1 > 1 1 1 1 1 1 1 1 1 1 1 1 1 1 - * % O X #   ",
"  # X O % * - 1 1 1 1 1 1 1 1 1 1 1 1 1 1 1 1 1 1 - * % O X #   ",
"    # X O % * ; 1 1 1 1 1 1 1 1 1 1 1 1 1 1 1 1 1 * % O X #     ",
"    # X O % * ; 1 1 1 1 1 1 1 1 1 1 , , 1 1 1 1 1 * % O X #     ",
"      # X O % * ; 1 1 > 1 1 1 1 , , < 1 1 1 1 1 1 % O X #       ",
"      # X O % * * ; 1 : 1 1 1 1 1 < < 1 1 1 1 1 1 % O X #       ",
"        # X O O @ & & = ; 1 1 1 1 1 1 ; = & & @ O O X #         ",
"          # X O O @ @ + = = = ; ; = = = + @ @ O O X #           ",
"            # X X O O o o + + = = + + o o O O X X #             ",
"              # # X X X X . . . . . . X X X X # #               "
};
