/* XPM */
static const char * BackIdle_10_xpm[] = {
"32 32 166 2",
"  	c None",
". 	c #3A004B",
"+ 	c #270032",
"@ 	c #C4C4C4",
"# 	c #DFDFDF",
"$ 	c #EDEDED",
"% 	c #F3F3F3",
"& 	c #F4F4F4",
"* 	c #EFEFEF",
"= 	c #D9D9D9",
"- 	c #ABABAB",
"; 	c #AFAFAF",
"> 	c #DEDEDE",
", 	c #E4E4E4",
"' 	c #D3D3D3",
") 	c #C6C6C6",
"! 	c #B0B0B0",
"~ 	c #F0F0F0",
"{ 	c #E9E9E9",
"] 	c #E2E2E2",
"^ 	c #CBCBCB",
"/ 	c #C5C5C5",
"( 	c #979797",
"_ 	c #A5A5A5",
": 	c #C8C8C8",
"< 	c #E8E8E8",
"[ 	c #EAEAEA",
"} 	c #CCCCCC",
"| 	c #CACACA",
"1 	c #C2C2C2",
"2 	c #B7B7B7",
"3 	c #ACACAC",
"4 	c #9F9F9F",
"5 	c #918F91",
"6 	c #A9A9A9",
"7 	c #AEACAD",
"8 	c #959495",
"9 	c #A8A8A8",
"0 	c #B1B1B1",
"a 	c #B5B5B5",
"b 	c #BEBEBE",
"c 	c #9D9D9D",
"d 	c #868686",
"e 	c #939393",
"f 	c #C7C7C7",
"g 	c #AAA9A9",
"h 	c #B9B9B9",
"i 	c #D7D7D7",
"j 	c #949393",
"k 	c #CDCDCD",
"l 	c #B6B6B6",
"m 	c #989898",
"n 	c #959595",
"o 	c #CFCFCF",
"p 	c #D8D8D8",
"q 	c #D5D5D5",
"r 	c #E1E1E1",
"s 	c #B5B4B4",
"t 	c #B0AFAF",
"u 	c #D0D0D0",
"v 	c #E3E3E3",
"w 	c #D6D6D6",
"x 	c #939192",
"y 	c #E7E7E7",
"z 	c #DADADA",
"A 	c #9B9B9B",
"B 	c #DBDBDB",
"C 	c #F2F2F2",
"D 	c #D1D1D1",
"E 	c #929191",
"F 	c #A0A0A0",
"G 	c #A6A6A6",
"H 	c #A3A3A3",
"I 	c #B4B4B4",
"J 	c #B3B3B3",
"K 	c #D4D4D4",
"L 	c #B2B2B2",
"M 	c #BABABA",
"N 	c #EBEBEB",
"O 	c #E0E0E0",
"P 	c #999999",
"Q 	c #D2D2D2",
"R 	c #949494",
"S 	c #C0C0C0",
"T 	c #A2A2A2",
"U 	c #8F8F8F",
"V 	c #BFBFBF",
"W 	c #D6D5D5",
"X 	c #DDDDDD",
"Y 	c #8C8C8C",
"Z 	c #BDBDBD",
"` 	c #7C7C7C",
" .	c #C3C3C3",
"..	c #B8B8B8",
"+.	c #C1C1C1",
"@.	c #BBBBBB",
"#.	c #EEEEEE",
"$.	c #E6E6E6",
"%.	c #CECECE",
"&.	c #DCDCDC",
"*.	c #BCBCBC",
"=.	c #AEAEAE",
"-.	c #9E9E9E",
";.	c #9A9A9A",
">.	c #690002",
",.	c #790407",
"'.	c #7B0509",
").	c #6E0306",
"!.	c #5D0507",
"~.	c #580608",
"{.	c #5A0609",
"].	c #66070A",
"^.	c #77070B",
"/.	c #76070A",
"(.	c #6F0407",
"_.	c #660002",
":.	c #601416",
"<.	c #760206",
"[.	c #9B0B12",
"}.	c #9D0C13",
"|.	c #950A10",
"1.	c #8F090E",
"2.	c #8E090E",
"3.	c #91090F",
"4.	c #960A10",
"5.	c #9B0C12",
"6.	c #9C0C12",
"7.	c #970A10",
"8.	c #7C0408",
"9.	c #610103",
"0.	c #6A0C0E",
"a.	c #85060B",
"b.	c #9F0D14",
"c.	c #9E0C13",
"d.	c #69080A",
"e.	c #88070C",
"f.	c #690809",
"g.	c #7F0509",
"h.	c #800509",
"i.	c #84060B",
"j.	c #7A0407",
"k.	c #6A0A0C",
"l.	c #6B0C0D",
"m.	c #7B0408",
"n.	c #660E10",
"o.	c #750206",
"p.	c #9E0D13",
"q.	c #710104",
"r.	c #720205",
"s.	c #6A0204",
"t.	c #90090F",
"u.	c #990B11",
"v.	c #790307",
"w.	c #760306",
"x.	c #770306",
"y.	c #680002",
"z.	c #5F0001",
"A.	c #5B0001",
"B.	c #590001",
"C.	c #580001",
"D.	c #610001",
"E.	c #6D0104",
"F.	c #640F11",
"G.	c #3D0102",
"H.	c #440A0B",
"I.	c #630507",
"                      . . . . . . . . . .                       ",
"                    . + + + + + + + + + + .                     ",
"                  . + @ # $ % & * = - ; # + .                   ",
"                . + > % % * , ' ) ! - = % ~ + .                 ",
"              . + > { ] = ^ / ; ( _ : ] < [ ] + .               ",
"            . + ) } | 1 2 3 4 5 6 7 8 9 0 a b b + .             ",
"          . + c d d d e 2 f g h i | j / k ^ l m d + .           ",
"        . + n o p q = r # s t u v w b x b p y y z A + .         ",
"        . + 9 B & C { D 3 E F G F H I J 3 9 @ K p L + .         ",
"        . + M B N O ) P I / Q z # O < [ D b e R S ) + .         ",
"        . + _ I a T U 3 V o z W p X w M L ; Y Z H 3 + .         ",
"        . + ` 6  ...h M l l 2 2 b +.@.9 J K ] y = 0 + .         ",
"          . + 1 > C ~ y ' u u D Q w z { #.C C $.o + .           ",
"          . + T M %.] $., ] ] ] ] ] ] r &.} *..._ + .           ",
"            . + A l ; ; =.4 -.-.F F F 6 2 f 3 ;.+ .             ",
"              . + H H ) X B X X &.&.&.O ] K +.+ .               ",
"                . + >.,.'.).!.~.{.].^./.(._.+ .                 ",
"              . + :.<.[.}.|.1.2.3.4.5.6.7.8.9.+ .               ",
"              . + 0.a.b.b.b.b.b.b.b.}.c.b.a.>.+ .               ",
"              . + d.e.b.b.b.b.b.b.b.b.b.b.e.<.+ .               ",
"              . + f.g.b.b.b.b.b.b.b.b.b.b.g.h.+ .               ",
"              . + f.g.b.b.b.b.b.b.b.b.b.b.g.i.+ .               ",
"              . + d.j.b.b.b.b.b.b.b.b.b.b.j.i.+ .               ",
"              . + k.j.b.b.b.b.b.b.b.b.b.b.j.i.+ .               ",
"              . + l.m.b.b.b.b.b.b.b.c.c.b.m.8.+ .               ",
"              . + n.o.}.b.b.b.b.c.c.p.b.b.o.q.+ .               ",
"              . + f.r.[.b.b.b.b.b.p.p.b.b.r.f.+ .               ",
"              . + f.s.t.u.e.v.w.x.v.e.u.t.s.f.+ .               ",
"              . + f.f.y._.z.A.B.C.A.D.E.y.f.f.+ .               ",
"                . + f.F.f.G.H.H.H.H.G.f.I.f.+ .                 ",
"                  . + + + G.G.G.G.G.G.+ + + .                   ",
"                    . . . + + + + + + . . .                     "};
