/* XPM */
static const char *BackAttack_00[] = {
/* columns rows colors chars-per-pixel */
"32 32 174 2 ",
"   c None",
".  c #3D0102",
"X  c #270032",
"o  c #440A0B",
"O  c #580001",
"+  c #590001",
"@  c #5B0001",
"#  c #5F0001",
"$  c #5D0507",
"%  c #580608",
"&  c #5A0609",
"*  c #610001",
"=  c #610103",
"-  c #660002",
";  c #630507",
":  c #680002",
">  c #690002",
",  c #6A0204",
"<  c #6D0104",
"1  c #6E0306",
"2  c #6F0407",
"3  c #66070A",
"4  c #690809",
"5  c #69080A",
"6  c #6A0A0C",
"7  c #6B0C0D",
"8  c #6A0C0E",
"9  c #710104",
"0  c #720205",
"q  c #750206",
"w  c #760206",
"e  c #760306",
"r  c #770306",
"t  c #790307",
"y  c #790407",
"u  c #7A0407",
"i  c #76070A",
"p  c #77070B",
"a  c #7B0408",
"s  c #7B0509",
"d  c #7C0408",
"f  c #7F0509",
"g  c #640F11",
"h  c #660E10",
"j  c #601416",
"k  c #3A004B",
"l  c #7C7C7C",
"z  c #800509",
"x  c #84060B",
"c  c #85060B",
"v  c #88070C",
"b  c #8E090E",
"n  c #8F090E",
"m  c #90090F",
"M  c #91090F",
"N  c #950A10",
"B  c #960A10",
"V  c #970A10",
"C  c #990B11",
"Z  c #9B0B12",
"A  c #9B0C12",
"S  c #9C0C12",
"D  c #9D0C13",
"F  c #9E0C13",
"G  c #9E0D13",
"H  c #9F0D14",
"J  c #8E7E7E",
"K  c #868686",
"L  c gray55",
"P  c gray56",
"I  c #988A8A",
"U  c #918F91",
"Y  c #929191",
"T  c #939192",
"R  c #939393",
"E  c #949393",
"W  c gray58",
"Q  c #959495",
"!  c #959595",
"~  c #979797",
"^  c #989898",
"/  c gray60",
"(  c #9A9A9A",
")  c #9B9B9B",
"_  c #9D9D9D",
"`  c gray62",
"'  c #9F9F9F",
"]  c #A0A0A0",
"[  c #A2A2A2",
"{  c gray64",
"}  c #A5A5A5",
"|  c gray65",
" . c gray66",
".. c #A9A9A9",
"X. c #AAA9A9",
"o. c gray67",
"O. c #ACACAC",
"+. c #AEACAD",
"@. c #AEAEAE",
"#. c #AFAFAF",
"$. c #B0AFAF",
"%. c #B8ACAD",
"&. c gray69",
"*. c #B1B1B1",
"=. c #B2B2B2",
"-. c gray70",
";. c #B4B4B4",
":. c #B5B4B4",
">. c gray71",
",. c #B6B6B6",
"<. c #B7B7B7",
"1. c gray72",
"2. c #B9B9B9",
"3. c gray73",
"4. c #BBBBBB",
"5. c #BCBCBC",
"6. c gray74",
"7. c gray",
"8. c gray75",
"9. c #C0B4B4",
"0. c #C4BBBC",
"q. c #C0C0C0",
"w. c #C1C1C1",
"e. c gray76",
"r. c #C3C3C3",
"t. c gray77",
"y. c #C5C5C5",
"u. c #C6C6C6",
"i. c gray78",
"p. c #CDC5C5",
"a. c #CEC5C5",
"s. c #C8C8C8",
"d. c #CACACA",
"f. c #CBCBCB",
"g. c gray80",
"h. c #CDCDCD",
"j. c #CECECE",
"k. c gray81",
"l. c #D1C9C9",
"z. c #D0D0D0",
"x. c gray82",
"c. c #D2D2D2",
"v. c LightGray",
"b. c gray83",
"n. c #D5D5D5",
"m. c #D6D5D5",
"M. c gray84",
"N. c #D7D7D7",
"B. c #D8D8D8",
"V. c gray85",
"C. c #DADADA",
"Z. c gray86",
"A. c gainsboro",
"S. c #DDDDDD",
"D. c gray87",
"F. c #DFDFDF",
"G. c gray88",
"H. c #E1E1E1",
"J. c #E2E2E2",
"K. c gray89",
"L. c #E4E4E4",
"P. c #E6E6E6",
"I. c #E7E7E7",
"U. c gray91",
"Y. c #E9E9E9",
"T. c #EAEAEA",
"R. c gray92",
"E. c gray93",
"W. c #EEEEEE",
"Q. c #EFEFEF",
"!. c gray94",
"~. c gray95",
"^. c #F3F3F3",
"/. c #F4F4F4",
/* pixels */
"                      k k k k k k k k k k                       ",
"                    k X X X X X X X X X X k                     ",
"                  k X t.F.E.^./.Q.V.o.#.F.X k                   ",
"                k X D.^.^.Q.L.v.u.&.o.V.^.!.X k                 ",
"              k X D.Y.J.V.f.y.#.~ } s.J.U.T.J.X k               ",
"            k X u.g.d.e.<.O.' U ..+.Q  .*.>.7.7.X k             ",
"          k X _ K K K R <.i.X.2.N.d.E y.h.f.,.^ K X k           ",
"        k X ! k.B.n.V.H.F.:.$.z.K.M.7.T 7.B.I.I.C.) X k         ",
"        k X  .Z./.~.Y.x.O.Y ] | ] { ;.-.O. .t.b.B.=.X k         ",
"        k X 3.Z.R.G.u./ ;.y.c.C.F.G.U.T.x.7.R W q.u.X k         ",
"        k X } ;.>.[ P O.8.k.C.m.B.S.M.3.=.#.L 6.{ O.X k         ",
"        k X l ..r.1.2.3.,.,.<.<.7.w.4. .-.b.J.I.V.*.X k         ",
"          k X e.D.~.!.I.v.z.z.x.c.M.C.Y.W.~.~.P.k.X k           ",
"          k X [ 3.j.J.P.L.J.J.J.J.J.J.H.A.g.5.1.} X k           ",
"            k X ) ,.#.#.@.' ` ` ] ] ] ..<.i.O.( X k             ",
"              k X { { u.S.Z.S.S.A.A.A.G.J.b.w.X k               ",
"                k X X I J %.a.l.p.0.9.J I X X k                 ",
"                k X > y s 1 $ % & 3 p i 2 - X k                 ",
"              k X j w Z D N n b M B A S V d = X k               ",
"              k X 8 c H H H H H H H D F H c > X k               ",
"              k X 5 v H H H H H H H H H H v w X k               ",
"              k X 4 f H H H H H H H H H H f z X k               ",
"              k X 4 f H H H H H H H H H H f x X k               ",
"              k X 5 u H H H H H H H H H H u x X k               ",
"              k X 6 u H H H H H H H H H H u x X k               ",
"              k X 7 a H H H H H H H F F H a d X k               ",
"              k X h q D H H H H F F G H H q 9 X k               ",
"              k X 4 0 Z H H H H H G G H H 0 4 X k               ",
"              k X 4 , m C v t e r t v C m , 4 X k               ",
"              k X 4 4 : - # @ + O @ * < : 4 4 X k               ",
"                k X 4 g 4 . o o o o . 4 ; 4 X k                 ",
"                  k X X X . . . . . . X X X k                   "
};
