/* XPM */
static const char * Brickstone_3_xpm[] = {
"32 32 6 1",
" 	c None",
".	c #7F7F7F",
"+	c #CACACA",
"@	c #AFAFAF",
"#	c #DBDBDB",
"$	c #EFEFEF",
"................................",
".+++++++@@@@@@@@@@@@.+++++++@@@.",
".+####+++@@@@@@@@@@@.+####+++@@.",
".+#$###++++++++++++@.+#$###++@@.",
".+#$$##+++++++++++++.+#$$##++@@.",
".+#$$#############++.+#$$##++@@.",
".+#$$##############+.+#$$##++@@.",
".+#$$$$$$$$$$$$$$##+.+#$$##++@@.",
".+#$$$$$$$$$$$$$$$#+.+#$$##++@@.",
".+#################+.+#$$##++@@.",
".+++++++++++++++++++.+#$$##++@@.",
".....................+#$$##++@@.",
".+++++++@@@.+++++@@@.+#$$##+++@.",
".+####+++@@.+###++@@.+#$$##++++.",
".+#$###++@@.+#$##++@.+#$$####++.",
".+#$$##++@@.+#$###++.+#$$#####+.",
".+#$$##++@@.+#$$###+.+#$$$$$##+.",
".+#$$##++@@.+#$$$$#+.+#$$$$$$#+.",
".+#$$##++@@.+######+.+########+.",
".+#$$##++@@.++++++++.++++++++++.",
".+#$$##++@@.....................",
".+#$$##++@@.+++++++@@@@@@@@@@@@.",
".+#$$##++@@.+####+++@@@@@@@@@@@.",
".+#$$##+++@.+#$###++++++++++++@.",
".+#$$##++++.+#$$##+++++++++++++.",
".+#$$####++.+#$$#############++.",
".+#$$#####+.+#$$##############+.",
".+#$$$$$##+.+#$$$$$$$$$$$$$$##+.",
".+#$$$$$$#+.+#$$$$$$$$$$$$$$$#+.",
".+########+.+#################+.",
".++++++++++.+++++++++++++++++++.",
"................................"};
