/* XPM */
static const char * Cursor_6_xpm[] = {
"15 15 5 1",
" 	c None",
".	c #151515",
"+	c #360047",
"@	c #6E0090",
"#	c #E30000",
"       .       ",
"      ...      ",
"      .+.      ",
"      .@.      ",
"    ..   ..    ",
"    .     .    ",
" ...       ... ",
"..+@   #   @+..",
" ...       ... ",
"    .     .    ",
"    ..   ..    ",
"      .@.      ",
"      .+.      ",
"      ...      ",
"       .       "};
