/* XPM */
static const char * Cursor_4_xpm[] = {
"30 30 5 1",
" 	c None",
".	c #151515",
"+	c #E30000",
"@	c #6E0090",
"#	c #360047",
"....................          ",
"....................          ",
"..++++++++++++......          ",
"..++++++++++++......          ",
"..++++++++@@@@@@....          ",
"..++++++++@@@@@@....          ",
"..++++++@@@@@@@@@@..          ",
"..++++++@@@@@@@@@@..          ",
"..++++@@@@@@######..          ",
"..++++@@@@@@######..          ",
"..++@@@@@@##########..        ",
"..++@@@@@@##########..        ",
"..++@@@@########......        ",
"..++@@@@########......        ",
"....@@@@######........        ",
"....@@@@######........        ",
"......@@####..........        ",
"......@@####..........        ",
"..........##................  ",
"..........##................  ",
"          ....................",
"          ....................",
"                  ....####....",
"                  ....####....",
"                  ....####....",
"                  ....####....",
"                  ............",
"                  ............",
"                    ........  ",
"                    ........  "};
