/* XPM */
static const char * EnemyFront_1_xpm[] = {
"32 32 255 2",
"  	c None",
". 	c #723272",
"+ 	c #733273",
"@ 	c #713171",
"# 	c #733173",
"$ 	c #753376",
"% 	c #753375",
"& 	c #964397",
"* 	c #682D68",
"= 	c #562556",
"- 	c #743274",
"; 	c #703170",
"> 	c #773477",
", 	c #964297",
"' 	c #9F46A0",
") 	c #532353",
"! 	c #3C1A3C",
"~ 	c #692D69",
"{ 	c #6E306E",
"] 	c #984399",
"^ 	c #843A84",
"/ 	c #813881",
"( 	c #A047A1",
"_ 	c #A248A3",
": 	c #783479",
"< 	c #642B64",
"[ 	c #471E47",
"} 	c #703070",
"| 	c #934194",
"1 	c #9E469F",
"2 	c #9C459D",
"3 	c #A148A2",
"4 	c #99439A",
"5 	c #763376",
"6 	c #723172",
"7 	c #863A86",
"8 	c #A349A4",
"9 	c #2B122B",
"0 	c #652C66",
"a 	c #713172",
"b 	c #5F295F",
"c 	c #793479",
"d 	c #803880",
"e 	c #9A449B",
"f 	c #6A2E6A",
"g 	c #491F49",
"h 	c #7D377E",
"i 	c #2F2AE4",
"j 	c #0F09F0",
"k 	c #2825F9",
"l 	c #4B48FB",
"m 	c #010016",
"n 	c #000004",
"o 	c #342FF5",
"p 	c #4742F7",
"q 	c #2E29FB",
"r 	c #6764EB",
"s 	c #3B193B",
"t 	c #692E69",
"u 	c #99449A",
"v 	c #8F3F8F",
"w 	c #582658",
"x 	c #924193",
"y 	c #FF1F1F",
"z 	c #4340DC",
"A 	c #1510FF",
"B 	c #4F4AFC",
"C 	c #413DF8",
"D 	c #1A14F6",
"E 	c #000001",
"F 	c #0E08CE",
"G 	c #3C37F8",
"H 	c #7472FA",
"I 	c #0600F1",
"J 	c #FF0000",
"K 	c #7C377C",
"L 	c #944295",
"M 	c #A04AA1",
"N 	c #1812EE",
"O 	c #514BF8",
"P 	c #433FF8",
"Q 	c #0F09DB",
"R 	c #0B06AA",
"S 	c #4843F7",
"T 	c #3A36F8",
"U 	c #0600F5",
"V 	c #FF3E3E",
"W 	c #4E4AD9",
"X 	c #0C07FD",
"Y 	c #4440F7",
"Z 	c #5C57FD",
"` 	c #0D08C2",
" .	c #0A0595",
"..	c #6B66FE",
"+.	c #6A66FC",
"@.	c #3F39FB",
"#.	c #312EFF",
"$.	c #5B57DB",
"%.	c #2421E8",
"&.	c #0600F0",
"*.	c #2A25F9",
"=.	c #4540F7",
"-.	c #4C48FC",
";.	c #0C08B8",
">.	c #09058A",
",.	c #4E48FE",
"'.	c #6865FA",
").	c #2B26F9",
"!.	c #E00000",
"~.	c #2924E6",
"{.	c #231FFF",
"].	c #3E39F9",
"^.	c #5E5AFF",
"/.	c #4F4BFF",
"(.	c #0C08B9",
"_.	c #5651F7",
":.	c #2D28FB",
"<.	c #0601FF",
"[.	c #0905EF",
"}.	c #0802FE",
"|.	c #0E09CA",
"1.	c #0A0699",
"2.	c #5956FA",
"3.	c #5550F7",
"4.	c #150FFE",
"5.	c #A550A5",
"6.	c #A147A2",
"7.	c #552555",
"8.	c #4C48D9",
"9.	c #4B47F9",
"0.	c #6965FB",
"a.	c #0F09E0",
"b.	c #0C07B1",
"c.	c #6664FA",
"d.	c #0E08F0",
"e.	c #A964AA",
"f.	c #542454",
"g.	c #9D469E",
"h.	c #572657",
"i.	c #632B63",
"j.	c #A249A3",
"k.	c #110EEF",
"l.	c #5F5AFC",
"m.	c #3F3AF7",
"n.	c #2F2AF5",
"o.	c #000001",
"p.	c #0F09DE",
"q.	c #4642F7",
"r.	c #443FFA",
"s.	c #332FFE",
"t.	c #9D539D",
"u.	c #4A1F4B",
"v.	c #984499",
"w.	c #893C8A",
"x.	c #8A3D8B",
"y.	c #592759",
"z.	c #4E49DA",
"A.	c #4D49EE",
"B.	c #534DFE",
"C.	c #05042B",
"D.	c #02020D",
"E.	c #4C49F5",
"F.	c #524EFC",
"G.	c #4E4AE8",
"H.	c #4C48E7",
"I.	c #883C89",
"J.	c #39193A",
"K.	c #994499",
"L.	c #431D43",
"M.	c #2C0007",
"N.	c #381838",
"O.	c #924092",
"P.	c #974398",
"Q.	c #592659",
"R.	c #723373",
"S.	c #9B459C",
"T.	c #BDB1B1",
"U.	c #8E4A8B",
"V.	c #351736",
"W.	c #562557",
"X.	c #6F306F",
"Y.	c #6D306D",
"Z.	c #361636",
"`.	c #733374",
" +	c #924790",
".+	c #D0B8AF",
"++	c #9C469D",
"@+	c #944195",
"#+	c #613A5E",
"$+	c #ECCDB1",
"%+	c #E2C3AD",
"&+	c #473243",
"*+	c #954296",
"=+	c #8F3F90",
"-+	c #6A2F6B",
";+	c #542555",
">+	c #7E387F",
",+	c #733D71",
"'+	c #D1B49C",
")+	c #EFCFB1",
"!+	c #914092",
"~+	c #EAC9AE",
"{+	c #D3BEB7",
"]+	c #DBC1B4",
"^+	c #E0C0A7",
"/+	c #CEAD9E",
"(+	c #988590",
"_+	c #513248",
":+	c #502E4A",
"<+	c #664A62",
"[+	c #7E686C",
"}+	c #D3B29F",
"|+	c #E2C9B4",
"1+	c #E6C7B1",
"2+	c #9C4B9D",
"3+	c #9F47A0",
"4+	c #8C408C",
"5+	c #E9CCB2",
"6+	c #E5C9B2",
"7+	c #DFC3B3",
"8+	c #E5CBB3",
"9+	c #E5C8B2",
"0+	c #EECEB0",
"a+	c #E7C9B2",
"b+	c #8A4388",
"c+	c #8D448B",
"d+	c #E3C7B3",
"e+	c #E7CAB2",
"f+	c #E4C8B2",
"g+	c #EECEB1",
"h+	c #6B575B",
"i+	c #91448F",
"j+	c #904091",
"k+	c #8B547E",
"l+	c #C0A38F",
"m+	c #E4C7B1",
"n+	c #EDCDB1",
"o+	c #E8CBB2",
"p+	c #C3ADA2",
"q+	c #81626A",
"r+	c #8B4488",
"s+	c #91498C",
"t+	c #95608B",
"u+	c #A08486",
"v+	c #95707A",
"w+	c #956A86",
"x+	c #9E6A8F",
"y+	c #935488",
"z+	c #934B8F",
"A+	c #984498",
"B+	c #813882",
"C+	c #8F4090",
"D+	c #944194",
"E+	c #893D8A",
"F+	c #813982",
"                                                                ",
"                        . . . . . . . .                         ",
"                  . . . . . . . . . . . . . .                   ",
"              . . . . . . . . . . . . . . . . . .               ",
"            . . . . . . . . . . . . . . . . . . . .             ",
"          . . + . . . . + . . . . @ @ . + . . . . . .           ",
"        . + . . . . . . . . . . . . . . . @ # . . . . .         ",
"      . $ . % & . . . . . . * = = * . . . . . + + - . . ;       ",
"    . - > , ' . . . . ) ! ~ { ; ; { ~ ! ) . . . . ] ^ - . .     ",
"    + / ( _ : . . < [ } | 1 2 _ 3 2 1 | } [ < . . + 2 4 5 6     ",
"  . 7 _ 8 ( . . 9 0 , 8 8 8 8 8 8 8 8 8 8 , a 9 b . c 3 ' d .   ",
"  . 3 8 8 e f g h 8 8 i j k l m n o p q r 8 8 h g s t u 8 3 .   ",
"  . 8 8 8 v w x 8 y z A B C D E E F G H I z J 8 x w K L 8 8 .   ",
". _ 8 8 8 _ M 8 J y N I O P Q E E R S T U I y J 8 8 8 8 8 8 8 . ",
". 8 8 8 8 8 8 J V W I X Y Z ` E E  ...+.@.#.$.V y 8 8 8 8 8 8 . ",
". 8 8 8 8 8 J y y %.&.*.=.-.;.E E >.,.'.).I %.y y J 8 8 8 8 8 . ",
". 8 8 8 8 8 J !.V ~.{.].^./.(.E E >.,._.:.<.~.V J J 8 8 8 8 8 . ",
". 8 8 8 _ ] 8 y V W [.}.C +.|.E E 1.2.3.4.{.W V y 8 5.e 8 8 8 . ",
". 6.8 8 _ 7.{ 8 J y 8.I 9.0.a.E E b...c.I d.y J 8 e.f.g.8 8 ( . ",
"  . 8 8 8 _ h.i.j.J z k.l.m.n.o.E p.q.r.s.z y 8 t.u.u 8 8 _ .   ",
"  . 8 _ v.w.3 x.y.8 8 i z.A.B.C.D.E.F.G.H.8 8 I.J.3 w.v._ K..   ",
"  . ' 8 _ L.M.v.8 N.i.O.8 8 8 8 8 8 8 8 P.. Q.R.v.M.L._ 8 1 .   ",
"    . _ 8 S.M.T.U.( _ V.W.f X.@ 6 ; Y.* Z.`.(  +.+M.S.++_ .     ",
"    . @+8 8 #+M.$+%+&+*+8 8 =+-+;+>+' 8 ( ,+'+)+M.#+8 8 !+.     ",
"      . ( 8 g.~+M.{+]+M.^+/+(+_+:+<+[+}+M.|+1+M.~+g.2+' .       ",
"        . 3+_ 4+M.5+M.6+M.7+8+M.M.9+0+M.$+M.a+M.4+b+' .         ",
"          . | 8 c+M.0+d+e+M.M.M.M.M.M.6+f+g+M.h+i+j+.           ",
"            . . ( 2 k+l+m+M.n+M.M.)+M.o+p+q+r+( . .             ",
"                . . u u s+t+u+v+w+x+y+z+A+u . .                 ",
"                    . . B+w.C+D+D+v E+F+. .                     ",
"                        . . . . . . . .                         ",
"                                                                "};
