/* XPM */
static const char * EnemySideLeft_1_xpm[] = {
"32 32 132 2",
"  	c None",
". 	c #723272",
"+ 	c #733273",
"@ 	c #843A84",
"# 	c #713171",
"$ 	c #733173",
"% 	c #964297",
"& 	c #9F46A0",
"* 	c #743274",
"= 	c #692D69",
"- 	c #3C1A3C",
"; 	c #532353",
"> 	c #A349A4",
", 	c #9E469F",
"' 	c #934194",
") 	c #703070",
"! 	c #471E47",
"~ 	c #642B64",
"{ 	c #763376",
"] 	c #713172",
"^ 	c #2B122B",
"/ 	c #5F295F",
"( 	c #99449A",
"_ 	c #803880",
": 	c #342FF5",
"< 	c #4742F7",
"[ 	c #2E29FB",
"} 	c #6764EB",
"| 	c #7D377E",
"1 	c #491F49",
"2 	c #3B193B",
"3 	c #692E69",
"4 	c #A148A2",
"5 	c #000000",
"6 	c #0E08CE",
"7 	c #3C37F8",
"8 	c #7472FA",
"9 	c #0600F1",
"0 	c #4340DC",
"a 	c #FF0000",
"b 	c #924193",
"c 	c #582658",
"d 	c #7C377C",
"e 	c #944295",
"f 	c #0B06AA",
"g 	c #4843F7",
"h 	c #3A36F8",
"i 	c #0600F5",
"j 	c #FF1F1F",
"k 	c #A550A5",
"l 	c #9A449B",
"m 	c #0A0595",
"n 	c #6B66FE",
"o 	c #6A66FC",
"p 	c #3F39FB",
"q 	c #312EFF",
"r 	c #5B57DB",
"s 	c #FF3E3E",
"t 	c #09058A",
"u 	c #4E48FE",
"v 	c #6865FA",
"w 	c #2B26F9",
"x 	c #2421E8",
"y 	c #5651F7",
"z 	c #2D28FB",
"A 	c #0601FF",
"B 	c #2924E6",
"C 	c #0A0699",
"D 	c #5956FA",
"E 	c #5550F7",
"F 	c #150FFE",
"G 	c #231FFF",
"H 	c #4E4AD9",
"I 	c #0C07B1",
"J 	c #6664FA",
"K 	c #0E08F0",
"L 	c #A964AA",
"M 	c #542454",
"N 	c #9D469E",
"O 	c #0F09DE",
"P 	c #4642F7",
"Q 	c #443FFA",
"R 	c #332FFE",
"S 	c #9D539D",
"T 	c #4A1F4B",
"U 	c #A248A3",
"V 	c #4C49F5",
"W 	c #524EFC",
"X 	c #4E4AE8",
"Y 	c #4C48E7",
"Z 	c #883C89",
"` 	c #39193A",
" .	c #893C8A",
"..	c #984499",
"+.	c #994499",
"@.	c #974398",
"#.	c #592659",
"$.	c #723373",
"%.	c #2C0007",
"&.	c #431D43",
"*.	c #6D306D",
"=.	c #682D68",
"-.	c #361636",
";.	c #733374",
">.	c #A047A1",
",.	c #924790",
"'.	c #D0B8AF",
").	c #9B459C",
"!.	c #733D71",
"~.	c #D1B49C",
"{.	c #EFCFB1",
"].	c #613A5E",
"^.	c #914092",
"/.	c #D3B29F",
"(.	c #E2C9B4",
"_.	c #E6C7B1",
":.	c #EAC9AE",
"<.	c #9C4B9D",
"[.	c #ECCDB1",
"}.	c #E7C9B2",
"|.	c #8C408C",
"1.	c #8A4388",
"2.	c #EECEB1",
"3.	c #6B575B",
"4.	c #91448F",
"5.	c #904091",
"6.	c #813882",
"7.	c #8F4090",
"8.	c #944194",
"9.	c #8F3F8F",
"0.	c #893D8A",
"a.	c #813982",
"                                                                ",
"                        . . . . . . . .                         ",
"                  . . . . . . . . . . . . . .                   ",
"              . . . . . . . . . . . . . . . . . .               ",
"            . . . . . . . . . . . . . . . . . . . .             ",
"          + . . . . . . + . @ @ @ @ # . + . . . . . .           ",
"        . . # $ . . @ @ @ @ % % % % @ @ @ @ $ . . . . .         ",
"      . . . . @ @ @ % % % % & & & & % % % % @ @ @ * . . .       ",
"    . = - ; @ % % % & & & & > > > > & & & & % % % @ @ * . .     ",
"    . , ' ) ! ~ & & > > > > > > > > > > > > & & & & & % { .     ",
"      . > > % ] ^ / ( > > > > > > > > > > > > > > > > & % _ .   ",
"    : < [ } > > | 1 2 3 ( > 4 > > > > > > > > > > > > > & % .   ",
"  5 6 7 8 9 0 a > b c d e > > > > > > > > > > > > > > > > & .   ",
"  5 f g h i 9 j a > > k l > > > > > > > > > > > > > > > > & % . ",
"  5 m n o p q r s j > > > > > > > > > > > > > > > > > > > & % . ",
"  5 t u v w 9 x j j a > > > > > > > > > > > > > > > > > > & % . ",
"  5 t u y z A B s a a > > > > > > > > > > > > > > > > > > & % . ",
"  5 C D E F G H s j > k l > > > > > > > > > > > > > > > > & % . ",
"  5 I n J 9 K j a > L M N > > > > > > > > > > > > > > > > & % . ",
"  5 O P Q R 0 j > S T ( > > U > > > > > > > > > > > > > > & .   ",
"    V W X Y > > Z ` 4  ...U > > > > > > > > > > > > > > U +..   ",
"      . > @.. #.$...%.&.U > > > > > > > > > > > > > > > > , .   ",
"    . *.=.-.;.>.,.'.%.).> > > > > > > > > > > > > > > > U .     ",
"    . & > >.!.~.{.%.].> > > > > > > > > > > > > > > > > ^..     ",
"      . /.%.(._.%.:.N > > > > > > > > > > > > > > > <.& .       ",
"        . [.%.}.%.|.1.> > > > > > > > > > > > > > <.& .         ",
"          . 2.%.3.4.> > > > > > > > > > > > > > <.5..           ",
"            . . >.> > > > > > > > > > > > > <.>.. .             ",
"                . . ( > > > > > > > > > > ( . .                 ",
"                    . . 6. .7.8.8.9.0.a.. .                     ",
"                        . . . . . . . .                         ",
"                                                                "};
