/* XPM */
static const char *EnemyRight_01[] = {
/* columns rows colors chars-per-pixel */
"32 32 132 2 ",
"   c None",
".  c #000001",
"X  c #2C0007",
"o  c #2B122B",
"O  c #361636",
"+  c #39193A",
"@  c #3B193B",
"#  c #3C1A3C",
"$  c #431D43",
"%  c #471E47",
"&  c #491F49",
"*  c #4A1F4B",
"=  c #532353",
"-  c #542454",
";  c #582658",
":  c #592659",
">  c #5F295F",
",  c #613A5E",
"<  c #642B64",
"1  c #682D68",
"2  c #692D69",
"3  c #692E69",
"4  c #6D306D",
"5  c #703070",
"6  c #713171",
"7  c #713172",
"8  c #733173",
"9  c #723272",
"0  c #733273",
"q  c #723373",
"w  c #733374",
"e  c #743274",
"r  c #763376",
"t  c #733D71",
"y  c #7C377C",
"u  c #7D377E",
"i  c #6B575B",
"p  c red",
"a  c #FF1F1F",
"s  c #FF3E3E",
"d  c #09058A",
"f  c #0A0595",
"g  c #0A0699",
"h  c #0B06AA",
"j  c #0C07B1",
"k  c #0E08CE",
"l  c #0F09DE",
"z  c #0600F1",
"x  c #0600F5",
"c  c #0E08F0",
"v  c #0601FF",
"b  c #150FFE",
"n  c #231FFF",
"m  c #2924E6",
"M  c #2421E8",
"N  c #2B26F9",
"B  c #2D28FB",
"V  c #2E29FB",
"C  c #342FF5",
"Z  c #312EFF",
"A  c #332FFE",
"S  c #3A36F8",
"D  c #3C37F8",
"F  c #3F39FB",
"G  c #443FFA",
"H  c #4340DC",
"J  c #4E4AD9",
"K  c #5B57DB",
"L  c #4C48E7",
"P  c #4E4AE8",
"I  c #4642F7",
"U  c #4742F7",
"Y  c #4843F7",
"T  c #4C49F5",
"R  c #4E48FE",
"E  c #524EFC",
"W  c #5550F7",
"Q  c #5651F7",
"!  c #5956FA",
"~  c #6764EB",
"^  c #6664FA",
"/  c #6865FA",
"(  c #6A66FC",
")  c #6B66FE",
"_  c #7472FA",
"`  c #803880",
"'  c #813882",
"]  c #813982",
"[  c #843A84",
"{  c #883C89",
"}  c #893C8A",
"|  c #893D8A",
" . c #8F3F8F",
".. c #8A4388",
"X. c #8C408C",
"o. c #91448F",
"O. c #8F4090",
"+. c #904091",
"@. c #914092",
"#. c #924193",
"$. c #924790",
"%. c #934194",
"&. c #944194",
"*. c #944295",
"=. c #964297",
"-. c #974398",
";. c #984499",
":. c #994499",
">. c #99449A",
",. c #9A449B",
"<. c #9B459C",
"1. c #9D469E",
"2. c #9E469F",
"3. c #9C4B9D",
"4. c #9D539D",
"5. c #9F46A0",
"6. c #A047A1",
"7. c #A148A2",
"8. c #A248A3",
"9. c #A349A4",
"0. c #A550A5",
"q. c #A964AA",
"w. c #D3B29F",
"e. c #D1B49C",
"r. c #D0B8AF",
"t. c #EAC9AE",
"y. c #E6C7B1",
"u. c #E7C9B2",
"i. c #E2C9B4",
"p. c #ECCDB1",
"a. c #EECEB1",
"s. c #EFCFB1",
/* pixels */
"                                                                ",
"                        9 9 9 9 9 9 9 9                         ",
"                  9 9 9 9 9 9 9 9 9 9 9 9 9 9                   ",
"              9 9 9 9 9 9 9 9 9 9 9 9 9 9 9 9 9 9               ",
"            9 9 9 9 9 9 9 9 9 9 9 9 9 9 9 9 9 9 9 9             ",
"          9 9 9 9 9 9 0 9 6 [ [ [ [ 9 0 9 9 9 9 9 9 0           ",
"        9 9 9 9 9 8 [ [ [ [ =.=.=.=.[ [ [ [ 9 9 8 6 9 9         ",
"      9 9 9 e [ [ [ =.=.=.=.5.5.5.5.=.=.=.=.[ [ [ 9 9 9 9       ",
"    9 9 e [ [ =.=.=.5.5.5.5.9.9.9.9.5.5.5.5.=.=.=.[ = # 2 9     ",
"    9 r =.5.5.5.5.5.9.9.9.9.9.9.9.9.9.9.9.9.5.5.< % 5 %.2.9     ",
"  9 ` =.5.9.9.9.9.9.9.9.9.9.9.9.9.9.9.9.9.>.> o 7 =.9.9.9       ",
"  9 =.5.9.9.9.9.9.9.9.9.9.9.9.9.9.7.9.>.3 @ & u 9.9.~ V U C     ",
"  9 5.9.9.9.9.9.9.9.9.9.9.9.9.9.9.9.9.*.y ; #.9.p H z _ D k .   ",
"9 =.5.9.9.9.9.9.9.9.9.9.9.9.9.9.9.9.9.,.0.9.9.p a z x S Y h .   ",
"9 =.5.9.9.9.9.9.9.9.9.9.9.9.9.9.9.9.9.9.9.9.a s K Z F ( ) f .   ",
"9 =.5.9.9.9.9.9.9.9.9.9.9.9.9.9.9.9.9.9.9.p a a M z N / R d .   ",
"9 =.5.9.9.9.9.9.9.9.9.9.9.9.9.9.9.9.9.9.9.p p s m v B Q R d .   ",
"9 =.5.9.9.9.9.9.9.9.9.9.9.9.9.9.9.9.9.,.0.9.a s J n b W ! g .   ",
"9 =.5.9.9.9.9.9.9.9.9.9.9.9.9.9.9.9.9.1.- q.9.p a c z ^ ) j .   ",
"  9 5.9.9.9.9.9.9.9.9.9.9.9.9.9.9.8.9.9.>.* 4.9.a H A G I l .   ",
"  9 :.8.9.9.9.9.9.9.9.9.9.9.9.9.9.9.8.;.} 7.+ { 9.9.L P E T     ",
"  9 2.9.9.9.9.9.9.9.9.9.9.9.9.9.9.9.9.8.$ X ;.q : 9 -.9.9       ",
"    9 8.9.9.9.9.9.9.9.9.9.9.9.9.9.9.9.9.<.X r.$.6.w O 1 4 9     ",
"    9 @.9.9.9.9.9.9.9.9.9.9.9.9.9.9.9.9.9., X s.e.t 6.9.5.9     ",
"      9 5.3.9.9.9.9.9.9.9.9.9.9.9.9.9.9.9.1.t.X y.i.X w.9       ",
"        9 5.3.9.9.9.9.9.9.9.9.9.9.9.9.9.9...X.X u.X p.9         ",
"          9 +.3.9.9.9.9.9.9.9.9.9.9.9.9.9.9.o.i X a.9           ",
"            9 9 6.3.9.9.9.9.9.9.9.9.9.9.9.9.9.6.9 9             ",
"                9 9 >.9.9.9.9.9.9.9.9.9.9.>.9 9                 ",
"                    9 9 ] |  .&.&.O.} ' 9 9                     ",
"                        9 9 9 9 9 9 9 9                         ",
"                                                                "
};
