/* XPM */
static const char * EnemyBack_0_xpm[] = {
"32 32 35 1",
" 	c None",
".	c #723272",
"+	c #733273",
"@	c #843A84",
"#	c #713171",
"$	c #964297",
"%	c #733173",
"&	c #753376",
"*	c #753375",
"=	c #9F46A0",
"-	c #743274",
";	c #703170",
">	c #773477",
",	c #A349A4",
"'	c #813881",
")	c #763376",
"!	c #723172",
"~	c #863A86",
"{	c #803880",
"]	c #A248A3",
"^	c #A147A2",
"/	c #A047A1",
"(	c #994499",
"_	c #9E469F",
":	c #914092",
"<	c #9C4B9D",
"[	c #904091",
"}	c #99449A",
"|	c #813882",
"1	c #893C8A",
"2	c #8F4090",
"3	c #944194",
"4	c #8F3F8F",
"5	c #893D8A",
"6	c #813982",
"                                ",
"            ........            ",
"         ..............         ",
"       ..................       ",
"      ....................      ",
"     ..+....+.@@@@#.+......     ",
"    .+....@@@@$$$$@@@@%.....    ",
"   .&.*@@@$$$$====$$$$@@@-..;   ",
"  .->$$$$$====,,,,====$$$$@-..  ",
"  +'$=====,,,,,,,,,,,,=====$)!  ",
" .~$=,,,,,,,,,,,,,,,,,,,,,,=${. ",
" .$=,,,,,,,,,,,,,,,,,,,,,,,,=$. ",
" .=,,,,,,,,,,,,,,,,,,,,,,,,,,=. ",
".],,,,,,,,,,,,,,,,,,,,,,,,,,,,,.",
".,,,,,,,,,,,,,,,,,,,,,,,,,,,,,,.",
".,,,,,,,,,,,,,,,,,,,,,,,,,,,,,,.",
".,,,,,,,,,,,,,,,,,,,,,,,,,,,,,,.",
".,,,,,,,,,,,,,,,,,,,,,,,,,,,,,,.",
".^,,,,,,,,,,,,,,,,,,,,,,,,,,,,/.",
" .],,,,,,,,,,,,,,,,,,,,,,,,,,]. ",
" .(],,,,,,,,,,,,,,,,,,,,,,,,](. ",
" ._,,,,,,,,,,,,,,,,,,,,,,,,,,_. ",
"  .],,,,,,,,,,,,,,,,,,,,,,,,].  ",
"  .:,,,,,,,,,,,,,,,,,,,,,,,,:.  ",
"   .=<,,,,,,,,,,,,,,,,,,,,<=.   ",
"    .=<,,,,,,,,,,,,,,,,,,<=.    ",
"     .[<,,,,,,,,,,,,,,,,<[.     ",
"      ../<,,,,,,,,,,,,</..      ",
"        ..},,,,,,,,,,}..        ",
"          ..|1233456..          ",
"            ........            ",
"                                "};
