/* XPM */
static const char *FrontAttack_04[] = {
/* columns rows colors chars-per-pixel */
"32 32 130 2 ",
"   c None",
".  c #250D1B",
"X  c #3A1213",
"o  c #361B29",
"O  c #270032",
"+  c #461516",
"@  c #4B1D1E",
"#  c #600608",
"$  c #65090C",
"%  c #532B2B",
"&  c #726B00",
"*  c #3A004B",
"=  c #84060B",
"-  c #8E080E",
";  c #960A10",
":  c #9D0C13",
">  c #9F0D14",
",  c #AA0000",
"<  c #BD0000",
"1  c #DB0000",
"2  c #F10000",
"3  c #FF2929",
"4  c #8B7A7A",
"5  c #B07B7B",
"6  c #ACA100",
"7  c #D0C200",
"8  c #917D89",
"9  c #A67B94",
"0  c #958D92",
"q  c #9A8A93",
"w  c #9E8D97",
"e  c #979797",
"r  c #9E959A",
"t  c gray61",
"y  c #9F9F9F",
"u  c #A58E9B",
"i  c #AD8B9F",
"p  c #A7909D",
"a  c #A7969F",
"s  c #AC99A4",
"d  c gray63",
"f  c #A2A2A2",
"g  c #A4A4A4",
"h  c #A5A5A5",
"j  c gray65",
"k  c #A7A7A7",
"l  c #A8A2A2",
"z  c #AAA3A3",
"x  c gray66",
"c  c #A9A9A9",
"v  c #AAAAAA",
"b  c #ACACAC",
"n  c gray68",
"m  c #AEAEAE",
"M  c #AFAFAF",
"N  c #B4A4AD",
"B  c #B8A2AE",
"V  c #B0ABAE",
"C  c #B3ABAF",
"Z  c #B4AFAF",
"A  c #B0AFB0",
"S  c #B6ACB2",
"D  c gray69",
"F  c #B1B1B1",
"G  c #B2B2B2",
"H  c gray70",
"J  c #B4B4B4",
"K  c #B5B4B5",
"L  c gray71",
"P  c #B7B5B5",
"I  c #B6B6B6",
"U  c #B7B7B7",
"Y  c gray72",
"T  c #B9B9B9",
"R  c gray73",
"E  c #BBBBBB",
"W  c #BCBCBC",
"Q  c gray74",
"!  c #C0C0C0",
"~  c gray76",
"^  c #C3C3C3",
"/  c #C4C3C3",
"(  c #C6C3C4",
")  c gray77",
"_  c #C6C6C6",
"`  c gray78",
"'  c #C8C7C8",
"]  c gray79",
"[  c #CACACA",
"{  c #CBCBCB",
"}  c #CECDCD",
"|  c #CECECE",
" . c #CFCECE",
".. c #D3CFD2",
"X. c gray82",
"o. c #D2D1D2",
"O. c #D2D2D2",
"+. c LightGray",
"@. c #D4D1D3",
"#. c gray83",
"$. c #D5D5D5",
"%. c #D7D5D6",
"&. c gray84",
"*. c #D7D7D7",
"=. c #D8D8D8",
"-. c #D9D8D9",
";. c gray85",
":. c #DADADA",
">. c gray86",
",. c gainsboro",
"<. c #DDDDDD",
"1. c gray87",
"2. c #DFDFDF",
"3. c gray88",
"4. c #E1E1E1",
"5. c #E4E4E4",
"6. c gray90",
"7. c #E6E6E6",
"8. c #E7E7E7",
"9. c gray91",
"0. c #E9E9E9",
"q. c #EAEAEA",
"w. c gray92",
"e. c gray93",
"r. c #EEEEEE",
"t. c #EFEFEF",
"y. c #F1F1F1",
"u. c gray95",
"i. c #F3F3F3",
"p. c #F4F4F4",
/* pixels */
"                      * * * * * * * * * *                       ",
"                    * O O O O O O O O O O *                     ",
"                  * O >.e.i.y.e.,.Y g ,.| O *                   ",
"                * O e.t.w.6.;._ Y d $.y.r.{ O *                 ",
"              * O 8.5.;.{ ) V w 0 / 3.7.9.1.Q O *               ",
"            * O ! ! R J I K , < 1 p Y Y Y L U I O *             ",
"          * O J L J D b b , < 1 2 1 r m F b m m ^ O *           ",
"        * O >.>.:.>.:.*.B , < o 3 2 1 C &.2.2.:.E &.O *         ",
"        * O :.p.u.9.O.s , < 1 . 1 2 1 8 H I #.:.I | O *         ",
"        * O +.4.<.~ F a , < < o < 1 1 S Q d t m M +.O *         ",
"        * O j f d h R ' N , , , , < q x G F b I d ` O *         ",
"        * O Y ~ ^ E W R L u 5 9 5 i G T { ,.6.:.c ] O *         ",
"          * O =.0.9.2.*.#.o...@.%.-.3.9.e.q.4.+.~ O *           ",
"          * O I X.:.,.:.*.&.&.&.&.*.=.=.O.[ L e Q O *           ",
"            * O y g h g j c c k k j g j c n v U O *             ",
"  * * * * * * * O A _ *.<.1.2.2.1.2.6.8.>.Q R O * * * * * * *   ",
"* O O O O O O O O O O 4 l (  .} / P Z z 4 O O O O O O O O O O * ",
"* O # # # # # # # # # $ X & + @ @ + & X $ # # # # # # # # # O * ",
"* O # = = = - - - = $ X + + & % % & + + X $ = - - - = = = # O * ",
"* O # = - - ; ; - = $ X + + @ 6 6 @ + + X $ = - ; ; - - = # O * ",
"* O # = - ; ; : - = $ X + @ 7 % % 7 @ + X $ = - : ; ; - = # O * ",
"* O # = = - ; > - = $ X 6 & @ % % @ & 6 X $ = - > ; - = = # O * ",
"  * O # = - ; > - = $ X + @ & % % & @ + X $ = - > ; - = # O *   ",
"  * O # = - ; > - = $ X + @ % 6 6 % @ + X $ = - > ; - = # O *   ",
"  * O # = - - ; - = $ X + @ 7 % % 7 @ + X $ = - ; - - = # O *   ",
"    * O # = - ; - = $ X 6 & @ % % @ & 6 X $ = - ; - = # O *     ",
"    * O # = = - - = $ X + @ & % % & @ + X $ = - - = = # O *     ",
"      * O # = - - = $ X + @ % 6 6 % @ + X $ = - - = # O *       ",
"      * O # # = = = $ X + @ 7 % % 7 @ + X $ = = = # # O *       ",
"        * O O # # = $ X 6 & @ % % @ & 6 X $ = # # O O *         ",
"          * * O O = = $ X + & % % & + X $ = = O O * *           ",
"              * * O O O O X + & & + X O O O O * *               "
};
