/* XPM */
static const char * FrontIdle_07_xpm[] = {
"32 32 210 2",
"  	c None",
". 	c #3A004B",
"+ 	c #270032",
"@ 	c #DBDBDB",
"# 	c #EDEDED",
"$ 	c #F3F3F3",
"% 	c #F1F1F1",
"& 	c #DCDCDC",
"* 	c #B8B8B8",
"= 	c #A4A4A4",
"- 	c #CECECE",
"; 	c #EFEFEF",
"> 	c #EBEBEB",
", 	c #E5E5E5",
"' 	c #D9D9D9",
") 	c #C6C6C6",
"! 	c #A1A1A1",
"~ 	c #D5D5D5",
"{ 	c #EEEEEE",
"] 	c #CBCBCB",
"^ 	c #E7E7E7",
"/ 	c #E4E4E4",
"( 	c #C4C4C4",
"_ 	c #B0ABAE",
": 	c #9E8D97",
"< 	c #958D92",
"[ 	c #C4C3C3",
"} 	c #E0E0E0",
"| 	c #E6E6E6",
"1 	c #E8E8E8",
"2 	c #DEDEDE",
"3 	c #BDBDBD",
"4 	c #C0C0C0",
"5 	c #BABABA",
"6 	c #B4B4B4",
"7 	c #B6B6B6",
"8 	c #B5B4B5",
"9 	c #684A26",
"0 	c #755329",
"a 	c #B17F40",
"b 	c #A7909D",
"c 	c #B5B5B5",
"d 	c #B7B7B7",
"e 	c #B0B0B0",
"f 	c #ACACAC",
"g 	c #8E642F",
"h 	c #A6773C",
"i 	c #9E959A",
"j 	c #AEAEAE",
"k 	c #B1B1B1",
"l 	c #C3C3C3",
"m 	c #DADADA",
"n 	c #D7D7D7",
"o 	c #956931",
"p 	c #B3ABAF",
"q 	c #D6D6D6",
"r 	c #DFDFDF",
"s 	c #BBBBBB",
"t 	c #F4F4F4",
"u 	c #F2F2F2",
"v 	c #D2D2D2",
"w 	c #AC99A4",
"x 	c #8C2561",
"y 	c #250D1B",
"z 	c #DC85B7",
"A 	c #917D89",
"B 	c #B3B3B3",
"C 	c #D4D4D4",
"D 	c #D3D3D3",
"E 	c #E1E1E1",
"F 	c #DDDDDD",
"G 	c #C2C2C2",
"H 	c #A7969F",
"I 	c #B6ACB2",
"J 	c #9C9C9C",
"K 	c #AFAFAF",
"L 	c #A6A6A6",
"M 	c #A2A2A2",
"N 	c #A5A5A5",
"O 	c #C8C7C8",
"P 	c #B4A4AD",
"Q 	c #9A8A93",
"R 	c #A8A8A8",
"S 	c #B2B2B2",
"T 	c #C7C7C7",
"U 	c #BCBCBC",
"V 	c #A58E9B",
"W 	c #B07B9A",
"X 	c #A67B94",
"Y 	c #B783A1",
"Z 	c #AD8B9F",
"` 	c #B9B9B9",
" .	c #A9A9A9",
"..	c #C9C9C9",
"+.	c #D8D8D8",
"@.	c #E9E9E9",
"#.	c #D2D1D2",
"$.	c #D3CFD2",
"%.	c #D4D1D3",
"&.	c #D7D5D6",
"*.	c #D9D8D9",
"=.	c #EAEAEA",
"-.	c #D1D1D1",
";.	c #CACACA",
">.	c #979797",
",.	c #9F9F9F",
"'.	c #A7A7A7",
").	c #ADADAD",
"!.	c #AAAAAA",
"~.	c #B0AFB0",
"{.	c #760305",
"].	c #65090C",
"^.	c #450507",
"/.	c #3B0506",
"(.	c #3A0707",
"_.	c #390607",
":.	c #380707",
"<.	c #43090A",
"[.	c #670105",
"}.	c #6F0306",
"|.	c #7E0509",
"1.	c #990A11",
"2.	c #9D0C13",
"3.	c #7D0E13",
"4.	c #550A0C",
"5.	c #440A0C",
"6.	c #4C0507",
"7.	c #560103",
"8.	c #7B0408",
"9.	c #9E0C13",
"0.	c #990B11",
"a.	c #9C0C13",
"b.	c #832023",
"c.	c #84060B",
"d.	c #9F0D14",
"e.	c #9A0D14",
"f.	c #811016",
"g.	c #6C0A0E",
"h.	c #690508",
"i.	c #6C0406",
"j.	c #86060B",
"k.	c #860F13",
"l.	c #85060B",
"m.	c #6E0D10",
"n.	c #6C0103",
"o.	c #830A0F",
"p.	c #670103",
"q.	c #950A10",
"r.	c #83060B",
"s.	c #760A0F",
"t.	c #6A0103",
"u.	c #940A0F",
"v.	c #9D0D14",
"w.	c #650B0E",
"x.	c #6D0103",
"y.	c #970A11",
"z.	c #850E14",
"A.	c #600608",
"B.	c #770306",
"C.	c #9C0B12",
"D.	c #82060A",
"E.	c #8E1117",
"F.	c #67090C",
"G.	c #690003",
"H.	c #8F080E",
"I.	c #9A0B11",
"J.	c #9E0D14",
"K.	c #811015",
"L.	c #6E0C0F",
"M.	c #630103",
"N.	c #700104",
"O.	c #780508",
"P.	c #960A10",
"Q.	c #9C0D14",
"R.	c #750E13",
"S.	c #4E0A0C",
"T.	c #500709",
"U.	c #640002",
"V.	c #930910",
"W.	c #721417",
"X.	c #8E080E",
"Y.	c #8A080D",
"Z.	c #6C0B0F",
"`.	c #480507",
" +	c #3F0102",
".+	c #3F0203",
"++	c #480608",
"@+	c #600305",
"#+	c #881419",
"$+	c #6D0306",
"%+	c #590608",
"&+	c #430405",
"*+	c #480001",
"=+	c #590001",
"-+	c #550001",
";+	c #410102",
">+	c #460809",
",+	c #630507",
"'+	c #7D0408",
")+	c #8E080D",
"!+	c #62191A",
"~+	c #4B1314",
"{+	c #3E0506",
"]+	c #540001",
"^+	c #490001",
"/+	c #3D0102",
"(+	c #430809",
"_+	c #461516",
":+	c #4B1D1E",
"<+	c #726B00",
"                      . . . . . . . . . .                       ",
"                    . + + + + + + + + + + .                     ",
"                  . + @ # $ % # & * = & - + .                   ",
"                . + # ; > , ' ) * ! ~ % { ] + .                 ",
"              . + ^ / ' ] ( _ : < [ } | 1 2 3 + .               ",
"            . + 4 4 5 6 7 8 9 0 a b * * * c d 7 + .             ",
"          . + 6 c 6 e f f 9 0 g h a i j k f j j l + .           ",
"        . + @ @ m @ m n 9 0 g o h h a p q r r m s q + .         ",
"        . + m t u 1 v w 0 g x y z h a A B 7 C m 7 - + .         ",
"        . + D E F G k H 9 0 0 g g o a I 3 ! J j K D + .         ",
"        . + L M ! N 5 O P 9 9 0 a a Q R S k f 7 ! T + .         ",
"        . + * G l s U 5 c V W X Y Z S ` ] & , m  ...+ .         ",
"          . + +.@.1 r n C #.$.%.&.*.} 1 # =.E D G + .           ",
"          . + 7 -.m & m n q q q q n +.+.v ;.c >.3 + .           ",
"            . + ,.= N = L  . .'.'.L = L  .).!.d + .             ",
"              . + ~.) n F 2 r r 2 r , ^ @ 3 5 + .               ",
"                . + {.].^./.(._.:.<.[.[.}.}.+ .                 ",
"              . + |.1.2.3.4.5.6.7.8.1.9.0.a.b.+ .               ",
"              . + c.2.d.d.e.f.g.h.i.j.2.a.a.k.+ .               ",
"              . + l.9.d.d.d.d.d.e.m.n.0.9.a.k.+ .               ",
"              . + c.2.d.d.d.d.d.d.o.p.q.9.a.k.+ .               ",
"              . + r.2.d.d.d.d.d.d.s.t.u.9.a.k.+ .               ",
"              . + r.2.d.d.d.d.d.v.w.x.y.9.a.k.+ .               ",
"              . + r.2.d.d.d.d.d.z.A.B.C.9.a.k.+ .               ",
"              . + D.2.d.d.d.d.E.F.G.H.9.9.a.k.+ .               ",
"              . + |.I.d.d.J.K.L.M.N.C.d.2.a.k.+ .               ",
"              . + O.P.d.Q.R.S.T.U.n.V.d.2.a.k.+ .               ",
"              . + W.X.Y.Z.`. +.+++@+8.C.2.a.#++ .               ",
"              . + W.$+%+&+*+=+-+;+>+,+'+)+#+#++ .               ",
"                . + !+~+{+*+]+]+^+/+(+,+'+)++ .                 ",
"                  . + + + _+:+<+<+:+_++ + + .                   ",
"                    . . . + + + + + + . . .                     "};
