/* XPM */
static const const char * Front_Idle_1_xpm[] = {
"32 32 242 2",
"  	c None",
". 	c #3A004B",
"+ 	c #270032",
"@ 	c #DBDBDB",
"# 	c #EDEDED",
"$ 	c #F3F3F3",
"% 	c #F1F1F1",
"& 	c #DCDCDC",
"* 	c #B8B8B8",
"= 	c #A4A4A4",
"- 	c #CECECE",
"; 	c #EFEFEF",
"> 	c #EBEBEB",
", 	c #E5E5E5",
"' 	c #D9D9D9",
") 	c #C6C6C6",
"! 	c #A1A1A1",
"~ 	c #D5D5D5",
"{ 	c #EEEEEE",
"] 	c #CBCBCB",
"^ 	c #E7E7E7",
"/ 	c #E4E4E4",
"( 	c #C4C4C4",
"_ 	c #B0ABAE",
": 	c #9E8D97",
"< 	c #958D92",
"[ 	c #C4C3C3",
"} 	c #E0E0E0",
"| 	c #E6E6E6",
"1 	c #E8E8E8",
"2 	c #DEDEDE",
"3 	c #BDBDBD",
"4 	c #C0C0C0",
"5 	c #BABABA",
"6 	c #B4B4B4",
"7 	c #B6B6B6",
"8 	c #B5B4B5",
"9 	c #885F77",
"0 	c #963E70",
"a 	c #A4668A",
"b 	c #A7909D",
"c 	c #B5B5B5",
"d 	c #B7B7B7",
"e 	c #B0B0B0",
"f 	c #ACACAC",
"g 	c #A997A1",
"h 	c #AE4A83",
"i 	c #9C3971",
"j 	c #D771AB",
"k 	c #A45181",
"l 	c #9E959A",
"m 	c #AEAEAE",
"n 	c #B1B1B1",
"o 	c #C3C3C3",
"p 	c #DADADA",
"q 	c #D7D7D7",
"r 	c #B8A2AE",
"s 	c #A75585",
"t 	c #A53877",
"u 	c #361B29",
"v 	c #E8AECF",
"w 	c #CF6BA5",
"x 	c #A05E84",
"y 	c #B3ABAF",
"z 	c #D6D6D6",
"A 	c #DFDFDF",
"B 	c #BBBBBB",
"C 	c #F4F4F4",
"D 	c #F2F2F2",
"E 	c #D2D2D2",
"F 	c #AC99A4",
"G 	c #A44E80",
"H 	c #BB3281",
"I 	c #8C2561",
"J 	c #250D1B",
"K 	c #DC85B7",
"L 	c #DE83B7",
"M 	c #B63E83",
"N 	c #917D89",
"O 	c #B3B3B3",
"P 	c #D4D4D4",
"Q 	c #D3D3D3",
"R 	c #E1E1E1",
"S 	c #DDDDDD",
"T 	c #C2C2C2",
"U 	c #A7969F",
"V 	c #A35582",
"W 	c #BA3380",
"X 	c #982567",
"Y 	c #CA4893",
"Z 	c #CB5599",
"` 	c #AB608B",
" .	c #B6ACB2",
"..	c #9C9C9C",
"+.	c #AFAFAF",
"@.	c #A6A6A6",
"#.	c #A2A2A2",
"$.	c #A5A5A5",
"%.	c #C8C7C8",
"&.	c #B4A4AD",
"*.	c #A84F82",
"=.	c #B22E7A",
"-.	c #761C4F",
";.	c #BF3082",
">.	c #A73878",
",.	c #9A8A93",
"'.	c #A8A8A8",
").	c #B2B2B2",
"!.	c #C7C7C7",
"~.	c #BCBCBC",
"{.	c #A58E9B",
"].	c #B07B9A",
"^.	c #A67B94",
"/.	c #B783A1",
"(.	c #AD8B9F",
"_.	c #B9B9B9",
":.	c #A9A9A9",
"<.	c #C9C9C9",
"[.	c #D8D8D8",
"}.	c #E9E9E9",
"|.	c #D2D1D2",
"1.	c #D3CFD2",
"2.	c #D4D1D3",
"3.	c #D7D5D6",
"4.	c #D9D8D9",
"5.	c #EAEAEA",
"6.	c #D1D1D1",
"7.	c #CACACA",
"8.	c #979797",
"9.	c #9F9F9F",
"0.	c #A7A7A7",
"a.	c #ADADAD",
"b.	c #AAAAAA",
"c.	c #B0AFB0",
"d.	c #8B7A7A",
"e.	c #A8A2A2",
"f.	c #C6C3C4",
"g.	c #CFCECE",
"h.	c #CECDCD",
"i.	c #B7B5B5",
"j.	c #B4AFAF",
"k.	c #AAA3A3",
"l.	c #760305",
"m.	c #65090C",
"n.	c #450507",
"o.	c #3B0506",
"p.	c #3A0707",
"q.	c #390607",
"r.	c #380707",
"s.	c #43090A",
"t.	c #670105",
"u.	c #6F0306",
"v.	c #7E0509",
"w.	c #990A11",
"x.	c #9D0C13",
"y.	c #7D0E13",
"z.	c #550A0C",
"A.	c #440A0C",
"B.	c #4C0507",
"C.	c #560103",
"D.	c #7B0408",
"E.	c #9E0C13",
"F.	c #990B11",
"G.	c #9C0C13",
"H.	c #832023",
"I.	c #84060B",
"J.	c #9F0D14",
"K.	c #9A0D14",
"L.	c #811016",
"M.	c #6C0A0E",
"N.	c #690508",
"O.	c #6C0406",
"P.	c #86060B",
"Q.	c #860F13",
"R.	c #85060B",
"S.	c #6E0D10",
"T.	c #6C0103",
"U.	c #830A0F",
"V.	c #670103",
"W.	c #950A10",
"X.	c #83060B",
"Y.	c #760A0F",
"Z.	c #6A0103",
"`.	c #940A0F",
" +	c #9D0D14",
".+	c #650B0E",
"++	c #6D0103",
"@+	c #970A11",
"#+	c #850E14",
"$+	c #600608",
"%+	c #770306",
"&+	c #9C0B12",
"*+	c #82060A",
"=+	c #8E1117",
"-+	c #67090C",
";+	c #690003",
">+	c #8F080E",
",+	c #9A0B11",
"'+	c #9E0D14",
")+	c #811015",
"!+	c #6E0C0F",
"~+	c #630103",
"{+	c #700104",
"]+	c #780508",
"^+	c #960A10",
"/+	c #9C0D14",
"(+	c #750E13",
"_+	c #4E0A0C",
":+	c #500709",
"<+	c #640002",
"[+	c #930910",
"}+	c #721417",
"|+	c #8E080E",
"1+	c #8A080D",
"2+	c #6C0B0F",
"3+	c #480507",
"4+	c #3F0102",
"5+	c #3F0203",
"6+	c #480608",
"7+	c #600305",
"8+	c #881419",
"9+	c #6D0306",
"0+	c #590608",
"a+	c #430405",
"b+	c #480001",
"c+	c #590001",
"d+	c #550001",
"e+	c #410102",
"f+	c #460809",
"g+	c #630507",
"h+	c #7D0408",
"i+	c #8E080D",
"j+	c #62191A",
"k+	c #4B1314",
"l+	c #3E0506",
"m+	c #540001",
"n+	c #490001",
"o+	c #3D0102",
"p+	c #430809",
"q+	c #461516",
"r+	c #4B1D1E",
"s+	c #726B00",
"                      . . . . . . . . . .                       ",
"                    . + + + + + + + + + + .                     ",
"                  . + @ # $ % # & * = & - + .                   ",
"                . + # ; > , ' ) * ! ~ % { ] + .                 ",
"              . + ^ / ' ] ( _ : < [ } | 1 2 3 + .               ",
"            . + 4 4 5 6 7 8 9 0 a b * * * c d 7 + .             ",
"          . + 6 c 6 e f f g h i j k l m n f m m o + .           ",
"        . + @ @ p @ p q r s t u v w x y z A A p B z + .         ",
"        . + p C D 1 E F G H I J K L M N O 7 P p 7 - + .         ",
"        . + Q R S T n U V W X u Y Z `  .3 ! ..m +.Q + .         ",
"        . + @.#.! $.5 %.&.*.=.-.;.>.,.'.).n f 7 ! !.+ .         ",
"        . + * T o B ~.5 c {.].^./.(.)._.] & , p :.<.+ .         ",
"          . + [.}.1 A q P |.1.2.3.4.} 1 # 5.R Q T + .           ",
"          . + 7 6.p & p q z z z z q [.[.E 7.c 8.3 + .           ",
"            . + 9.= $.= @.:.:.0.0.@.= @.:.a.b.d + .             ",
"              . + c.) q S 2 A A 2 A , ^ @ 3 5 + .               ",
"                . + + d.e.f.g.h.[ i.j.k.d.+ + .                 ",
"                . + l.m.n.o.p.q.r.s.t.t.u.u.+ .                 ",
"              . + v.w.x.y.z.A.B.C.D.w.E.F.G.H.+ .               ",
"              . + I.x.J.J.K.L.M.N.O.P.x.G.G.Q.+ .               ",
"              . + R.E.J.J.J.J.J.K.S.T.F.E.G.Q.+ .               ",
"              . + I.x.J.J.J.J.J.J.U.V.W.E.G.Q.+ .               ",
"              . + X.x.J.J.J.J.J.J.Y.Z.`.E.G.Q.+ .               ",
"              . + X.x.J.J.J.J.J. +.+++@+E.G.Q.+ .               ",
"              . + X.x.J.J.J.J.J.#+$+%+&+E.G.Q.+ .               ",
"              . + *+x.J.J.J.J.=+-+;+>+E.E.G.Q.+ .               ",
"              . + v.,+J.J.'+)+!+~+{+&+J.x.G.Q.+ .               ",
"              . + ]+^+J./+(+_+:+<+T.[+J.x.G.Q.+ .               ",
"              . + }+|+1+2+3+4+5+6+7+D.&+x.G.8++ .               ",
"              . + }+9+0+a+b+c+d+e+f+g+h+i+8+8++ .               ",
"                . + j+k+l+b+m+m+n+o+p+g+h+i++ .                 ",
"                  . + + + q+r+s+s+r+q++ + + .                   "};
