/* XPM */
static const char * FrontIdle_09_xpm[] = {
"32 32 221 2",
"  	c None",
". 	c #3A004B",
"+ 	c #270032",
"@ 	c #DBDBDB",
"# 	c #EDEDED",
"$ 	c #F3F3F3",
"% 	c #F1F1F1",
"& 	c #DCDCDC",
"* 	c #B8B8B8",
"= 	c #A4A4A4",
"- 	c #CECECE",
"; 	c #EFEFEF",
"> 	c #EBEBEB",
", 	c #E5E5E5",
"' 	c #D9D9D9",
") 	c #C6C6C6",
"! 	c #A1A1A1",
"~ 	c #D5D5D5",
"{ 	c #EEEEEE",
"] 	c #CBCBCB",
"^ 	c #E7E7E7",
"/ 	c #E4E4E4",
"( 	c #C4C4C4",
"_ 	c #B0ABAE",
": 	c #9E8D97",
"< 	c #958D92",
"[ 	c #C4C3C3",
"} 	c #E0E0E0",
"| 	c #E6E6E6",
"1 	c #E8E8E8",
"2 	c #DEDEDE",
"3 	c #BDBDBD",
"4 	c #C0C0C0",
"5 	c #BABABA",
"6 	c #B4B4B4",
"7 	c #B6B6B6",
"8 	c #B5B4B5",
"9 	c #755329",
"0 	c #956931",
"a 	c #A6773C",
"b 	c #A7909D",
"c 	c #B5B5B5",
"d 	c #B7B7B7",
"e 	c #B0B0B0",
"f 	c #ACACAC",
"g 	c #9C3971",
"h 	c #9E959A",
"i 	c #AEAEAE",
"j 	c #B1B1B1",
"k 	c #C3C3C3",
"l 	c #DADADA",
"m 	c #D7D7D7",
"n 	c #B8A2AE",
"o 	c #A75585",
"p 	c #A53877",
"q 	c #361B29",
"r 	c #E8AECF",
"s 	c #CF6BA5",
"t 	c #A05E84",
"u 	c #B3ABAF",
"v 	c #D6D6D6",
"w 	c #DFDFDF",
"x 	c #BBBBBB",
"y 	c #F4F4F4",
"z 	c #F2F2F2",
"A 	c #D2D2D2",
"B 	c #AC99A4",
"C 	c #A44E80",
"D 	c #BB3281",
"E 	c #8C2561",
"F 	c #250D1B",
"G 	c #DC85B7",
"H 	c #DE83B7",
"I 	c #B63E83",
"J 	c #917D89",
"K 	c #B3B3B3",
"L 	c #D4D4D4",
"M 	c #D3D3D3",
"N 	c #E1E1E1",
"O 	c #DDDDDD",
"P 	c #C2C2C2",
"Q 	c #A7969F",
"R 	c #982567",
"S 	c #CA4893",
"T 	c #B6ACB2",
"U 	c #9C9C9C",
"V 	c #AFAFAF",
"W 	c #A6A6A6",
"X 	c #A2A2A2",
"Y 	c #A5A5A5",
"Z 	c #C8C7C8",
"` 	c #B4A4AD",
" .	c #9A8A93",
"..	c #A8A8A8",
"+.	c #B2B2B2",
"@.	c #C7C7C7",
"#.	c #BCBCBC",
"$.	c #A58E9B",
"%.	c #B07B9A",
"&.	c #A67B94",
"*.	c #B783A1",
"=.	c #AD8B9F",
"-.	c #B9B9B9",
";.	c #A9A9A9",
">.	c #C9C9C9",
",.	c #D8D8D8",
"'.	c #E9E9E9",
").	c #D2D1D2",
"!.	c #D3CFD2",
"~.	c #D4D1D3",
"{.	c #D7D5D6",
"].	c #D9D8D9",
"^.	c #EAEAEA",
"/.	c #D1D1D1",
"(.	c #CACACA",
"_.	c #979797",
":.	c #9F9F9F",
"<.	c #A7A7A7",
"[.	c #ADADAD",
"}.	c #AAAAAA",
"|.	c #B0AFB0",
"1.	c #760305",
"2.	c #65090C",
"3.	c #450507",
"4.	c #3B0506",
"5.	c #3A0707",
"6.	c #390607",
"7.	c #380707",
"8.	c #43090A",
"9.	c #670105",
"0.	c #6F0306",
"a.	c #7E0509",
"b.	c #990A11",
"c.	c #9D0C13",
"d.	c #7D0E13",
"e.	c #550A0C",
"f.	c #440A0C",
"g.	c #4C0507",
"h.	c #560103",
"i.	c #7B0408",
"j.	c #9E0C13",
"k.	c #990B11",
"l.	c #9C0C13",
"m.	c #832023",
"n.	c #84060B",
"o.	c #9F0D14",
"p.	c #9A0D14",
"q.	c #811016",
"r.	c #6C0A0E",
"s.	c #690508",
"t.	c #6C0406",
"u.	c #86060B",
"v.	c #860F13",
"w.	c #85060B",
"x.	c #6E0D10",
"y.	c #6C0103",
"z.	c #830A0F",
"A.	c #670103",
"B.	c #950A10",
"C.	c #83060B",
"D.	c #760A0F",
"E.	c #6A0103",
"F.	c #940A0F",
"G.	c #9D0D14",
"H.	c #650B0E",
"I.	c #6D0103",
"J.	c #970A11",
"K.	c #850E14",
"L.	c #600608",
"M.	c #770306",
"N.	c #9C0B12",
"O.	c #82060A",
"P.	c #8E1117",
"Q.	c #67090C",
"R.	c #690003",
"S.	c #8F080E",
"T.	c #9A0B11",
"U.	c #9E0D14",
"V.	c #811015",
"W.	c #6E0C0F",
"X.	c #630103",
"Y.	c #700104",
"Z.	c #780508",
"`.	c #960A10",
" +	c #9C0D14",
".+	c #750E13",
"++	c #4E0A0C",
"@+	c #500709",
"#+	c #640002",
"$+	c #930910",
"%+	c #721417",
"&+	c #8E080E",
"*+	c #8A080D",
"=+	c #6C0B0F",
"-+	c #480507",
";+	c #3F0102",
">+	c #3F0203",
",+	c #480608",
"'+	c #600305",
")+	c #881419",
"!+	c #6D0306",
"~+	c #590608",
"{+	c #430405",
"]+	c #480001",
"^+	c #590001",
"/+	c #550001",
"(+	c #410102",
"_+	c #460809",
":+	c #630507",
"<+	c #7D0408",
"[+	c #8E080D",
"}+	c #62191A",
"|+	c #4B1314",
"1+	c #3E0506",
"2+	c #540001",
"3+	c #490001",
"4+	c #3D0102",
"5+	c #430809",
"6+	c #461516",
"7+	c #4B1D1E",
"8+	c #726B00",
"                      . . . . . . . . . .                       ",
"                    . + + + + + + + + + + .                     ",
"                  . + @ # $ % # & * = & - + .                   ",
"                . + # ; > , ' ) * ! ~ % { ] + .                 ",
"              . + ^ / ' ] ( _ : < [ } | 1 2 3 + .               ",
"            . + 4 4 5 6 7 8 9 0 a b * * * c d 7 + .             ",
"          . + 6 c 6 e f f 9 0 g 0 a h i j f i i k + .           ",
"        . + @ @ l @ l m n o p q r s t u v w w l x v + .         ",
"        . + l y z 1 A B C D E F G H I J K 7 L l 7 - + .         ",
"        . + M N O P j Q 9 0 R q S 0 a T 3 ! U i V M + .         ",
"        . + W X ! Y 5 Z ` 9 0 0 a a  ...+.j f 7 ! @.+ .         ",
"        . + * P k x #.5 c $.%.&.*.=.+.-.] & , l ;.>.+ .         ",
"          . + ,.'.1 w m L ).!.~.{.].} 1 # ^.N M P + .           ",
"          . + 7 /.l & l m v v v v m ,.,.A (.c _.3 + .           ",
"            . + :.= Y = W ;.;.<.<.W = W ;.[.}.d + .             ",
"              . + |.) m O 2 w w 2 w , ^ @ 3 5 + .               ",
"                . + 1.2.3.4.5.6.7.8.9.9.0.0.+ .                 ",
"              . + a.b.c.d.e.f.g.h.i.b.j.k.l.m.+ .               ",
"              . + n.c.o.o.p.q.r.s.t.u.c.l.l.v.+ .               ",
"              . + w.j.o.o.o.o.o.p.x.y.k.j.l.v.+ .               ",
"              . + n.c.o.o.o.o.o.o.z.A.B.j.l.v.+ .               ",
"              . + C.c.o.o.o.o.o.o.D.E.F.j.l.v.+ .               ",
"              . + C.c.o.o.o.o.o.G.H.I.J.j.l.v.+ .               ",
"              . + C.c.o.o.o.o.o.K.L.M.N.j.l.v.+ .               ",
"              . + O.c.o.o.o.o.P.Q.R.S.j.j.l.v.+ .               ",
"              . + a.T.o.o.U.V.W.X.Y.N.o.c.l.v.+ .               ",
"              . + Z.`.o. +.+++@+#+y.$+o.c.l.v.+ .               ",
"              . + %+&+*+=+-+;+>+,+'+i.N.c.l.)++ .               ",
"              . + %+!+~+{+]+^+/+(+_+:+<+[+)+)++ .               ",
"                . + }+|+1+]+2+2+3+4+5+:+<+[++ .                 ",
"                  . + + + 6+7+8+8+7+6++ + + .                   ",
"                    . . . + + + + + + . . .                     "};
