/* XPM */
static const char * FrontAttack_0_xpm[] = {
"32 32 216 2",
"  	c None",
". 	c #3A004B",
"+ 	c #270032",
"@ 	c #DBDBDB",
"# 	c #EDEDED",
"$ 	c #F3F3F3",
"% 	c #F1F1F1",
"& 	c #DCDCDC",
"* 	c #B8B8B8",
"= 	c #A4A4A4",
"- 	c #CECECE",
"; 	c #EFEFEF",
"> 	c #EBEBEB",
", 	c #E5E5E5",
"' 	c #D9D9D9",
") 	c #C6C6C6",
"! 	c #A1A1A1",
"~ 	c #D5D5D5",
"{ 	c #EEEEEE",
"] 	c #CBCBCB",
"^ 	c #E7E7E7",
"/ 	c #E4E4E4",
"( 	c #C4C4C4",
"_ 	c #B0ABAE",
": 	c #9E8D97",
"< 	c #958D92",
"[ 	c #C4C3C3",
"} 	c #E0E0E0",
"| 	c #E6E6E6",
"1 	c #E8E8E8",
"2 	c #DEDEDE",
"3 	c #BDBDBD",
"4 	c #C0C0C0",
"5 	c #BABABA",
"6 	c #B4B4B4",
"7 	c #B6B6B6",
"8 	c #B5B4B5",
"9 	c #AA0000",
"0 	c #BD0000",
"a 	c #DB0000",
"b 	c #A7909D",
"c 	c #B5B5B5",
"d 	c #B7B7B7",
"e 	c #B0B0B0",
"f 	c #ACACAC",
"g 	c #F10000",
"h 	c #9E959A",
"i 	c #AEAEAE",
"j 	c #B1B1B1",
"k 	c #C3C3C3",
"l 	c #DADADA",
"m 	c #D7D7D7",
"n 	c #B8A2AE",
"o 	c #361B29",
"p 	c #FF2929",
"q 	c #B3ABAF",
"r 	c #D6D6D6",
"s 	c #DFDFDF",
"t 	c #BBBBBB",
"u 	c #F4F4F4",
"v 	c #F2F2F2",
"w 	c #D2D2D2",
"x 	c #AC99A4",
"y 	c #250D1B",
"z 	c #917D89",
"A 	c #B3B3B3",
"B 	c #D4D4D4",
"C 	c #D3D3D3",
"D 	c #E1E1E1",
"E 	c #DDDDDD",
"F 	c #C2C2C2",
"G 	c #A7969F",
"H 	c #B6ACB2",
"I 	c #9C9C9C",
"J 	c #AFAFAF",
"K 	c #A6A6A6",
"L 	c #A2A2A2",
"M 	c #A5A5A5",
"N 	c #C8C7C8",
"O 	c #B4A4AD",
"P 	c #9A8A93",
"Q 	c #A8A8A8",
"R 	c #B2B2B2",
"S 	c #C7C7C7",
"T 	c #BCBCBC",
"U 	c #A58E9B",
"V 	c #B07B7B",
"W 	c #A67B94",
"X 	c #AD8B9F",
"Y 	c #B9B9B9",
"Z 	c #A9A9A9",
"` 	c #C9C9C9",
" .	c #D8D8D8",
"..	c #E9E9E9",
"+.	c #D2D1D2",
"@.	c #D3CFD2",
"#.	c #D4D1D3",
"$.	c #D7D5D6",
"%.	c #D9D8D9",
"&.	c #EAEAEA",
"*.	c #D1D1D1",
"=.	c #CACACA",
"-.	c #979797",
";.	c #9F9F9F",
">.	c #A7A7A7",
",.	c #ADADAD",
"'.	c #AAAAAA",
").	c #B0AFB0",
"!.	c #8B7A7A",
"~.	c #A8A2A2",
"{.	c #C6C3C4",
"].	c #CFCECE",
"^.	c #CECDCD",
"/.	c #B7B5B5",
"(.	c #B4AFAF",
"_.	c #AAA3A3",
":.	c #760305",
"<.	c #65090C",
"[.	c #450507",
"}.	c #3B0506",
"|.	c #3A0707",
"1.	c #390607",
"2.	c #380707",
"3.	c #43090A",
"4.	c #670105",
"5.	c #6F0306",
"6.	c #7E0509",
"7.	c #990A11",
"8.	c #9D0C13",
"9.	c #7D0E13",
"0.	c #550A0C",
"a.	c #440A0C",
"b.	c #4C0507",
"c.	c #560103",
"d.	c #7B0408",
"e.	c #9E0C13",
"f.	c #990B11",
"g.	c #9C0C13",
"h.	c #832023",
"i.	c #84060B",
"j.	c #9F0D14",
"k.	c #9A0D14",
"l.	c #811016",
"m.	c #6C0A0E",
"n.	c #690508",
"o.	c #6C0406",
"p.	c #86060B",
"q.	c #860F13",
"r.	c #85060B",
"s.	c #6E0D10",
"t.	c #6C0103",
"u.	c #830A0F",
"v.	c #670103",
"w.	c #950A10",
"x.	c #83060B",
"y.	c #760A0F",
"z.	c #6A0103",
"A.	c #940A0F",
"B.	c #9D0D14",
"C.	c #650B0E",
"D.	c #6D0103",
"E.	c #970A11",
"F.	c #850E14",
"G.	c #600608",
"H.	c #770306",
"I.	c #9C0B12",
"J.	c #82060A",
"K.	c #8E1117",
"L.	c #67090C",
"M.	c #690003",
"N.	c #8F080E",
"O.	c #9A0B11",
"P.	c #9E0D14",
"Q.	c #811015",
"R.	c #6E0C0F",
"S.	c #630103",
"T.	c #700104",
"U.	c #780508",
"V.	c #960A10",
"W.	c #9C0D14",
"X.	c #750E13",
"Y.	c #4E0A0C",
"Z.	c #500709",
"`.	c #640002",
" +	c #930910",
".+	c #721417",
"++	c #8E080E",
"@+	c #8A080D",
"#+	c #6C0B0F",
"$+	c #480507",
"%+	c #3F0102",
"&+	c #3F0203",
"*+	c #480608",
"=+	c #600305",
"-+	c #881419",
";+	c #6D0306",
">+	c #590608",
",+	c #430405",
"'+	c #480001",
")+	c #590001",
"!+	c #550001",
"~+	c #410102",
"{+	c #460809",
"]+	c #630507",
"^+	c #7D0408",
"/+	c #8E080D",
"(+	c #62191A",
"_+	c #4B1314",
":+	c #3E0506",
"<+	c #540001",
"[+	c #490001",
"}+	c #3D0102",
"|+	c #430809",
"1+	c #461516",
"2+	c #4B1D1E",
"3+	c #726B00",
"                      . . . . . . . . . .                       ",
"                    . + + + + + + + + + + .                     ",
"                  . + @ # $ % # & * = & - + .                   ",
"                . + # ; > , ' ) * ! ~ % { ] + .                 ",
"              . + ^ / ' ] ( _ : < [ } | 1 2 3 + .               ",
"            . + 4 4 5 6 7 8 9 0 a b * * * c d 7 + .             ",
"          . + 6 c 6 e f f 9 0 a g a h i j f i i k + .           ",
"        . + @ @ l @ l m n 9 0 o p g a q r s s l t r + .         ",
"        . + l u v 1 w x 9 0 a y a g a z A 7 B l 7 - + .         ",
"        . + C D E F j G 9 0 0 o 0 a a H 3 ! I i J C + .         ",
"        . + K L ! M 5 N O 9 9 9 9 0 P Q R j f 7 ! S + .         ",
"        . + * F k t T 5 c U V W V X R Y ] & , l Z ` + .         ",
"          . +  ...1 s m B +.@.#.$.%.} 1 # &.D C F + .           ",
"          . + 7 *.l & l m r r r r m  . .w =.c -.3 + .           ",
"            . + ;.= M = K Z Z >.>.K = K Z ,.'.d + .             ",
"              . + ).) m E 2 s s 2 s , ^ @ 3 5 + .               ",
"                . + + !.~.{.].^.[ /.(._.!.+ + .                 ",
"                . + :.<.[.}.|.1.2.3.4.4.5.5.+ .                 ",
"              . + 6.7.8.9.0.a.b.c.d.7.e.f.g.h.+ .               ",
"              . + i.8.j.j.k.l.m.n.o.p.8.g.g.q.+ .               ",
"              . + r.e.j.j.j.j.j.k.s.t.f.e.g.q.+ .               ",
"              . + i.8.j.j.j.j.j.j.u.v.w.e.g.q.+ .               ",
"              . + x.8.j.j.j.j.j.j.y.z.A.e.g.q.+ .               ",
"              . + x.8.j.j.j.j.j.B.C.D.E.e.g.q.+ .               ",
"              . + x.8.j.j.j.j.j.F.G.H.I.e.g.q.+ .               ",
"              . + J.8.j.j.j.j.K.L.M.N.e.e.g.q.+ .               ",
"              . + 6.O.j.j.P.Q.R.S.T.I.j.8.g.q.+ .               ",
"              . + U.V.j.W.X.Y.Z.`.t. +j.8.g.q.+ .               ",
"              . + .+++@+#+$+%+&+*+=+d.I.8.g.-++ .               ",
"              . + .+;+>+,+'+)+!+~+{+]+^+/+-+-++ .               ",
"                . + (+_+:+'+<+<+[+}+|+]+^+/++ .                 ",
"                  . + + + 1+2+3+3+2+1++ + + .                   "};
