/* XPM */
static const char * FrontIdle_08_xpm[] = {
"32 32 215 2",
"  	c None",
". 	c #3A004B",
"+ 	c #270032",
"@ 	c #DBDBDB",
"# 	c #EDEDED",
"$ 	c #F3F3F3",
"% 	c #F1F1F1",
"& 	c #DCDCDC",
"* 	c #B8B8B8",
"= 	c #A4A4A4",
"- 	c #CECECE",
"; 	c #EFEFEF",
"> 	c #EBEBEB",
", 	c #E5E5E5",
"' 	c #D9D9D9",
") 	c #C6C6C6",
"! 	c #A1A1A1",
"~ 	c #D5D5D5",
"{ 	c #EEEEEE",
"] 	c #CBCBCB",
"^ 	c #E7E7E7",
"/ 	c #E4E4E4",
"( 	c #C4C4C4",
"_ 	c #B0ABAE",
": 	c #9E8D97",
"< 	c #958D92",
"[ 	c #C4C3C3",
"} 	c #E0E0E0",
"| 	c #E6E6E6",
"1 	c #E8E8E8",
"2 	c #DEDEDE",
"3 	c #BDBDBD",
"4 	c #C0C0C0",
"5 	c #BABABA",
"6 	c #B4B4B4",
"7 	c #B6B6B6",
"8 	c #B5B4B5",
"9 	c #755329",
"0 	c #B17F40",
"a 	c #A7909D",
"b 	c #B5B5B5",
"c 	c #B7B7B7",
"d 	c #B0B0B0",
"e 	c #ACACAC",
"f 	c #8E642F",
"g 	c #956931",
"h 	c #A6773C",
"i 	c #9E959A",
"j 	c #AEAEAE",
"k 	c #B1B1B1",
"l 	c #C3C3C3",
"m 	c #DADADA",
"n 	c #D7D7D7",
"o 	c #A53877",
"p 	c #361B29",
"q 	c #E8AECF",
"r 	c #B3ABAF",
"s 	c #D6D6D6",
"t 	c #DFDFDF",
"u 	c #BBBBBB",
"v 	c #F4F4F4",
"w 	c #F2F2F2",
"x 	c #D2D2D2",
"y 	c #AC99A4",
"z 	c #BB3281",
"A 	c #8C2561",
"B 	c #250D1B",
"C 	c #DC85B7",
"D 	c #DE83B7",
"E 	c #917D89",
"F 	c #B3B3B3",
"G 	c #D4D4D4",
"H 	c #D3D3D3",
"I 	c #E1E1E1",
"J 	c #DDDDDD",
"K 	c #C2C2C2",
"L 	c #A7969F",
"M 	c #684A26",
"N 	c #B6ACB2",
"O 	c #9C9C9C",
"P 	c #AFAFAF",
"Q 	c #A6A6A6",
"R 	c #A2A2A2",
"S 	c #A5A5A5",
"T 	c #C8C7C8",
"U 	c #B4A4AD",
"V 	c #9A8A93",
"W 	c #A8A8A8",
"X 	c #B2B2B2",
"Y 	c #C7C7C7",
"Z 	c #BCBCBC",
"` 	c #A58E9B",
" .	c #B07B9A",
"..	c #A67B94",
"+.	c #B783A1",
"@.	c #AD8B9F",
"#.	c #B9B9B9",
"$.	c #A9A9A9",
"%.	c #C9C9C9",
"&.	c #D8D8D8",
"*.	c #E9E9E9",
"=.	c #D2D1D2",
"-.	c #D3CFD2",
";.	c #D4D1D3",
">.	c #D7D5D6",
",.	c #D9D8D9",
"'.	c #EAEAEA",
").	c #D1D1D1",
"!.	c #CACACA",
"~.	c #979797",
"{.	c #9F9F9F",
"].	c #A7A7A7",
"^.	c #ADADAD",
"/.	c #AAAAAA",
"(.	c #B0AFB0",
"_.	c #760305",
":.	c #65090C",
"<.	c #450507",
"[.	c #3B0506",
"}.	c #3A0707",
"|.	c #390607",
"1.	c #380707",
"2.	c #43090A",
"3.	c #670105",
"4.	c #6F0306",
"5.	c #7E0509",
"6.	c #990A11",
"7.	c #9D0C13",
"8.	c #7D0E13",
"9.	c #550A0C",
"0.	c #440A0C",
"a.	c #4C0507",
"b.	c #560103",
"c.	c #7B0408",
"d.	c #9E0C13",
"e.	c #990B11",
"f.	c #9C0C13",
"g.	c #832023",
"h.	c #84060B",
"i.	c #9F0D14",
"j.	c #9A0D14",
"k.	c #811016",
"l.	c #6C0A0E",
"m.	c #690508",
"n.	c #6C0406",
"o.	c #86060B",
"p.	c #860F13",
"q.	c #85060B",
"r.	c #6E0D10",
"s.	c #6C0103",
"t.	c #830A0F",
"u.	c #670103",
"v.	c #950A10",
"w.	c #83060B",
"x.	c #760A0F",
"y.	c #6A0103",
"z.	c #940A0F",
"A.	c #9D0D14",
"B.	c #650B0E",
"C.	c #6D0103",
"D.	c #970A11",
"E.	c #850E14",
"F.	c #600608",
"G.	c #770306",
"H.	c #9C0B12",
"I.	c #82060A",
"J.	c #8E1117",
"K.	c #67090C",
"L.	c #690003",
"M.	c #8F080E",
"N.	c #9A0B11",
"O.	c #9E0D14",
"P.	c #811015",
"Q.	c #6E0C0F",
"R.	c #630103",
"S.	c #700104",
"T.	c #780508",
"U.	c #960A10",
"V.	c #9C0D14",
"W.	c #750E13",
"X.	c #4E0A0C",
"Y.	c #500709",
"Z.	c #640002",
"`.	c #930910",
" +	c #721417",
".+	c #8E080E",
"++	c #8A080D",
"@+	c #6C0B0F",
"#+	c #480507",
"$+	c #3F0102",
"%+	c #3F0203",
"&+	c #480608",
"*+	c #600305",
"=+	c #881419",
"-+	c #6D0306",
";+	c #590608",
">+	c #430405",
",+	c #480001",
"'+	c #590001",
")+	c #550001",
"!+	c #410102",
"~+	c #460809",
"{+	c #630507",
"]+	c #7D0408",
"^+	c #8E080D",
"/+	c #62191A",
"(+	c #4B1314",
"_+	c #3E0506",
":+	c #540001",
"<+	c #490001",
"[+	c #3D0102",
"}+	c #430809",
"|+	c #461516",
"1+	c #4B1D1E",
"2+	c #726B00",
"                      . . . . . . . . . .                       ",
"                    . + + + + + + + + + + .                     ",
"                  . + @ # $ % # & * = & - + .                   ",
"                . + # ; > , ' ) * ! ~ % { ] + .                 ",
"              . + ^ / ' ] ( _ : < [ } | 1 2 3 + .               ",
"            . + 4 4 5 6 7 8 9 9 0 a * * * b c 7 + .             ",
"          . + 6 b 6 d e e 9 f g h 0 i j k e j j l + .           ",
"        . + @ @ m @ m n 9 f o p q h 0 r s t t m u s + .         ",
"        . + m v w 1 x y 9 z A B C D h E F 7 G m 7 - + .         ",
"        . + H I J K k L M f g p f h 0 N 3 ! O j P H + .         ",
"        . + Q R ! S 5 T U M 9 g g 0 V W X k e 7 ! Y + .         ",
"        . + * K l u Z 5 b `  ...+.@.X #.] & , m $.%.+ .         ",
"          . + &.*.1 t n G =.-.;.>.,.} 1 # '.I H K + .           ",
"          . + 7 ).m & m n s s s s n &.&.x !.b ~.3 + .           ",
"            . + {.= S = Q $.$.].].Q = Q $.^./.c + .             ",
"              . + (.) n J 2 t t 2 t , ^ @ 3 5 + .               ",
"                . + _.:.<.[.}.|.1.2.3.3.4.4.+ .                 ",
"              . + 5.6.7.8.9.0.a.b.c.6.d.e.f.g.+ .               ",
"              . + h.7.i.i.j.k.l.m.n.o.7.f.f.p.+ .               ",
"              . + q.d.i.i.i.i.i.j.r.s.e.d.f.p.+ .               ",
"              . + h.7.i.i.i.i.i.i.t.u.v.d.f.p.+ .               ",
"              . + w.7.i.i.i.i.i.i.x.y.z.d.f.p.+ .               ",
"              . + w.7.i.i.i.i.i.A.B.C.D.d.f.p.+ .               ",
"              . + w.7.i.i.i.i.i.E.F.G.H.d.f.p.+ .               ",
"              . + I.7.i.i.i.i.J.K.L.M.d.d.f.p.+ .               ",
"              . + 5.N.i.i.O.P.Q.R.S.H.i.7.f.p.+ .               ",
"              . + T.U.i.V.W.X.Y.Z.s.`.i.7.f.p.+ .               ",
"              . +  +.+++@+#+$+%+&+*+c.H.7.f.=++ .               ",
"              . +  +-+;+>+,+'+)+!+~+{+]+^+=+=++ .               ",
"                . + /+(+_+,+:+:+<+[+}+{+]+^++ .                 ",
"                  . + + + |+1+2+2+1+|++ + + .                   ",
"                    . . . + + + + + + . . .                     "};
