/* XPM */
static const char * FrontIdle_03_xpm[] = {
"32 32 223 2",
"  	c None",
". 	c #3A004B",
"+ 	c #270032",
"@ 	c #DBDBDB",
"# 	c #EDEDED",
"$ 	c #F3F3F3",
"% 	c #F1F1F1",
"& 	c #DCDCDC",
"* 	c #B8B8B8",
"= 	c #A4A4A4",
"- 	c #CECECE",
"; 	c #EFEFEF",
"> 	c #EBEBEB",
", 	c #E5E5E5",
"' 	c #D9D9D9",
") 	c #C6C6C6",
"! 	c #A1A1A1",
"~ 	c #D5D5D5",
"{ 	c #EEEEEE",
"] 	c #CBCBCB",
"^ 	c #E7E7E7",
"/ 	c #E4E4E4",
"( 	c #C4C4C4",
"_ 	c #B0ABAE",
": 	c #9E8D97",
"< 	c #958D92",
"[ 	c #C4C3C3",
"} 	c #E0E0E0",
"| 	c #E6E6E6",
"1 	c #E8E8E8",
"2 	c #DEDEDE",
"3 	c #BDBDBD",
"4 	c #C0C0C0",
"5 	c #BABABA",
"6 	c #B4B4B4",
"7 	c #B6B6B6",
"8 	c #B5B4B5",
"9 	c #755329",
"0 	c #B17F40",
"a 	c #A7909D",
"b 	c #B5B5B5",
"c 	c #B7B7B7",
"d 	c #B0B0B0",
"e 	c #ACACAC",
"f 	c #8E642F",
"g 	c #956931",
"h 	c #A6773C",
"i 	c #9E959A",
"j 	c #AEAEAE",
"k 	c #B1B1B1",
"l 	c #C3C3C3",
"m 	c #DADADA",
"n 	c #D7D7D7",
"o 	c #A53877",
"p 	c #361B29",
"q 	c #E8AECF",
"r 	c #B3ABAF",
"s 	c #D6D6D6",
"t 	c #DFDFDF",
"u 	c #BBBBBB",
"v 	c #F4F4F4",
"w 	c #F2F2F2",
"x 	c #D2D2D2",
"y 	c #AC99A4",
"z 	c #BB3281",
"A 	c #8C2561",
"B 	c #250D1B",
"C 	c #DC85B7",
"D 	c #DE83B7",
"E 	c #917D89",
"F 	c #B3B3B3",
"G 	c #D4D4D4",
"H 	c #D3D3D3",
"I 	c #E1E1E1",
"J 	c #DDDDDD",
"K 	c #C2C2C2",
"L 	c #A7969F",
"M 	c #684A26",
"N 	c #B6ACB2",
"O 	c #9C9C9C",
"P 	c #AFAFAF",
"Q 	c #A6A6A6",
"R 	c #A2A2A2",
"S 	c #A5A5A5",
"T 	c #C8C7C8",
"U 	c #B4A4AD",
"V 	c #9A8A93",
"W 	c #A8A8A8",
"X 	c #B2B2B2",
"Y 	c #C7C7C7",
"Z 	c #BCBCBC",
"` 	c #A58E9B",
" .	c #B07B9A",
"..	c #A67B94",
"+.	c #B783A1",
"@.	c #AD8B9F",
"#.	c #B9B9B9",
"$.	c #A9A9A9",
"%.	c #C9C9C9",
"&.	c #D8D8D8",
"*.	c #E9E9E9",
"=.	c #D2D1D2",
"-.	c #D3CFD2",
";.	c #D4D1D3",
">.	c #D7D5D6",
",.	c #D9D8D9",
"'.	c #EAEAEA",
").	c #D1D1D1",
"!.	c #CACACA",
"~.	c #979797",
"{.	c #9F9F9F",
"].	c #A7A7A7",
"^.	c #ADADAD",
"/.	c #AAAAAA",
"(.	c #B0AFB0",
"_.	c #8B7A7A",
":.	c #A8A2A2",
"<.	c #C6C3C4",
"[.	c #CFCECE",
"}.	c #CECDCD",
"|.	c #B7B5B5",
"1.	c #B4AFAF",
"2.	c #AAA3A3",
"3.	c #760305",
"4.	c #65090C",
"5.	c #450507",
"6.	c #3B0506",
"7.	c #3A0707",
"8.	c #390607",
"9.	c #380707",
"0.	c #43090A",
"a.	c #670105",
"b.	c #6F0306",
"c.	c #7E0509",
"d.	c #990A11",
"e.	c #9D0C13",
"f.	c #7D0E13",
"g.	c #550A0C",
"h.	c #440A0C",
"i.	c #4C0507",
"j.	c #560103",
"k.	c #7B0408",
"l.	c #9E0C13",
"m.	c #990B11",
"n.	c #9C0C13",
"o.	c #832023",
"p.	c #84060B",
"q.	c #9F0D14",
"r.	c #9A0D14",
"s.	c #811016",
"t.	c #6C0A0E",
"u.	c #690508",
"v.	c #6C0406",
"w.	c #86060B",
"x.	c #860F13",
"y.	c #85060B",
"z.	c #6E0D10",
"A.	c #6C0103",
"B.	c #830A0F",
"C.	c #670103",
"D.	c #950A10",
"E.	c #83060B",
"F.	c #760A0F",
"G.	c #6A0103",
"H.	c #940A0F",
"I.	c #9D0D14",
"J.	c #650B0E",
"K.	c #6D0103",
"L.	c #970A11",
"M.	c #850E14",
"N.	c #600608",
"O.	c #770306",
"P.	c #9C0B12",
"Q.	c #82060A",
"R.	c #8E1117",
"S.	c #67090C",
"T.	c #690003",
"U.	c #8F080E",
"V.	c #9A0B11",
"W.	c #9E0D14",
"X.	c #811015",
"Y.	c #6E0C0F",
"Z.	c #630103",
"`.	c #700104",
" +	c #780508",
".+	c #960A10",
"++	c #9C0D14",
"@+	c #750E13",
"#+	c #4E0A0C",
"$+	c #500709",
"%+	c #640002",
"&+	c #930910",
"*+	c #721417",
"=+	c #8E080E",
"-+	c #8A080D",
";+	c #6C0B0F",
">+	c #480507",
",+	c #3F0102",
"'+	c #3F0203",
")+	c #480608",
"!+	c #600305",
"~+	c #881419",
"{+	c #6D0306",
"]+	c #590608",
"^+	c #430405",
"/+	c #480001",
"(+	c #590001",
"_+	c #550001",
":+	c #410102",
"<+	c #460809",
"[+	c #630507",
"}+	c #7D0408",
"|+	c #8E080D",
"1+	c #62191A",
"2+	c #4B1314",
"3+	c #3E0506",
"4+	c #540001",
"5+	c #490001",
"6+	c #3D0102",
"7+	c #430809",
"8+	c #461516",
"9+	c #4B1D1E",
"0+	c #726B00",
"                      . . . . . . . . . .                       ",
"                    . + + + + + + + + + + .                     ",
"                  . + @ # $ % # & * = & - + .                   ",
"                . + # ; > , ' ) * ! ~ % { ] + .                 ",
"              . + ^ / ' ] ( _ : < [ } | 1 2 3 + .               ",
"            . + 4 4 5 6 7 8 9 9 0 a * * * b c 7 + .             ",
"          . + 6 b 6 d e e 9 f g h 0 i j k e j j l + .           ",
"        . + @ @ m @ m n 9 f o p q h 0 r s t t m u s + .         ",
"        . + m v w 1 x y 9 z A B C D h E F 7 G m 7 - + .         ",
"        . + H I J K k L M f g p f h 0 N 3 ! O j P H + .         ",
"        . + Q R ! S 5 T U M 9 g g 0 V W X k e 7 ! Y + .         ",
"        . + * K l u Z 5 b `  ...+.@.X #.] & , m $.%.+ .         ",
"          . + &.*.1 t n G =.-.;.>.,.} 1 # '.I H K + .           ",
"          . + 7 ).m & m n s s s s n &.&.x !.b ~.3 + .           ",
"            . + {.= S = Q $.$.].].Q = Q $.^./.c + .             ",
"              . + (.) n J 2 t t 2 t , ^ @ 3 5 + .               ",
"                . + + _.:.<.[.}.[ |.1.2._.+ + .                 ",
"                . + 3.4.5.6.7.8.9.0.a.a.b.b.+ .                 ",
"              . + c.d.e.f.g.h.i.j.k.d.l.m.n.o.+ .               ",
"              . + p.e.q.q.r.s.t.u.v.w.e.n.n.x.+ .               ",
"              . + y.l.q.q.q.q.q.r.z.A.m.l.n.x.+ .               ",
"              . + p.e.q.q.q.q.q.q.B.C.D.l.n.x.+ .               ",
"              . + E.e.q.q.q.q.q.q.F.G.H.l.n.x.+ .               ",
"              . + E.e.q.q.q.q.q.I.J.K.L.l.n.x.+ .               ",
"              . + E.e.q.q.q.q.q.M.N.O.P.l.n.x.+ .               ",
"              . + Q.e.q.q.q.q.R.S.T.U.l.l.n.x.+ .               ",
"              . + c.V.q.q.W.X.Y.Z.`.P.q.e.n.x.+ .               ",
"              . +  +.+q.++@+#+$+%+A.&+q.e.n.x.+ .               ",
"              . + *+=+-+;+>+,+'+)+!+k.P.e.n.~++ .               ",
"              . + *+{+]+^+/+(+_+:+<+[+}+|+~+~++ .               ",
"                . + 1+2+3+/+4+4+5+6+7+[+}+|++ .                 ",
"                  . + + + 8+9+0+0+9+8++ + + .                   "};
