/* XPM */
static const char * FrontIdle_04_xpm[] = {
"32 32 218 2",
"  	c None",
". 	c #3A004B",
"+ 	c #270032",
"@ 	c #DBDBDB",
"# 	c #EDEDED",
"$ 	c #F3F3F3",
"% 	c #F1F1F1",
"& 	c #DCDCDC",
"* 	c #B8B8B8",
"= 	c #A4A4A4",
"- 	c #CECECE",
"; 	c #EFEFEF",
"> 	c #EBEBEB",
", 	c #E5E5E5",
"' 	c #D9D9D9",
") 	c #C6C6C6",
"! 	c #A1A1A1",
"~ 	c #D5D5D5",
"{ 	c #EEEEEE",
"] 	c #CBCBCB",
"^ 	c #E7E7E7",
"/ 	c #E4E4E4",
"( 	c #C4C4C4",
"_ 	c #B0ABAE",
": 	c #9E8D97",
"< 	c #958D92",
"[ 	c #C4C3C3",
"} 	c #E0E0E0",
"| 	c #E6E6E6",
"1 	c #E8E8E8",
"2 	c #DEDEDE",
"3 	c #BDBDBD",
"4 	c #C0C0C0",
"5 	c #BABABA",
"6 	c #B4B4B4",
"7 	c #B6B6B6",
"8 	c #B5B4B5",
"9 	c #684A26",
"0 	c #755329",
"a 	c #B17F40",
"b 	c #A7909D",
"c 	c #B5B5B5",
"d 	c #B7B7B7",
"e 	c #B0B0B0",
"f 	c #ACACAC",
"g 	c #8E642F",
"h 	c #A6773C",
"i 	c #9E959A",
"j 	c #AEAEAE",
"k 	c #B1B1B1",
"l 	c #C3C3C3",
"m 	c #DADADA",
"n 	c #D7D7D7",
"o 	c #956931",
"p 	c #B3ABAF",
"q 	c #D6D6D6",
"r 	c #DFDFDF",
"s 	c #BBBBBB",
"t 	c #F4F4F4",
"u 	c #F2F2F2",
"v 	c #D2D2D2",
"w 	c #AC99A4",
"x 	c #8C2561",
"y 	c #250D1B",
"z 	c #DC85B7",
"A 	c #917D89",
"B 	c #B3B3B3",
"C 	c #D4D4D4",
"D 	c #D3D3D3",
"E 	c #E1E1E1",
"F 	c #DDDDDD",
"G 	c #C2C2C2",
"H 	c #A7969F",
"I 	c #B6ACB2",
"J 	c #9C9C9C",
"K 	c #AFAFAF",
"L 	c #A6A6A6",
"M 	c #A2A2A2",
"N 	c #A5A5A5",
"O 	c #C8C7C8",
"P 	c #B4A4AD",
"Q 	c #9A8A93",
"R 	c #A8A8A8",
"S 	c #B2B2B2",
"T 	c #C7C7C7",
"U 	c #BCBCBC",
"V 	c #A58E9B",
"W 	c #B07B9A",
"X 	c #A67B94",
"Y 	c #B783A1",
"Z 	c #AD8B9F",
"` 	c #B9B9B9",
" .	c #A9A9A9",
"..	c #C9C9C9",
"+.	c #D8D8D8",
"@.	c #E9E9E9",
"#.	c #D2D1D2",
"$.	c #D3CFD2",
"%.	c #D4D1D3",
"&.	c #D7D5D6",
"*.	c #D9D8D9",
"=.	c #EAEAEA",
"-.	c #D1D1D1",
";.	c #CACACA",
">.	c #979797",
",.	c #9F9F9F",
"'.	c #A7A7A7",
").	c #ADADAD",
"!.	c #AAAAAA",
"~.	c #B0AFB0",
"{.	c #8B7A7A",
"].	c #A8A2A2",
"^.	c #C6C3C4",
"/.	c #CFCECE",
"(.	c #CECDCD",
"_.	c #B7B5B5",
":.	c #B4AFAF",
"<.	c #AAA3A3",
"[.	c #760305",
"}.	c #65090C",
"|.	c #450507",
"1.	c #3B0506",
"2.	c #3A0707",
"3.	c #390607",
"4.	c #380707",
"5.	c #43090A",
"6.	c #670105",
"7.	c #6F0306",
"8.	c #7E0509",
"9.	c #990A11",
"0.	c #9D0C13",
"a.	c #7D0E13",
"b.	c #550A0C",
"c.	c #440A0C",
"d.	c #4C0507",
"e.	c #560103",
"f.	c #7B0408",
"g.	c #9E0C13",
"h.	c #990B11",
"i.	c #9C0C13",
"j.	c #832023",
"k.	c #84060B",
"l.	c #9F0D14",
"m.	c #9A0D14",
"n.	c #811016",
"o.	c #6C0A0E",
"p.	c #690508",
"q.	c #6C0406",
"r.	c #86060B",
"s.	c #860F13",
"t.	c #85060B",
"u.	c #6E0D10",
"v.	c #6C0103",
"w.	c #830A0F",
"x.	c #670103",
"y.	c #950A10",
"z.	c #83060B",
"A.	c #760A0F",
"B.	c #6A0103",
"C.	c #940A0F",
"D.	c #9D0D14",
"E.	c #650B0E",
"F.	c #6D0103",
"G.	c #970A11",
"H.	c #850E14",
"I.	c #600608",
"J.	c #770306",
"K.	c #9C0B12",
"L.	c #82060A",
"M.	c #8E1117",
"N.	c #67090C",
"O.	c #690003",
"P.	c #8F080E",
"Q.	c #9A0B11",
"R.	c #9E0D14",
"S.	c #811015",
"T.	c #6E0C0F",
"U.	c #630103",
"V.	c #700104",
"W.	c #780508",
"X.	c #960A10",
"Y.	c #9C0D14",
"Z.	c #750E13",
"`.	c #4E0A0C",
" +	c #500709",
".+	c #640002",
"++	c #930910",
"@+	c #721417",
"#+	c #8E080E",
"$+	c #8A080D",
"%+	c #6C0B0F",
"&+	c #480507",
"*+	c #3F0102",
"=+	c #3F0203",
"-+	c #480608",
";+	c #600305",
">+	c #881419",
",+	c #6D0306",
"'+	c #590608",
")+	c #430405",
"!+	c #480001",
"~+	c #590001",
"{+	c #550001",
"]+	c #410102",
"^+	c #460809",
"/+	c #630507",
"(+	c #7D0408",
"_+	c #8E080D",
":+	c #62191A",
"<+	c #4B1314",
"[+	c #3E0506",
"}+	c #540001",
"|+	c #490001",
"1+	c #3D0102",
"2+	c #430809",
"3+	c #461516",
"4+	c #4B1D1E",
"5+	c #726B00",
"                      . . . . . . . . . .                       ",
"                    . + + + + + + + + + + .                     ",
"                  . + @ # $ % # & * = & - + .                   ",
"                . + # ; > , ' ) * ! ~ % { ] + .                 ",
"              . + ^ / ' ] ( _ : < [ } | 1 2 3 + .               ",
"            . + 4 4 5 6 7 8 9 0 a b * * * c d 7 + .             ",
"          . + 6 c 6 e f f 9 0 g h a i j k f j j l + .           ",
"        . + @ @ m @ m n 9 0 g o h h a p q r r m s q + .         ",
"        . + m t u 1 v w 0 g x y z h a A B 7 C m 7 - + .         ",
"        . + D E F G k H 9 0 0 g g o a I 3 ! J j K D + .         ",
"        . + L M ! N 5 O P 9 9 0 a a Q R S k f 7 ! T + .         ",
"        . + * G l s U 5 c V W X Y Z S ` ] & , m  ...+ .         ",
"          . + +.@.1 r n C #.$.%.&.*.} 1 # =.E D G + .           ",
"          . + 7 -.m & m n q q q q n +.+.v ;.c >.3 + .           ",
"            . + ,.= N = L  . .'.'.L = L  .).!.d + .             ",
"              . + ~.) n F 2 r r 2 r , ^ @ 3 5 + .               ",
"                . + + {.].^./.(.[ _.:.<.{.+ + .                 ",
"                . + [.}.|.1.2.3.4.5.6.6.7.7.+ .                 ",
"              . + 8.9.0.a.b.c.d.e.f.9.g.h.i.j.+ .               ",
"              . + k.0.l.l.m.n.o.p.q.r.0.i.i.s.+ .               ",
"              . + t.g.l.l.l.l.l.m.u.v.h.g.i.s.+ .               ",
"              . + k.0.l.l.l.l.l.l.w.x.y.g.i.s.+ .               ",
"              . + z.0.l.l.l.l.l.l.A.B.C.g.i.s.+ .               ",
"              . + z.0.l.l.l.l.l.D.E.F.G.g.i.s.+ .               ",
"              . + z.0.l.l.l.l.l.H.I.J.K.g.i.s.+ .               ",
"              . + L.0.l.l.l.l.M.N.O.P.g.g.i.s.+ .               ",
"              . + 8.Q.l.l.R.S.T.U.V.K.l.0.i.s.+ .               ",
"              . + W.X.l.Y.Z.`. +.+v.++l.0.i.s.+ .               ",
"              . + @+#+$+%+&+*+=+-+;+f.K.0.i.>++ .               ",
"              . + @+,+'+)+!+~+{+]+^+/+(+_+>+>++ .               ",
"                . + :+<+[+!+}+}+|+1+2+/+(+_++ .                 ",
"                  . + + + 3+4+5+5+4+3++ + + .                   "};
