/* XPM */
static const char * FrontIdle_06_xpm[] = {
"32 32 207 2",
"  	c None",
". 	c #3A004B",
"+ 	c #270032",
"@ 	c #DBDBDB",
"# 	c #EDEDED",
"$ 	c #F3F3F3",
"% 	c #F1F1F1",
"& 	c #DCDCDC",
"* 	c #B8B8B8",
"= 	c #A4A4A4",
"- 	c #CECECE",
"; 	c #EFEFEF",
"> 	c #EBEBEB",
", 	c #E5E5E5",
"' 	c #D9D9D9",
") 	c #C6C6C6",
"! 	c #A1A1A1",
"~ 	c #D5D5D5",
"{ 	c #EEEEEE",
"] 	c #CBCBCB",
"^ 	c #E7E7E7",
"/ 	c #E4E4E4",
"( 	c #C4C4C4",
"_ 	c #B0ABAE",
": 	c #9E8D97",
"< 	c #958D92",
"[ 	c #C4C3C3",
"} 	c #E0E0E0",
"| 	c #E6E6E6",
"1 	c #E8E8E8",
"2 	c #DEDEDE",
"3 	c #BDBDBD",
"4 	c #C0C0C0",
"5 	c #BABABA",
"6 	c #B4B4B4",
"7 	c #B6B6B6",
"8 	c #B5B4B5",
"9 	c #684A26",
"0 	c #A6773C",
"a 	c #B17F40",
"b 	c #A7909D",
"c 	c #B5B5B5",
"d 	c #B7B7B7",
"e 	c #B0B0B0",
"f 	c #ACACAC",
"g 	c #755329",
"h 	c #8E642F",
"i 	c #9E959A",
"j 	c #AEAEAE",
"k 	c #B1B1B1",
"l 	c #C3C3C3",
"m 	c #DADADA",
"n 	c #D7D7D7",
"o 	c #956931",
"p 	c #B3ABAF",
"q 	c #D6D6D6",
"r 	c #DFDFDF",
"s 	c #BBBBBB",
"t 	c #F4F4F4",
"u 	c #F2F2F2",
"v 	c #D2D2D2",
"w 	c #AC99A4",
"x 	c #917D89",
"y 	c #B3B3B3",
"z 	c #D4D4D4",
"A 	c #D3D3D3",
"B 	c #E1E1E1",
"C 	c #DDDDDD",
"D 	c #C2C2C2",
"E 	c #A7969F",
"F 	c #B6ACB2",
"G 	c #9C9C9C",
"H 	c #AFAFAF",
"I 	c #A6A6A6",
"J 	c #A2A2A2",
"K 	c #A5A5A5",
"L 	c #C8C7C8",
"M 	c #B4A4AD",
"N 	c #9A8A93",
"O 	c #A8A8A8",
"P 	c #B2B2B2",
"Q 	c #C7C7C7",
"R 	c #BCBCBC",
"S 	c #A58E9B",
"T 	c #B07B9A",
"U 	c #A67B94",
"V 	c #B783A1",
"W 	c #AD8B9F",
"X 	c #B9B9B9",
"Y 	c #A9A9A9",
"Z 	c #C9C9C9",
"` 	c #D8D8D8",
" .	c #E9E9E9",
"..	c #D2D1D2",
"+.	c #D3CFD2",
"@.	c #D4D1D3",
"#.	c #D7D5D6",
"$.	c #D9D8D9",
"%.	c #EAEAEA",
"&.	c #D1D1D1",
"*.	c #CACACA",
"=.	c #979797",
"-.	c #9F9F9F",
";.	c #A7A7A7",
">.	c #ADADAD",
",.	c #AAAAAA",
"'.	c #B0AFB0",
").	c #760305",
"!.	c #65090C",
"~.	c #450507",
"{.	c #3B0506",
"].	c #3A0707",
"^.	c #390607",
"/.	c #380707",
"(.	c #43090A",
"_.	c #670105",
":.	c #6F0306",
"<.	c #7E0509",
"[.	c #990A11",
"}.	c #9D0C13",
"|.	c #7D0E13",
"1.	c #550A0C",
"2.	c #440A0C",
"3.	c #4C0507",
"4.	c #560103",
"5.	c #7B0408",
"6.	c #9E0C13",
"7.	c #990B11",
"8.	c #9C0C13",
"9.	c #832023",
"0.	c #84060B",
"a.	c #9F0D14",
"b.	c #9A0D14",
"c.	c #811016",
"d.	c #6C0A0E",
"e.	c #690508",
"f.	c #6C0406",
"g.	c #86060B",
"h.	c #860F13",
"i.	c #85060B",
"j.	c #6E0D10",
"k.	c #6C0103",
"l.	c #830A0F",
"m.	c #670103",
"n.	c #950A10",
"o.	c #83060B",
"p.	c #760A0F",
"q.	c #6A0103",
"r.	c #940A0F",
"s.	c #9D0D14",
"t.	c #650B0E",
"u.	c #6D0103",
"v.	c #970A11",
"w.	c #850E14",
"x.	c #600608",
"y.	c #770306",
"z.	c #9C0B12",
"A.	c #82060A",
"B.	c #8E1117",
"C.	c #67090C",
"D.	c #690003",
"E.	c #8F080E",
"F.	c #9A0B11",
"G.	c #9E0D14",
"H.	c #811015",
"I.	c #6E0C0F",
"J.	c #630103",
"K.	c #700104",
"L.	c #780508",
"M.	c #960A10",
"N.	c #9C0D14",
"O.	c #750E13",
"P.	c #4E0A0C",
"Q.	c #500709",
"R.	c #640002",
"S.	c #930910",
"T.	c #721417",
"U.	c #8E080E",
"V.	c #8A080D",
"W.	c #6C0B0F",
"X.	c #480507",
"Y.	c #3F0102",
"Z.	c #3F0203",
"`.	c #480608",
" +	c #600305",
".+	c #881419",
"++	c #6D0306",
"@+	c #590608",
"#+	c #430405",
"$+	c #480001",
"%+	c #590001",
"&+	c #550001",
"*+	c #410102",
"=+	c #460809",
"-+	c #630507",
";+	c #7D0408",
">+	c #8E080D",
",+	c #62191A",
"'+	c #4B1314",
")+	c #3E0506",
"!+	c #540001",
"~+	c #490001",
"{+	c #3D0102",
"]+	c #430809",
"^+	c #461516",
"/+	c #4B1D1E",
"(+	c #726B00",
"                      . . . . . . . . . .                       ",
"                    . + + + + + + + + + + .                     ",
"                  . + @ # $ % # & * = & - + .                   ",
"                . + # ; > , ' ) * ! ~ % { ] + .                 ",
"              . + ^ / ' ] ( _ : < [ } | 1 2 3 + .               ",
"            . + 4 4 5 6 7 8 9 0 a b * * * c d 7 + .             ",
"          . + 6 c 6 e f f 9 g h 0 a i j k f j j l + .           ",
"        . + @ @ m @ m n 9 g h o o 0 a p q r r m s q + .         ",
"        . + m t u 1 v w 9 g h o o o a x y 7 z m 7 - + .         ",
"        . + A B C D k E 9 9 g h h 0 a F 3 ! G j H A + .         ",
"        . + I J ! K 5 L M 9 9 g 0 a N O P k f 7 ! Q + .         ",
"        . + * D l s R 5 c S T U V W P X ] & , m Y Z + .         ",
"          . + `  .1 r n z ..+.@.#.$.} 1 # %.B A D + .           ",
"          . + 7 &.m & m n q q q q n ` ` v *.c =.3 + .           ",
"            . + -.= K = I Y Y ;.;.I = I Y >.,.d + .             ",
"              . + '.) n C 2 r r 2 r , ^ @ 3 5 + .               ",
"                . + ).!.~.{.].^./.(._._.:.:.+ .                 ",
"              . + <.[.}.|.1.2.3.4.5.[.6.7.8.9.+ .               ",
"              . + 0.}.a.a.b.c.d.e.f.g.}.8.8.h.+ .               ",
"              . + i.6.a.a.a.a.a.b.j.k.7.6.8.h.+ .               ",
"              . + 0.}.a.a.a.a.a.a.l.m.n.6.8.h.+ .               ",
"              . + o.}.a.a.a.a.a.a.p.q.r.6.8.h.+ .               ",
"              . + o.}.a.a.a.a.a.s.t.u.v.6.8.h.+ .               ",
"              . + o.}.a.a.a.a.a.w.x.y.z.6.8.h.+ .               ",
"              . + A.}.a.a.a.a.B.C.D.E.6.6.8.h.+ .               ",
"              . + <.F.a.a.G.H.I.J.K.z.a.}.8.h.+ .               ",
"              . + L.M.a.N.O.P.Q.R.k.S.a.}.8.h.+ .               ",
"              . + T.U.V.W.X.Y.Z.`. +5.z.}.8..++ .               ",
"              . + T.++@+#+$+%+&+*+=+-+;+>+.+.++ .               ",
"                . + ,+'+)+$+!+!+~+{+]+-+;+>++ .                 ",
"                  . + + + ^+/+(+(+/+^++ + + .                   ",
"                    . . . + + + + + + . . .                     "};
