/* XPM */
static const char *FrontAttack_05[] = {
/* columns rows colors chars-per-pixel */
"32 32 129 2 ",
"   c None",
".  c #250D1B",
"X  c #3A1213",
"o  c #361B29",
"O  c #270032",
"+  c #461516",
"@  c #4B1D1E",
"#  c #6F0306",
"$  c #600608",
"%  c #65090C",
"&  c #532B2B",
"*  c #726B00",
"=  c #3A004B",
"-  c #9F0D14",
";  c #811016",
":  c #8E1117",
">  c #AA0000",
",  c #BD0000",
"<  c #DB0000",
"1  c #F10000",
"2  c #FF2929",
"3  c #8B7A7A",
"4  c #B07B7B",
"5  c #ACA100",
"6  c #D0C200",
"7  c #917D89",
"8  c #A67B94",
"9  c #958D92",
"0  c #9A8A93",
"q  c #9E8D97",
"w  c #979797",
"e  c #9E959A",
"r  c gray61",
"t  c #9F9F9F",
"y  c #A58E9B",
"u  c #AD8B9F",
"i  c #A7909D",
"p  c #A7969F",
"a  c #AC99A4",
"s  c gray63",
"d  c #A2A2A2",
"f  c #A4A4A4",
"g  c #A5A5A5",
"h  c gray65",
"j  c #A7A7A7",
"k  c #A8A2A2",
"l  c #AAA3A3",
"z  c gray66",
"x  c #A9A9A9",
"c  c #AAAAAA",
"v  c #ACACAC",
"b  c gray68",
"n  c #AEAEAE",
"m  c #AFAFAF",
"M  c #B4A4AD",
"N  c #B8A2AE",
"B  c #B0ABAE",
"V  c #B3ABAF",
"C  c #B4AFAF",
"Z  c #B0AFB0",
"A  c #B6ACB2",
"S  c gray69",
"D  c #B1B1B1",
"F  c #B2B2B2",
"G  c gray70",
"H  c #B4B4B4",
"J  c #B5B4B5",
"K  c gray71",
"L  c #B7B5B5",
"P  c #B6B6B6",
"I  c #B7B7B7",
"U  c gray72",
"Y  c #B9B9B9",
"T  c gray73",
"R  c #BBBBBB",
"E  c #BCBCBC",
"W  c gray74",
"Q  c #C0C0C0",
"!  c gray76",
"~  c #C3C3C3",
"^  c #C4C3C3",
"/  c #C6C3C4",
"(  c gray77",
")  c #C6C6C6",
"_  c gray78",
"`  c #C8C7C8",
"'  c gray79",
"]  c #CACACA",
"[  c #CBCBCB",
"{  c #CECDCD",
"}  c #CECECE",
"|  c #CFCECE",
" . c #D3CFD2",
".. c gray82",
"X. c #D2D1D2",
"o. c #D2D2D2",
"O. c LightGray",
"+. c #D4D1D3",
"@. c gray83",
"#. c #D5D5D5",
"$. c #D7D5D6",
"%. c gray84",
"&. c #D7D7D7",
"*. c #D8D8D8",
"=. c #D9D8D9",
"-. c gray85",
";. c #DADADA",
":. c gray86",
">. c gainsboro",
",. c #DDDDDD",
"<. c gray87",
"1. c #DFDFDF",
"2. c gray88",
"3. c #E1E1E1",
"4. c #E4E4E4",
"5. c gray90",
"6. c #E6E6E6",
"7. c #E7E7E7",
"8. c gray91",
"9. c #E9E9E9",
"0. c #EAEAEA",
"q. c gray92",
"w. c gray93",
"e. c #EEEEEE",
"r. c #EFEFEF",
"t. c #F1F1F1",
"y. c gray95",
"u. c #F3F3F3",
"i. c #F4F4F4",
/* pixels */
"                      = = = = = = = = = =                       ",
"                    = O O O O O O O O O O =                     ",
"                  = O :.w.u.t.w.>.U f >.} O =                   ",
"                = O w.r.q.5.-.) U s #.t.e.[ O =                 ",
"              = O 7.4.-.[ ( B q 9 ^ 2.6.8.<.W O =               ",
"            = O Q Q T H P J > , < i U U U K I P O =             ",
"          = O H K H S v v > , < 1 < e n D v n n ~ O =           ",
"        = O :.:.;.:.;.&.N > , o 2 1 < V %.1.1.;.R %.O =         ",
"        = O ;.i.y.8.o.a > , < . < 1 < 7 G P @.;.P } O =         ",
"        = O O.3.,.! D p > , , o , < < A W s r n m O.O =         ",
"        = O h d s g T ` M > > > > , 0 z F D v P s _ O =         ",
"        = O U ! ~ R E T K y 4 8 4 u F Y [ >.5.;.x ' O =         ",
"          = O *.9.8.1.&.@.X. .+.$.=.2.8.w.0.3.O.! O =           ",
"          = O P ..;.>.;.&.%.%.%.%.&.*.*.o.] K w W O =           ",
"            = O t f g f h x x j j h f h x b c I O =             ",
"              = O Z ) &.,.<.1.1.<.1.5.7.:.W T O =               ",
"              = O O O 3 k / | { ^ L C l 3 O O O =               ",
"            = O $ $ $ % X * + @ @ + * X # $ $ $ O =             ",
"          = O $ # # ; $ + + * & & * + + $ ; # # $ O =           ",
"        = O $ # ; ; ; $ + + @ 5 5 @ + + $ ; ; ; # $ O =         ",
"      = O $ # ; : : ; # $ @ 6 & & 6 @ $ # ; : : ; # $ O =       ",
"      = O $ # ; : - : ; $ * @ & & @ * $ ; : - : ; # $ O =       ",
"      = O $ # ; : - : ; $ @ * & & * @ $ ; : - : ; # $ O =       ",
"      = O $ # ; : - - ; # $ & 5 5 & $ # ; - - : ; # $ O =       ",
"      = O $ # ; : - - ; # $ 6 & & 6 $ # ; - - : ; # $ O =       ",
"      = O $ # ; : - : # $ * @ & & @ * $ # : - : ; # $ O =       ",
"      = O $ # ; : : ; $ + @ * & & * @ + $ ; : : ; # $ O =       ",
"      = O $ # ; : : # $ + @ & 5 5 & @ + $ # : : ; # $ O =       ",
"      = O $ # ; ; ; $ X + @ 6 & & 6 @ + X $ ; ; ; # $ O =       ",
"        = O $ # # ; $ X 5 * @ & & @ * 5 X $ ; # # $ O =         ",
"          = O $ $ $ $ + X + * & & * + X + $ $ $ $ O =           ",
"            = O O O O O O X @ * * @ X O O O O O O =             "
};
