/* XPM */
static const char * FrontIdle_02_xpm[] = {
"32 32 229 2",
"  	c None",
". 	c #3A004B",
"+ 	c #270032",
"@ 	c #DBDBDB",
"# 	c #EDEDED",
"$ 	c #F3F3F3",
"% 	c #F1F1F1",
"& 	c #DCDCDC",
"* 	c #B8B8B8",
"= 	c #A4A4A4",
"- 	c #CECECE",
"; 	c #EFEFEF",
"> 	c #EBEBEB",
", 	c #E5E5E5",
"' 	c #D9D9D9",
") 	c #C6C6C6",
"! 	c #A1A1A1",
"~ 	c #D5D5D5",
"{ 	c #EEEEEE",
"] 	c #CBCBCB",
"^ 	c #E7E7E7",
"/ 	c #E4E4E4",
"( 	c #C4C4C4",
"_ 	c #B0ABAE",
": 	c #9E8D97",
"< 	c #958D92",
"[ 	c #C4C3C3",
"} 	c #E0E0E0",
"| 	c #E6E6E6",
"1 	c #E8E8E8",
"2 	c #DEDEDE",
"3 	c #BDBDBD",
"4 	c #C0C0C0",
"5 	c #BABABA",
"6 	c #B4B4B4",
"7 	c #B6B6B6",
"8 	c #B5B4B5",
"9 	c #755329",
"0 	c #956931",
"a 	c #A6773C",
"b 	c #A7909D",
"c 	c #B5B5B5",
"d 	c #B7B7B7",
"e 	c #B0B0B0",
"f 	c #ACACAC",
"g 	c #9C3971",
"h 	c #9E959A",
"i 	c #AEAEAE",
"j 	c #B1B1B1",
"k 	c #C3C3C3",
"l 	c #DADADA",
"m 	c #D7D7D7",
"n 	c #B8A2AE",
"o 	c #A75585",
"p 	c #A53877",
"q 	c #361B29",
"r 	c #E8AECF",
"s 	c #CF6BA5",
"t 	c #A05E84",
"u 	c #B3ABAF",
"v 	c #D6D6D6",
"w 	c #DFDFDF",
"x 	c #BBBBBB",
"y 	c #F4F4F4",
"z 	c #F2F2F2",
"A 	c #D2D2D2",
"B 	c #AC99A4",
"C 	c #A44E80",
"D 	c #BB3281",
"E 	c #8C2561",
"F 	c #250D1B",
"G 	c #DC85B7",
"H 	c #DE83B7",
"I 	c #B63E83",
"J 	c #917D89",
"K 	c #B3B3B3",
"L 	c #D4D4D4",
"M 	c #D3D3D3",
"N 	c #E1E1E1",
"O 	c #DDDDDD",
"P 	c #C2C2C2",
"Q 	c #A7969F",
"R 	c #982567",
"S 	c #CA4893",
"T 	c #B6ACB2",
"U 	c #9C9C9C",
"V 	c #AFAFAF",
"W 	c #A6A6A6",
"X 	c #A2A2A2",
"Y 	c #A5A5A5",
"Z 	c #C8C7C8",
"` 	c #B4A4AD",
" .	c #9A8A93",
"..	c #A8A8A8",
"+.	c #B2B2B2",
"@.	c #C7C7C7",
"#.	c #BCBCBC",
"$.	c #A58E9B",
"%.	c #B07B9A",
"&.	c #A67B94",
"*.	c #B783A1",
"=.	c #AD8B9F",
"-.	c #B9B9B9",
";.	c #A9A9A9",
">.	c #C9C9C9",
",.	c #D8D8D8",
"'.	c #E9E9E9",
").	c #D2D1D2",
"!.	c #D3CFD2",
"~.	c #D4D1D3",
"{.	c #D7D5D6",
"].	c #D9D8D9",
"^.	c #EAEAEA",
"/.	c #D1D1D1",
"(.	c #CACACA",
"_.	c #979797",
":.	c #9F9F9F",
"<.	c #A7A7A7",
"[.	c #ADADAD",
"}.	c #AAAAAA",
"|.	c #B0AFB0",
"1.	c #8B7A7A",
"2.	c #A8A2A2",
"3.	c #C6C3C4",
"4.	c #CFCECE",
"5.	c #CECDCD",
"6.	c #B7B5B5",
"7.	c #B4AFAF",
"8.	c #AAA3A3",
"9.	c #760305",
"0.	c #65090C",
"a.	c #450507",
"b.	c #3B0506",
"c.	c #3A0707",
"d.	c #390607",
"e.	c #380707",
"f.	c #43090A",
"g.	c #670105",
"h.	c #6F0306",
"i.	c #7E0509",
"j.	c #990A11",
"k.	c #9D0C13",
"l.	c #7D0E13",
"m.	c #550A0C",
"n.	c #440A0C",
"o.	c #4C0507",
"p.	c #560103",
"q.	c #7B0408",
"r.	c #9E0C13",
"s.	c #990B11",
"t.	c #9C0C13",
"u.	c #832023",
"v.	c #84060B",
"w.	c #9F0D14",
"x.	c #9A0D14",
"y.	c #811016",
"z.	c #6C0A0E",
"A.	c #690508",
"B.	c #6C0406",
"C.	c #86060B",
"D.	c #860F13",
"E.	c #85060B",
"F.	c #6E0D10",
"G.	c #6C0103",
"H.	c #830A0F",
"I.	c #670103",
"J.	c #950A10",
"K.	c #83060B",
"L.	c #760A0F",
"M.	c #6A0103",
"N.	c #940A0F",
"O.	c #9D0D14",
"P.	c #650B0E",
"Q.	c #6D0103",
"R.	c #970A11",
"S.	c #850E14",
"T.	c #600608",
"U.	c #770306",
"V.	c #9C0B12",
"W.	c #82060A",
"X.	c #8E1117",
"Y.	c #67090C",
"Z.	c #690003",
"`.	c #8F080E",
" +	c #9A0B11",
".+	c #9E0D14",
"++	c #811015",
"@+	c #6E0C0F",
"#+	c #630103",
"$+	c #700104",
"%+	c #780508",
"&+	c #960A10",
"*+	c #9C0D14",
"=+	c #750E13",
"-+	c #4E0A0C",
";+	c #500709",
">+	c #640002",
",+	c #930910",
"'+	c #721417",
")+	c #8E080E",
"!+	c #8A080D",
"~+	c #6C0B0F",
"{+	c #480507",
"]+	c #3F0102",
"^+	c #3F0203",
"/+	c #480608",
"(+	c #600305",
"_+	c #881419",
":+	c #6D0306",
"<+	c #590608",
"[+	c #430405",
"}+	c #480001",
"|+	c #590001",
"1+	c #550001",
"2+	c #410102",
"3+	c #460809",
"4+	c #630507",
"5+	c #7D0408",
"6+	c #8E080D",
"7+	c #62191A",
"8+	c #4B1314",
"9+	c #3E0506",
"0+	c #540001",
"a+	c #490001",
"b+	c #3D0102",
"c+	c #430809",
"d+	c #461516",
"e+	c #4B1D1E",
"f+	c #726B00",
"                      . . . . . . . . . .                       ",
"                    . + + + + + + + + + + .                     ",
"                  . + @ # $ % # & * = & - + .                   ",
"                . + # ; > , ' ) * ! ~ % { ] + .                 ",
"              . + ^ / ' ] ( _ : < [ } | 1 2 3 + .               ",
"            . + 4 4 5 6 7 8 9 0 a b * * * c d 7 + .             ",
"          . + 6 c 6 e f f 9 0 g 0 a h i j f i i k + .           ",
"        . + @ @ l @ l m n o p q r s t u v w w l x v + .         ",
"        . + l y z 1 A B C D E F G H I J K 7 L l 7 - + .         ",
"        . + M N O P j Q 9 0 R q S 0 a T 3 ! U i V M + .         ",
"        . + W X ! Y 5 Z ` 9 0 0 a a  ...+.j f 7 ! @.+ .         ",
"        . + * P k x #.5 c $.%.&.*.=.+.-.] & , l ;.>.+ .         ",
"          . + ,.'.1 w m L ).!.~.{.].} 1 # ^.N M P + .           ",
"          . + 7 /.l & l m v v v v m ,.,.A (.c _.3 + .           ",
"            . + :.= Y = W ;.;.<.<.W = W ;.[.}.d + .             ",
"              . + |.) m O 2 w w 2 w , ^ @ 3 5 + .               ",
"                . + + 1.2.3.4.5.[ 6.7.8.1.+ + .                 ",
"                . + 9.0.a.b.c.d.e.f.g.g.h.h.+ .                 ",
"              . + i.j.k.l.m.n.o.p.q.j.r.s.t.u.+ .               ",
"              . + v.k.w.w.x.y.z.A.B.C.k.t.t.D.+ .               ",
"              . + E.r.w.w.w.w.w.x.F.G.s.r.t.D.+ .               ",
"              . + v.k.w.w.w.w.w.w.H.I.J.r.t.D.+ .               ",
"              . + K.k.w.w.w.w.w.w.L.M.N.r.t.D.+ .               ",
"              . + K.k.w.w.w.w.w.O.P.Q.R.r.t.D.+ .               ",
"              . + K.k.w.w.w.w.w.S.T.U.V.r.t.D.+ .               ",
"              . + W.k.w.w.w.w.X.Y.Z.`.r.r.t.D.+ .               ",
"              . + i. +w.w..+++@+#+$+V.w.k.t.D.+ .               ",
"              . + %+&+w.*+=+-+;+>+G.,+w.k.t.D.+ .               ",
"              . + '+)+!+~+{+]+^+/+(+q.V.k.t._++ .               ",
"              . + '+:+<+[+}+|+1+2+3+4+5+6+_+_++ .               ",
"                . + 7+8+9+}+0+0+a+b+c+4+5+6++ .                 ",
"                  . + + + d+e+f+f+e+d++ + + .                   "};
