/* XPM */
static const char * FrontIdle_01_xpm[] = {
"32 32 237 2",
"  	c None",
". 	c #3A004B",
"+ 	c #270032",
"@ 	c #DBDBDB",
"# 	c #EDEDED",
"$ 	c #F3F3F3",
"% 	c #F1F1F1",
"& 	c #DCDCDC",
"* 	c #B8B8B8",
"= 	c #A4A4A4",
"- 	c #CECECE",
"; 	c #EFEFEF",
"> 	c #EBEBEB",
", 	c #E5E5E5",
"' 	c #D9D9D9",
") 	c #C6C6C6",
"! 	c #A1A1A1",
"~ 	c #D5D5D5",
"{ 	c #EEEEEE",
"] 	c #CBCBCB",
"^ 	c #E7E7E7",
"/ 	c #E4E4E4",
"( 	c #C4C4C4",
"_ 	c #B0ABAE",
": 	c #9E8D97",
"< 	c #958D92",
"[ 	c #C4C3C3",
"} 	c #E0E0E0",
"| 	c #E6E6E6",
"1 	c #E8E8E8",
"2 	c #DEDEDE",
"3 	c #BDBDBD",
"4 	c #C0C0C0",
"5 	c #BABABA",
"6 	c #B4B4B4",
"7 	c #B6B6B6",
"8 	c #B5B4B5",
"9 	c #755329",
"0 	c #956931",
"a 	c #B17F40",
"b 	c #A7909D",
"c 	c #B5B5B5",
"d 	c #B7B7B7",
"e 	c #B0B0B0",
"f 	c #ACACAC",
"g 	c #A997A1",
"h 	c #AE4A83",
"i 	c #9C3971",
"j 	c #D771AB",
"k 	c #A45181",
"l 	c #9E959A",
"m 	c #AEAEAE",
"n 	c #B1B1B1",
"o 	c #C3C3C3",
"p 	c #DADADA",
"q 	c #D7D7D7",
"r 	c #B8A2AE",
"s 	c #A75585",
"t 	c #A53877",
"u 	c #361B29",
"v 	c #E8AECF",
"w 	c #CF6BA5",
"x 	c #A05E84",
"y 	c #B3ABAF",
"z 	c #D6D6D6",
"A 	c #DFDFDF",
"B 	c #BBBBBB",
"C 	c #F4F4F4",
"D 	c #F2F2F2",
"E 	c #D2D2D2",
"F 	c #AC99A4",
"G 	c #A44E80",
"H 	c #BB3281",
"I 	c #8C2561",
"J 	c #250D1B",
"K 	c #DC85B7",
"L 	c #DE83B7",
"M 	c #B63E83",
"N 	c #917D89",
"O 	c #B3B3B3",
"P 	c #D4D4D4",
"Q 	c #D3D3D3",
"R 	c #E1E1E1",
"S 	c #DDDDDD",
"T 	c #C2C2C2",
"U 	c #A7969F",
"V 	c #A35582",
"W 	c #BA3380",
"X 	c #982567",
"Y 	c #CA4893",
"Z 	c #CB5599",
"` 	c #AB608B",
" .	c #B6ACB2",
"..	c #9C9C9C",
"+.	c #AFAFAF",
"@.	c #A6A6A6",
"#.	c #A2A2A2",
"$.	c #A5A5A5",
"%.	c #C8C7C8",
"&.	c #B4A4AD",
"*.	c #9A8A93",
"=.	c #A8A8A8",
"-.	c #B2B2B2",
";.	c #C7C7C7",
">.	c #BCBCBC",
",.	c #A58E9B",
"'.	c #B07B9A",
").	c #A67B94",
"!.	c #B783A1",
"~.	c #AD8B9F",
"{.	c #B9B9B9",
"].	c #A9A9A9",
"^.	c #C9C9C9",
"/.	c #D8D8D8",
"(.	c #E9E9E9",
"_.	c #D2D1D2",
":.	c #D3CFD2",
"<.	c #D4D1D3",
"[.	c #D7D5D6",
"}.	c #D9D8D9",
"|.	c #EAEAEA",
"1.	c #D1D1D1",
"2.	c #CACACA",
"3.	c #979797",
"4.	c #9F9F9F",
"5.	c #A7A7A7",
"6.	c #ADADAD",
"7.	c #AAAAAA",
"8.	c #B0AFB0",
"9.	c #8B7A7A",
"0.	c #A8A2A2",
"a.	c #C6C3C4",
"b.	c #CFCECE",
"c.	c #CECDCD",
"d.	c #B7B5B5",
"e.	c #B4AFAF",
"f.	c #AAA3A3",
"g.	c #760305",
"h.	c #65090C",
"i.	c #450507",
"j.	c #3B0506",
"k.	c #3A0707",
"l.	c #390607",
"m.	c #380707",
"n.	c #43090A",
"o.	c #670105",
"p.	c #6F0306",
"q.	c #7E0509",
"r.	c #990A11",
"s.	c #9D0C13",
"t.	c #7D0E13",
"u.	c #550A0C",
"v.	c #440A0C",
"w.	c #4C0507",
"x.	c #560103",
"y.	c #7B0408",
"z.	c #9E0C13",
"A.	c #990B11",
"B.	c #9C0C13",
"C.	c #832023",
"D.	c #84060B",
"E.	c #9F0D14",
"F.	c #9A0D14",
"G.	c #811016",
"H.	c #6C0A0E",
"I.	c #690508",
"J.	c #6C0406",
"K.	c #86060B",
"L.	c #860F13",
"M.	c #85060B",
"N.	c #6E0D10",
"O.	c #6C0103",
"P.	c #830A0F",
"Q.	c #670103",
"R.	c #950A10",
"S.	c #83060B",
"T.	c #760A0F",
"U.	c #6A0103",
"V.	c #940A0F",
"W.	c #9D0D14",
"X.	c #650B0E",
"Y.	c #6D0103",
"Z.	c #970A11",
"`.	c #850E14",
" +	c #600608",
".+	c #770306",
"++	c #9C0B12",
"@+	c #82060A",
"#+	c #8E1117",
"$+	c #67090C",
"%+	c #690003",
"&+	c #8F080E",
"*+	c #9A0B11",
"=+	c #9E0D14",
"-+	c #811015",
";+	c #6E0C0F",
">+	c #630103",
",+	c #700104",
"'+	c #780508",
")+	c #960A10",
"!+	c #9C0D14",
"~+	c #750E13",
"{+	c #4E0A0C",
"]+	c #500709",
"^+	c #640002",
"/+	c #930910",
"(+	c #721417",
"_+	c #8E080E",
":+	c #8A080D",
"<+	c #6C0B0F",
"[+	c #480507",
"}+	c #3F0102",
"|+	c #3F0203",
"1+	c #480608",
"2+	c #600305",
"3+	c #881419",
"4+	c #6D0306",
"5+	c #590608",
"6+	c #430405",
"7+	c #480001",
"8+	c #590001",
"9+	c #550001",
"0+	c #410102",
"a+	c #460809",
"b+	c #630507",
"c+	c #7D0408",
"d+	c #8E080D",
"e+	c #62191A",
"f+	c #4B1314",
"g+	c #3E0506",
"h+	c #540001",
"i+	c #490001",
"j+	c #3D0102",
"k+	c #430809",
"l+	c #461516",
"m+	c #4B1D1E",
"n+	c #726B00",
"                      . . . . . . . . . .                       ",
"                    . + + + + + + + + + + .                     ",
"                  . + @ # $ % # & * = & - + .                   ",
"                . + # ; > , ' ) * ! ~ % { ] + .                 ",
"              . + ^ / ' ] ( _ : < [ } | 1 2 3 + .               ",
"            . + 4 4 5 6 7 8 9 0 a b * * * c d 7 + .             ",
"          . + 6 c 6 e f f g h i j k l m n f m m o + .           ",
"        . + @ @ p @ p q r s t u v w x y z A A p B z + .         ",
"        . + p C D 1 E F G H I J K L M N O 7 P p 7 - + .         ",
"        . + Q R S T n U V W X u Y Z `  .3 ! ..m +.Q + .         ",
"        . + @.#.! $.5 %.&.9 9 0 a a *.=.-.n f 7 ! ;.+ .         ",
"        . + * T o B >.5 c ,.'.).!.~.-.{.] & , p ].^.+ .         ",
"          . + /.(.1 A q P _.:.<.[.}.} 1 # |.R Q T + .           ",
"          . + 7 1.p & p q z z z z q /./.E 2.c 3.3 + .           ",
"            . + 4.= $.= @.].].5.5.@.= @.].6.7.d + .             ",
"              . + 8.) q S 2 A A 2 A , ^ @ 3 5 + .               ",
"                . + + 9.0.a.b.c.[ d.e.f.9.+ + .                 ",
"                . + g.h.i.j.k.l.m.n.o.o.p.p.+ .                 ",
"              . + q.r.s.t.u.v.w.x.y.r.z.A.B.C.+ .               ",
"              . + D.s.E.E.F.G.H.I.J.K.s.B.B.L.+ .               ",
"              . + M.z.E.E.E.E.E.F.N.O.A.z.B.L.+ .               ",
"              . + D.s.E.E.E.E.E.E.P.Q.R.z.B.L.+ .               ",
"              . + S.s.E.E.E.E.E.E.T.U.V.z.B.L.+ .               ",
"              . + S.s.E.E.E.E.E.W.X.Y.Z.z.B.L.+ .               ",
"              . + S.s.E.E.E.E.E.`. +.+++z.B.L.+ .               ",
"              . + @+s.E.E.E.E.#+$+%+&+z.z.B.L.+ .               ",
"              . + q.*+E.E.=+-+;+>+,+++E.s.B.L.+ .               ",
"              . + '+)+E.!+~+{+]+^+O./+E.s.B.L.+ .               ",
"              . + (+_+:+<+[+}+|+1+2+y.++s.B.3++ .               ",
"              . + (+4+5+6+7+8+9+0+a+b+c+d+3+3++ .               ",
"                . + e+f+g+7+h+h+i+j+k+b+c+d++ .                 ",
"                  . + + + l+m+n+n+m+l++ + + .                   "};
