/* XPM */
static const char *numbers_05[] = {
/* columns rows colors chars-per-pixel */
"32 32 4 1 ",
"  c None",
". c #222222",
"X c #989696",
"o c #C1C0C0",
/* pixels */
"                  ooooX         ",
"                ooXXXXX.        ",
"             oooXXXXXXX.        ",
"           ooXXXXXXXXXX.        ",
"          oXXXXXXXXXX..         ",
"         oXXXXXXXXX..           ",
"        oXXXXXXX...             ",
"       oXXXXXX..                ",
"      oXXXXXX.                  ",
"      oXXXXX.                   ",
"     oXXXXX.                    ",
"    oXXXXX.                     ",
"    oXXXXX.                     ",
"   oXXXXX.                      ",
"  oXXXXX.                       ",
"  oXXXXX.                       ",
"  oXXXX.    oooo                ",
" oXXXX.     oXXXoX              ",
" oXXXX.     oXXXXXXX            ",
" oXXXX.     XXXXXXXX.           ",
" oXXX.       .XXXXXXX           ",
" oXXXX.        .XXXXX.          ",
" oXXXX.         XXXXX.          ",
" oXXXXX.         XXXX.          ",
"  XXXXX.         XXXX.          ",
"  XXXXXX         XXXX.          ",
"   XXXXXXo      oXXXX.          ",
"   XXXXXXXooooooXXXXX.          ",
"    XXXXXXXXXXXXXXXXX.          ",
"     XXXXXXXXXXXXXXX.           ",
"      .XXXXXXXXXXXX.            ",
"       ............             "
};
