/* XPM */
static const char *numbers_08[] = {
/* columns rows colors chars-per-pixel */
"32 32 4 1 ",
"  c None",
". c #222222",
"X c #989696",
"o c #C1C0C0",
/* pixels */
"        oooooooooo              ",
"       oXXXXXXXXXXXX            ",
"      oXXXXXXXXXXXXXX           ",
"     oXXXXXXXXXXXXXXXXX         ",
"    oXXXXXXXXXXXXXXXXXXX        ",
"    oXXXXX.......XXXXXXXX       ",
"   oXXXXX.        XoXXXXX.      ",
"   oXXXX.           oXXXX.      ",
"   oXXXX.            oXXX.      ",
"   oXXX.             oXXXX.     ",
"   oXXX.            oXXXXX.     ",
"   oXXX.           oXXXXXX.     ",
"   oXXXX.         oXXXXXXX.     ",
"   oXXXX.        oXXXXXXXX.     ",
"   oXXXXX.    oooXXXXXXXX.      ",
"    oXXXXXXoooXXXXXXXXXXX.      ",
"    oXXXXXXXXXXXXXXXXXXXX.      ",
"     oXXXXXXXXXXXXXXXXXXX.      ",
"      XXXXXXXXXXX..XXXXX.       ",
"       ..........  XXXXX.       ",
"                  oXXXXX.       ",
"                 oXXXXX.        ",
"                oXXXXXX.        ",
"               oXXXXXX.         ",
"             ooXXXXXX.          ",
"          oooXXXXXXX.           ",
"   oooooooXXXXXXXXX.            ",
"   oXXXXXXXXXXXXXX.             ",
"   oXXXXXXXXXXXX..              ",
"   XXXXXXXXXX...                ",
"    .........                   ",
"                                "
};
