/* XPM */
static const char *numbers_01[] = {
/* columns rows colors chars-per-pixel */
"32 32 4 1 ",
"  c None",
". c #222222",
"X c #989696",
"o c #C1C0C0",
/* pixels */
"                                ",
"                                ",
"                  oooooX        ",
"              ooooXXXXXX        ",
"            ooXXXXXXXXXXX       ",
"          ooXXXXXXXXXXXXX.      ",
"         oXXXXXXXXXXXXXXX.      ",
"        oXXXXXXXX....XXXX.      ",
"       oXXXXXXX..    oXXX.      ",
"      oXXXXXX..      oXXX.      ",
"      oXXXXX.       oXXXX.      ",
"     oXXXXX.        oXXXX.      ",
"     oXXXX.         oXXXX.      ",
"     oXXXX.         oXXX.       ",
"     XXXXX.        oXXXX.       ",
"      ....         oXXXX.       ",
"                  oXXXXX.       ",
"                  oXXXX.        ",
"                 oXXXXX.        ",
"                oXXXXX.         ",
"               oXXXXXX.XoooooX  ",
"              oXXXXXXXXXXXXXXX. ",
"             oXXXXXXXXXXXXXXXX. ",
"            oXXXXXXXXXXXXXXXXX. ",
"            oXXXXXXXXXXXXX....  ",
"          ooXXXXXXXXXXX...      ",
"         oXXXXXXXXX....         ",
"       ooXXXXXXXXX.             ",
"       oXXXXXXX...              ",
"       oXXXXXX.                 ",
"       XXXXXX.                  ",
"        .....                   "
};
