/* XPM */
static const char *numbers_00[] = {
/* columns rows colors chars-per-pixel */
"32 32 4 1 ",
"  c None",
". c #222222",
"X c #989696",
"o c #C1C0C0",
/* pixels */
"                                ",
"                  ooXX          ",
"                ooXXXX.         ",
"                oXXXXX.         ",
"              ooXXXXXX.         ",
"             oXXXXXXXX.         ",
"           ooXXXXXXXXX.         ",
"         ooXXXXXXXXXX.          ",
"        oXXXXXXXXXXXX.          ",
"       oXXXXXXXXXXXXX.          ",
"      oXXXXXXX..XXXX.           ",
"      oXXXXX.. oXXXX.           ",
"      oXXXX.   oXXXX.           ",
"      XXXXX.   oXXXX.           ",
"       ....    oXXX.            ",
"               oXXX.            ",
"              oXXXX.            ",
"              oXXXX.      oooX  ",
"              oXXXX.      oXXX. ",
"              oXXXX.     oXXXX. ",
"              oXXXX.   ooXXXXX. ",
"              oXXXX.  oXXXXXXX. ",
"               oXXX. oXXXXXXX.  ",
"               oXXX.oXXXXXXX.   ",
"               oXXXoXXXXXX..    ",
"               oXXXXXXXXX.      ",
"             ooXXXXXXXXX.       ",
"          oooXXXXXXXXXX.        ",
"       oooXXXXXXXXXXX..         ",
"       oXXXXXXXXXXX..           ",
"       XXXXXXXXX...             ",
"        ........                "
};
