/* XPM */
static const char *numbers_04[] = {
/* columns rows colors chars-per-pixel */
"32 32 4 1 ",
"  c None",
". c #222222",
"X c #989696",
"o c #C1C0C0",
/* pixels */
"                                ",
"                     ooXX       ",
"      oooooooooooooooXXXX.      ",
"      oXXXXXXXXXXXXXXXXXX.      ",
"      oXXXXXXXXXXXXXXXXXX.      ",
"     oXXXXXXXXXXXXXXXXXX.       ",
"     oXXXX..............        ",
"     oXXXX.                     ",
"     oXXX.                      ",
"     oXXXX.                     ",
"     oXXXX.                     ",
"     oXXXXX.                    ",
"      oXXXX.                    ",
"      oXXXXX.                   ",
"       XXXXXXXXoooooooo         ",
"       XXXXXXXXXXXXXXXXo        ",
"        XXXXXXXXXXXXXXXXX       ",
"         XXXXXXXXXXXXXXXXX      ",
"          ..........XXXXXX.     ",
"                     XXXXX.     ",
"                     XXXXX.     ",
"                     XXXXX.     ",
"                    oXXXXX.     ",
"                    oXXXX.      ",
"                    oXXXX.      ",
" ooooooo          ooXXXX.       ",
" oXXXXXXooooooooooXXXXXX.       ",
" oXXXXXXXXXXXXXXXXXXXXXX.       ",
" XXXXXXXXXXXXXXXXXXXXXX.        ",
"  ...XXXXXXXXXXXXXXXX..         ",
"      ...............           ",
"                                "
};
