/* XPM */
static const char *numbers_09[] = {
/* columns rows colors chars-per-pixel */
"32 32 4 1 ",
"  c None",
". c #222222",
"X c #989696",
"o c #C1C0C0",
/* pixels */
"                                ",
"               ooooooXXXXX.     ",
"             ooXXXXXXXXXXXX.    ",
"            oXXXXXXXXXXXXXXX.   ",
"          ooXXXXXXXXXXXXXXXXX.  ",
"         oXXXXXXXX...XXoXXXXX.  ",
"         oXXXXXX..      oXXXX.  ",
"        oXXXXXX.         oXXXX. ",
"        oXXXX..          oXXXX. ",
"       oXXXXX.           oXXXX. ",
"       oXXXX.             oXXX. ",
"       oXXXX.             oXXX. ",
"       oXXX.              oXXX. ",
"       oXXX.             oXXXX. ",
"       oXXX.             oXXXX. ",
"       oXXX.             oXXXX. ",
"       oXXX.             oXXX.  ",
"       oXXX.            oXXXX.  ",
"       oXXXX.           oXXXX.  ",
"       oXXXX.          oXXXXX.  ",
"       oXXXX.          oXXXX.   ",
"        oXXXX.        oXXXXX.   ",
"        oXXXXX.       oXXXX.    ",
"        oXXXXX..     XXXXXX.    ",
"         oXXXXXX.....XXXXX.     ",
"         oXXXXXXXXXXXXXXXX.     ",
"          oXXXXXXXXXXXXXX.      ",
"           ooXXXXXXXXXXXX.      ",
"             ooooXXXXXXX.       ",
"                 oXXX...        ",
"                                ",
"                                "
};
