/* XPM */
static const char *numbers_02[] = {
/* columns rows colors chars-per-pixel */
"32 32 4 1 ",
"  c None",
". c #222222",
"X c #989696",
"o c #C1C0C0",
/* pixels */
"                                ",
"     ooooooooooo                ",
"   ooXXXXXXXXXXXooo             ",
"   oXXXXXXXXXXXXXXXoooX         ",
"   oXXXXXXXXXXXXXXXXXXXX        ",
"   XXXXX.....XXXXXXXXXXXX       ",
"   XXXX.     ...XXXXXXXXX.      ",
"    ...         ....XXXXX.      ",
"                   XXXXXX.      ",
"                  oXXXXX.       ",
"                  oXXXXX.       ",
"                 oXXXXX.        ",
"                 oXXXX.         ",
"               ooXXXXX.         ",
"              oXXXXXX.          ",
"           oooXXXXXXX.          ",
"           oXXXXXXXXX.          ",
"           XXXXXXXXXXX          ",
"           XXXXXXXXXXXX         ",
"            .....XXXXXXX        ",
"                 .XXXXXX.       ",
"                  .XXXXXX       ",
"                   .XXXXX.      ",
"                   .XXXXX.      ",
" ooooo              .XXXX.      ",
" oXXXXoo            XXXXX.      ",
" XXXXXXXooo        XXXXXX.      ",
" XXXXXXXXXXoooo oooXXXXXX.      ",
"  .XXXXXXXXXXXXoXXXXXXXX.       ",
"   ..XXXXXXXXXXXXXXXXXX.        ",
"     ...XXXXXXXXXXXXXX.         ",
"        ..............          "
};
