/* XPM */
static const char *numbers_03[] = {
/* columns rows colors chars-per-pixel */
"32 32 4 1 ",
"  c None",
". c #222222",
"X c #989696",
"o c #C1C0C0",
/* pixels */
"                                ",
"                                ",
"                 ooooX          ",
"               ooXXXXX.         ",
"              oXXXXXXX.         ",
"             oXXXXXXXX.         ",
"            oXXXXXXXXX.         ",
"           oXXXXXXXXXX.         ",
"          oXXXXXXXXXXX.         ",
"         oXXXXXX.XXXXX.         ",
"         oXXXXX. XXXXX.         ",
"        oXXXXX.  oXXX.          ",
"        oXXXX.   oXXX.          ",
"       oXXXXX.   oXXX.          ",
"       oXXXX.    oXXX.          ",
"      oXXXXX.XoooXXXXXXXXXXXXX  ",
"      oXXXXXXXXXXXXXXXXXXXXXXX. ",
"      oXXXXXXXXXXXXXXXXXXXXXXX. ",
"     oXXXXXXXXXXXXXXXXXXXXXXXX. ",
"     oXXXXXXXXXX.XXXX.......... ",
"     oXXXXXX.... XXXX.          ",
"     XXXX...     oXXX.          ",
"      ...        oXXX.          ",
"                 oXXX.          ",
"                 oXXX.          ",
"                 oXXX.          ",
"                 oXXXX          ",
"                 oXXXX.         ",
"                 oXXXX.         ",
"                  oXXX.         ",
"                  XXXX.         ",
"                   ....         "
};
