/* XPM */
static const char *numbers_06[] = {
/* columns rows colors chars-per-pixel */
"32 32 4 1 ",
"  c None",
". c #222222",
"X c #989696",
"o c #C1C0C0",
/* pixels */
"                       ooooX    ",
"               ooooooooXXXXXXX  ",
"           ooooXXXXXXXXXXXXXXX. ",
"         ooXXXXXXXXXXXXXXXXXXX. ",
"       ooXXXXXXXXXXXXXXXXXXXXX. ",
"     ooXXXXXXXXXXX....XXXXXX..  ",
"    oXXXXXXXXX....   XXXXXX.    ",
"  ooXXXXXXXX..       oXXXXX.    ",
"  oXXXXXXX..        oXXXXX.     ",
"  oXXXXX..          oXXXX.      ",
"  oXXXX.           oXXXXX. oooX ",
"  XXXX.           oXXXXXXXXXXXX.",
"   ...          ooXXXXXXXXXXXXX.",
"              ooXXXXXXXXXXXXXXX.",
"            ooXXXXXXXXXXXXXX... ",
"           oXXXXXXXXXXXX....    ",
"           oXXXXXXXXX...        ",
"           oXXXXXXXXX.          ",
"           XXXXXXXXX.           ",
"            ...XXXXX.           ",
"              XXXXXX.           ",
"              oXXXX.            ",
"             oXXXXX.            ",
"             oXXXX.             ",
"            oXXXXX.             ",
"            oXXXX.              ",
"           oXXXXX.              ",
"           oXXXX.               ",
"          oXXXXX.               ",
"          oXXXX.                ",
"          XXXXX.                ",
"           ....                 "
};
