/* XPM */
static const char *numbers_11[] = {
/* columns rows colors chars-per-pixel */
"32 32 4 1 ",
"  c None",
". c #222222",
"X c #989696",
"o c #C1C0C0",
/* pixels */
"                                ",
"                                ",
"                                ",
"                                ",
"                                ",
"                                ",
"                                ",
"                                ",
"                                ",
"                                ",
"                                ",
"                                ",
"                                ",
"                                ",
"                                ",
"                                ",
"                                ",
"                                ",
"                                ",
"                                ",
"            oooooooX            ",
"            oooooXXX.           ",
"            oooXXXXX.           ",
"            ooXXXXXX.           ",
"            ooXXXXXX.           ",
"            oXXXXXXX.           ",
"            oXXXXXXX.           ",
"            XXXXXXXX.           ",
"             .......            ",
"                                ",
"                                ",
"                                "
};
