/* XPM */
static const char *numbers_07[] = {
/* columns rows colors chars-per-pixel */
"32 32 4 1 ",
"  c None",
". c #222222",
"X c #989696",
"o c #C1C0C0",
/* pixels */
"         ooooooX                ",
"       ooXXXXXXXX               ",
"    oooXXXXXXXXXXXXXX           ",
"  ooXXXXXXXXXXXXXXXXXXX         ",
"  oXXXXXXXXX...XXXXXXXXX        ",
" oXXXXXXXX..   XooXXXXXX.       ",
" oXXXXX...        oXXXXX.       ",
" oXXXX.            oXXXX.       ",
" oXXXX.           oXXXXX.       ",
" oXXXX.         ooXXXXXX.       ",
"  oXXXX       ooXXXXXXXX.       ",
"  oXXXXXX   ooXXXXXXXX..        ",
"  oXXXXXXXooXXXXXXXXX.          ",
"   oXXXXXXXXXXXXXXXXX.          ",
"    XXXXXXXXXXXXXXXXXXXX        ",
"     .XXXXXXXXXXXXXXXXXXXX      ",
"       oXXXXXXXXXXXXXXXXXXXX    ",
"      oXXXXX......XXXXXXXXXXX   ",
"      oXXXX.       ..XXXXXXXXX  ",
"      oXXXX.          .XXXXXXX. ",
"      oXXX.             .XXXXX. ",
"      oXXX.               XXXX. ",
"      oXXX.              oXXXX. ",
"      oXXXX.             oXXXX. ",
"      oXXXX.            oXXXXX. ",
"      oXXXX.          ooXXXXX.  ",
"       oXXXX.       ooXXXXXXX.  ",
"       oXXXXX.    ooXXXXXXXX.   ",
"       oXXXXXXXXXXXXXXXXXXX.    ",
"        oXXXXXXXXXXXXXXXX..     ",
"         XXXXXXXXXXXXXX..       ",
"          .............         "
};
