/* XPM */
static const char * Pedestal_1_xpm[] = {
"32 32 14 1",
" 	c None",
".	c #0F0F0F",
"+	c #A0A0A0",
"@	c #919191",
"#	c #AFAFAF",
"$	c #828282",
"%	c #737373",
"&	c #646464",
"*	c #555555",
"=	c #464646",
"-	c #373737",
";	c #191919",
">	c #282828",
",	c #0A0A0A",
"                                ",
"                                ",
"                                ",
"                                ",
"                                ",
"                                ",
"                                ",
"                                ",
"                                ",
"                                ",
"                                ",
"                .....           ",
"            ....+++@...         ",
"         ....+##+$%&**=..       ",
"      ...+#####$%%%&**==....    ",
"     ..+++###@%%%$$%&&**==-.    ",
"    ..++++#$%%$%%%%%$%%&=*-..   ",
"   ..+++#@%&%%%%%%&$$%%$**=;.   ",
"  ..@+#$$%$%%%$%%%&$$$%%&==-;.  ",
"  .@@@$@$$$%$$$$$%&&%$%%%==->.  ",
"  .@@@@$$$%%$$$$$&&&%&&&&&==>.  ",
" ..@$@$$$%$%$$$%%%%%&*&&%&&=>.  ",
" .$@@$$$&%%%%&&%&%%%*=*%%%%=>.  ",
" .@@+@$&*%%%%&&&%$$%***&%%&*>.  ",
".$@@@@%&&%%%*%%%&%%&&***$$%%;.. ",
".%$$@$%&%$$$%$%%%%&&%&**%$$*>;. ",
" .&=*%%&%$$$%$$%$$%**==**&=->;. ",
" .==***&&%%%%%$%&****==-->;;;,. ",
" ..=**==-==*&&&&**&&&=>>>>;;,.. ",
"  ...===--======-===->>>;,....  ",
"    ...>>>>>>>>>>>;;;;;;....    ",
"       .........,,.......       "};
