/* XPM */
static const char *  Pickup_04_xpm[] = {
"32 32 5 1",
" 	c None",
".	c #1EE500",
"+	c #16A700",
"@	c #1AC600",
"#	c #128800",
"                                ",
"                                ",
"                                ",
"                                ",
"                                ",
"                                ",
"                                ",
"                                ",
"                                ",
"          .+@@++@@@++@          ",
"         .            .         ",
"         +            @         ",
"         @   @++.@+   +         ",
"         #  +      .  +         ",
"         .  .      +  +         ",
"         +  @  +@  #  .         ",
"         .  @  @+  @  @         ",
"         @  .      .  @         ",
"         @  #      +  @         ",
"         .   ++@++@   @         ",
"         +            +         ",
"         @            @         ",
"          ++@@@@+@+#@@          ",
"                                ",
"                                ",
"                                ",
"                                ",
"                                ",
"                                ",
"                                ",
"                                ",
"                                "};
