/* XPM */
static const char *  Pickup_06_xpm[] = {
"32 32 4 1",
" 	c None",
".	c #1AC600",
"+	c #1EE500",
"@	c #16A700",
"                                ",
"                                ",
"                                ",
"                                ",
"                                ",
"                                ",
"                                ",
"                                ",
"                                ",
"          .+@..@.++..@          ",
"         +            .         ",
"         .            +         ",
"         @   ......   +         ",
"         .  .      @  .         ",
"         .  @      .  @         ",
"         +  @      +  .         ",
"         .  +      .  .         ",
"         .  @      .  +         ",
"         +  .      +  .         ",
"         @   .@+.+.   @         ",
"         @            .         ",
"         @            +         ",
"          ....+..@@..+          ",
"                                ",
"                                ",
"                                ",
"                                ",
"                                ",
"                                ",
"                                ",
"                                ",
"                                "};
