/* XPM */
static const char *  Pickup_08_xpm[] = {
"32 32 7 1",
" 	c None",
".	c #1AC600",
"+	c #16A700",
"@	c #1EE500",
"#	c #52FF38",
"$	c #139000",
"%	c #1DD900",
"                                ",
"                                ",
"                                ",
"                                ",
"                                ",
"                                ",
"                                ",
"                                ",
"                                ",
"          .+..@@..+...          ",
"         .            .         ",
"         +            .         ",
"         .            +         ",
"         .       #$   .         ",
"         .      %$    .         ",
"         @     #$     +         ",
"         .     .$     +         ",
"         +    #$      .         ",
"         +            @         ",
"         @            @         ",
"         @            .         ",
"         .            .         ",
"          .++++@+..+..          ",
"                                ",
"                                ",
"                                ",
"                                ",
"                                ",
"                                ",
"                                ",
"                                ",
"                                "};
