/* XPM */
static const char *  Pickup_10_xpm[] = {
"32 32 4 1",
" 	c None",
".	c #52FF38",
"+	c #1AC600",
"@	c #139000",
"                                ",
"                                ",
"                                ",
"                                ",
"                                ",
"                                ",
"                     .          ",
"                     +@         ",
"                    ++@         ",
"                   .+@          ",
"                  .+@           ",
"           .@@   .+@            ",
"            .+@ .+@             ",
"            .++@++@             ",
"              .++@              ",
"              .++@              ",
"             .+++@              ",
"             .+@++@@            ",
"            .+@   .+@           ",
"            .@     .@           ",
"           +@      .+@          ",
"          .@                    ",
"         +@                     ",
"        .+@                     ",
"        .@                      ",
"                                ",
"                                ",
"                                ",
"                                ",
"                                ",
"                                ",
"                                "};
