/* XPM */
static const char *  Pickup_11_xpm[] = {
"32 32 4 1",
" 	c None",
".	c #1AC600",
"+	c #139000",
"@	c #52FF38",
"                                ",
"                                ",
"                                ",
"                                ",
"                                ",
"                                ",
"                     .          ",
"                     .+         ",
"          .         @.+         ",
"          @+       ..+          ",
"          @.+     @.+           ",
"           @.+   @.+            ",
"            @.+ @@+             ",
"            @@.+..+             ",
"              @..+              ",
"              @..+              ",
"             @.+.+              ",
"             .+ @.++            ",
"            @++   @.+           ",
"            @+    @.+           ",
"           .+      ..+          ",
"          @+       @.+          ",
"         .+         @.+         ",
"        @+           .+         ",
"        +            @.+        ",
"                      @+        ",
"                       .+       ",
"                                ",
"                                ",
"                                ",
"                                ",
"                                "};
