/* XPM */
static const char * Projectile_13_xpm[] = {
"16 16 5 1",
" 	c None",
".	c #4F1FA9",
"+	c #491D9C",
"@	c #682ADA",
"#	c #AE1262",
"                ",
"                ",
"                ",
"                ",
"                ",
"                ",
"                ",
"                ",
"     .    .     ",
"   .        .   ",
" +    +  +    + ",
"                ",
" +@@@@@@@@@@@@+ ",
"  +##########+  ",
"   ++++++++++   ",
"                "};
