/* XPM */
static const char * Projectile_09_xpm[] = {
"16 16 9 1",
" 	c None",
".	c #4F1FA9",
"+	c #5B23C3",
"@	c #491D9C",
"#	c #5521B6",
"$	c #682ADA",
"%	c #6126D0",
"&	c #AE1262",
"*	c #EA2020",
"                ",
"                ",
"                ",
"                ",
" .            . ",
"     .    .     ",
"   .        .   ",
"  .   .  .   .  ",
" +   .    .   + ",
"@#$$        $$%@",
"@@&&$$$$$$$$&&@@",
" @**&&&&&&&&**@ ",
" @@@********@@@ ",
"  @@@@....@@@@  ",
"   @@@@@@@@@@   ",
"                "};
