/* XPM */
static const char * Projectile_15_xpm[] = {
"16 16 2 1",
" 	c None",
".	c #491D9C",
"                ",
"                ",
"                ",
"                ",
"                ",
"                ",
"                ",
"                ",
"                ",
"                ",
" .    .  .    . ",
"    .      .    ",
"                ",
"  ...      ...  ",
"   ..........   ",
"                "};
