/* XPM */
static const char * Projectile_00_xpm[] = {
"16 16 8 1",
" 	c None",
".	c #3D1882",
"+	c #431A8F",
"@	c #491C9C",
"#	c #4F1EA9",
"$	c #5B22C3",
"%	c #920F52",
"&	c #D81414",
"    .      .    ",
"    ..    ..    ",
"   ...    ...   ",
"   ....  ....   ",
"  ..+......+..  ",
"  .+@+....+@+.  ",
"  .@#@+..+@#@.  ",
"  .#$#@++@#$#.  ",
"  .@%$#@@#$%@.  ",
"  .+&%$##$%&+.  ",
"   .+&%$$%&+.   ",
"   .+&&%%&&+.   ",
"    .+&&&&+.    ",
"     .++++.     ",
"      ....      ",
"                "};
