/* XPM */
static const char * Projectile_08_xpm[] = {
"16 16 8 1",
" 	c None",
".	c #431A8F",
"+	c #4F1EA9",
"@	c #3D1882",
"#	c #491C9C",
"$	c #5B22C3",
"%	c #920F52",
"&	c #D81414",
"                ",
"                ",
"                ",
"                ",
" .            . ",
"     .    .     ",
"   .        .   ",
"  .   .  .   .  ",
" +   .    .   + ",
"@#$$        $$#@",
"@@%%$$$$$$$$%%@@",
" @&&%%%%%%%%&&@ ",
" @@@&&&&&&&&@@@ ",
"  @@@@....@@@@  ",
"   @@@@@@@@@@   ",
"                "};
