/* XPM */
static const char * Projectile_10_xpm[] = {
"16 16 6 1",
" 	c None",
".	c #431A8F",
"+	c #3D1882",
"@	c #5B22C3",
"#	c #920F52",
"$	c #D81414",
"                ",
"                ",
"                ",
"                ",
"                ",
"                ",
"                ",
"  .          .  ",
"     .    .     ",
"   .        .   ",
".     .  .     .",
" +@@@@@@@@@@@@+ ",
" +############+ ",
"  +$$$$$$$$$$+  ",
"   ++++++++++   ",
"                "};
