/* XPM */
static const char * Projectile_05_xpm[] = {
"16 16 8 1",
" 	c None",
".	c #491D9C",
"+	c #5521B6",
"@	c #5B23C3",
"#	c #682ADA",
"$	c #AE1262",
"%	c #EA2020",
"&	c #4F1FA9",
"                ",
"                ",
"                ",
".  .        .  .",
"..    .  .    ..",
"...          ...",
"..+...    ...+..",
".+@+........+@+.",
".@#@++++++++@#@.",
".+$#@@@@@@@@#$+.",
"..%$########$%..",
" ..%$$$$$$$$%.. ",
"  ..%%%%%%%%..  ",
"   ...&&&&...   ",
"      ....      ",
"                "};
