/* XPM */
static const char * Sandstone_1_xpm[] = {
"32 32 6 1",
" 	c None",
".	c #AF9337",
"+	c #86712C",
"@	c #C2A33B",
"#	c #F1CB4E",
"$	c #D9B749",
"..........+..........+..........",
".@@@@@@@@.+.@#@@@@@@.++.@@@@@@@.",
".@$$$$$$@.+.@#$$$$$$@.+.@#$$$$@.",
".@$$$$$$@.+.@###$$$$@.+.@##$$$@.",
".@$#$$$$@.+.@$##$$$$@.+.@###$$@.",
".@$###$$@.++.@$###$$@.+.@$###$@.",
".@@@$##$$@.++.@$$$$@.++..@$$##@.",
"....@$##$$@.++.@@@@..+.++.@@....",
"++++.@$##$$@.++....++.@.++..++++",
"...++.@$#$@@...+++++.@$@.++++...",
".@@.++.@$@..+++.....@$$$@.++.@@.",
".@$@.++.@.++...@@@@@$##$$@.++.@.",
".@$$@..+.++.@@@$$$$$$$$##$@.++..",
".@$$$@.++..@$$$$$$$$$$$$#$$@.+..",
".@$$$$@.++.@$##$$$$$$$$$$$$@.++.",
".@$$$$$@.++.@###$$$$$$$$$$$$@.+.",
".@#$$$$$@.+.@$###$$$$$$$$$$$@.+.",
".@##$$$$@.++.@$###$$$$$$$$$$@.+.",
".@$##$$$$@.+.@$$###$$$$$$$$@.++.",
".@$$$$$$$@.++.@$####$$$$$$$@.+..",
".@$$$$$$$$@.+.@$$#####$$$$$@.+..",
".@@$$$$$@@.+.+.@$$######$$$@.+..",
"...@@$@@..++.++.@@$$$####@@@..+.",
"+++..@..+++.@.++..@@$$@@@...++++",
"..+++.+++..@$@.+++..@@...++++...",
".@..+++..@@$$@.+.+++..++++...@@.",
".@@@...@@$$@@.++...++++...@@@$@.",
".@#$@@@$$$@..++.@@@.+..@@@$#$$@.",
".@###$$$$@.++..@$$@.+.@$$$$##$@.",
".@$$$$$$$@.+.@@##$$@.+.@$$$$$$@.",
".@@@@@@@@.+.@@@@@@@@.+.@@@@@@@@.",
"..........+..........+.........."};
