/* XPM */
static const char * SideLeftIdle_11_xpm[] = {
"32 32 177 2",
"  	c None",
". 	c #3A004B",
"+ 	c #270032",
"@ 	c #CACACA",
"# 	c #AFAFAF",
"$ 	c #C9C9C9",
"% 	c #E8E8E8",
"& 	c #F1F1F1",
"* 	c #E9E9E9",
"= 	c #BEBEBE",
"- 	c #B7B7B7",
"; 	c #B6B6B6",
"> 	c #ABABAB",
", 	c #F0F0F0",
"' 	c #EEEEEE",
") 	c #E4E4E4",
"! 	c #C1C1C1",
"~ 	c #A1A1A1",
"{ 	c #B2B2B2",
"] 	c #ACACAC",
"^ 	c #A0A0A0",
"/ 	c #C3C3C3",
"( 	c #C6C6C6",
"_ 	c #C2C2C2",
": 	c #B5B5B5",
"< 	c #A3A3A3",
"[ 	c #A8A8A8",
"} 	c #CDCDCD",
"| 	c #BFBFBF",
"1 	c #CBCBCB",
"2 	c #B9B9B9",
"3 	c #D1D1D1",
"4 	c #ECECEC",
"5 	c #E7E7E7",
"6 	c #D5D5D5",
"7 	c #C7C7C7",
"8 	c #BCBCBC",
"9 	c #BBBBBB",
"0 	c #D6D6D6",
"a 	c #E6E6E6",
"b 	c #BABABA",
"c 	c #CF6BA5",
"d 	c #989797",
"e 	c #D0D0D0",
"f 	c #EAEAEA",
"g 	c #F2F2F2",
"h 	c #F3F3F3",
"i 	c #DBDBDB",
"j 	c #B0B0B0",
"k 	c #D4D4D4",
"l 	c #EDEDED",
"m 	c #E0E0E0",
"n 	c #9C3971",
"o 	c #E8AECF",
"p 	c #929292",
"q 	c #EBEBEB",
"r 	c #DFDFDF",
"s 	c #B4B4B4",
"t 	c #CECECE",
"u 	c #D8D8D8",
"v 	c #C4C4C4",
"w 	c #361B29",
"x 	c #DC85B7",
"y 	c #9A3971",
"z 	c #979395",
"A 	c #B1B1B1",
"B 	c #D7D7D7",
"C 	c #E1E1E1",
"D 	c #E5E5E5",
"E 	c #D9D9D9",
"F 	c #BDBDBD",
"G 	c #120018",
"H 	c #CB5599",
"I 	c #B0ACAE",
"J 	c #B8B7B7",
"K 	c #A2A2A2",
"L 	c #AEAEAE",
"M 	c #B8B8B8",
"N 	c #E2E2E2",
"O 	c #C0C0C0",
"P 	c #A52A71",
"Q 	c #AC5085",
"R 	c #A09E9F",
"S 	c #A6A6A6",
"T 	c #AAAAAA",
"U 	c #9E9E9E",
"V 	c #B3B3B3",
"W 	c #761C4F",
"X 	c #A9A9A9",
"Y 	c #E3E3E3",
"Z 	c #DCDCDC",
"` 	c #7D7178",
" .	c #826978",
"..	c #A19FA0",
"+.	c #A7A7A7",
"@.	c #CFCFCF",
"#.	c #8F8F8F",
"$.	c #C5C5C5",
"%.	c #DEDEDE",
"&.	c #999999",
"*.	c #611314",
"=.	c #62080A",
"-.	c #700C0F",
";.	c #75171B",
">.	c #571416",
",.	c #620002",
"'.	c #82050A",
").	c #940910",
"!.	c #970B11",
"~.	c #980B12",
"{.	c #970A11",
"].	c #91090F",
"^.	c #83060A",
"/.	c #6C0103",
"(.	c #660103",
"_.	c #86060B",
":.	c #9F0D14",
"<.	c #960A11",
"[.	c #750306",
"}.	c #4A0001",
"|.	c #680003",
"1.	c #85060B",
"2.	c #940A10",
"3.	c #740306",
"4.	c #490000",
"5.	c #6A0003",
"6.	c #84060A",
"7.	c #90080E",
"8.	c #710205",
"9.	c #6B0003",
"0.	c #9E0C13",
"a.	c #9B0B12",
"b.	c #7C0409",
"c.	c #480001",
"d.	c #690002",
"e.	c #81060A",
"f.	c #8A070C",
"g.	c #6E0104",
"h.	c #550405",
"i.	c #420203",
"j.	c #92090F",
"k.	c #750206",
"l.	c #660002",
"m.	c #4C0405",
"n.	c #3C0203",
"o.	c #7A0408",
"p.	c #680002",
"q.	c #550608",
"r.	c #410506",
"s.	c #390001",
"t.	c #9D0C13",
"u.	c #770306",
"v.	c #560507",
"w.	c #430708",
"x.	c #3D0102",
"y.	c #390102",
"z.	c #600305",
"A.	c #740205",
"B.	c #7A0307",
"C.	c #6C0003",
"D.	c #650103",
"E.	c #540608",
"F.	c #410606",
"G.	c #3D0101",
"H.	c #3D0001",
"I.	c #3B0506",
"J.	c #601012",
"K.	c #670002",
"L.	c #5F0204",
"M.	c #4B0607",
"N.	c #3F0405",
"O.	c #3E0001",
"P.	c #580405",
"Q.	c #470607",
"R.	c #3F0506",
"S.	c #4B1D1E",
"T.	c #461516",
"                      . . . . . . . . . .                       ",
"                    . + + + + + + + + + + .                     ",
"                  . + @ # # # $ % & * = - + .                   ",
"                . + ; > $ $ % , & ' ) ! ~ = + .                 ",
"              . + { ] ^ ^ { / ( _ : < [ } | 1 + .               ",
"            . + 2 3 4 5 6 6 7 8 ] ~ 9 0 * a b 6 + .             ",
"          . + c d ] e f g h g * i b j k l h a - m + .           ",
"        . + n o c p ; 1 m q , g & r s > t * g u v v + .         ",
"        . + w x y z z A b ( B C D a E - ] 7 ) * F E + .         ",
"        . + G H H I J K ] L 8 b M 8 1 1 { > | N u O + .         ",
"        . + w P Q R I E E ) 6 9 S K j 2 2 T U V / L + .         ",
"        . + W W P R R R X _ Y ' * Z 0 1 b T > p K X + .         ",
"          . + `  ...( F +.< 8 @.) ' & , l q f Z / + .           ",
"          . + #.#.e e 4 & a / s 9 $.i % ' g h D 2 + .           ",
"            . + U 8 8 ( @.0 E t X p +.- 1 %.C v + .             ",
"              . + j j &.- v 1 t ( s - s M F j + .               ",
"                . + + *.=.-.;.-.;.;.-.=.>.+ + .                 ",
"                  . + ,.'.).!.~.{.].^./.>.+ .                   ",
"                  . + (._.:.:.:.:.:.<.[.}.+ .                   ",
"                  . + |.1.:.:.:.:.:.2.3.4.+ .                   ",
"                  . + 5.6.:.:.:.:.:.7.8.4.+ .                   ",
"                  . + 9.6.:.:.:.:.0.1.5.}.+ .                   ",
"                  . + 5.^.:.:.:.:.a.b.,.c.+ .                   ",
"                  . + d.e.:.:.:.0.f.g.h.i.+ .                   ",
"                  . + d.e.:.:.:.j.k.l.m.n.+ .                   ",
"                  . + d.e.:.:.2.o.p.q.r.s.+ .                   ",
"                  . + p.e.t.7.u.p.v.w.x.y.+ .                   ",
"                  . + z.A.B.C.D.E.F.G.H.I.+ .                   ",
"                  . + J.K.K.L.M.N.H.H.O.I.+ .                   ",
"                    . + P.Q.R.x.H.H.H.I.+ .                     ",
"                      . + + S.T.T.T.+ + .                       ",
"                        . . + + + + . .                         "};
