/* XPM */
static const char *SideLeftAttack_05[] = {
/* columns rows colors chars-per-pixel */
"32 32 145 2 ",
"   c None",
".  c #120018",
"X  c #390001",
"o  c #390102",
"O  c #3D0001",
"+  c #3D0101",
"@  c #3E0001",
"#  c #3D0102",
"$  c #3C0203",
"%  c #3B0506",
"&  c #3F0405",
"*  c #361B29",
"=  c #270032",
"-  c #420203",
";  c #410506",
":  c #410606",
">  c #490000",
",  c #480001",
"<  c #4A0001",
"1  c #4B0607",
"2  c #4C0405",
"3  c #430708",
"4  c #550405",
"5  c #560507",
"6  c #540608",
"7  c #550608",
"8  c #461516",
"9  c #4B1D1E",
"0  c #571416",
"q  c #620002",
"w  c #660002",
"e  c #680002",
"r  c #6A0003",
"t  c #6C0103",
"y  c #6E0104",
"u  c #62080A",
"i  c #710205",
"p  c #750206",
"a  c #740306",
"s  c #750306",
"d  c #7A0408",
"f  c #700C0F",
"g  c #611314",
"h  c #75171B",
"j  c #3A004B",
"k  c #81060A",
"l  c #8A070C",
"z  c #92090F",
"x  c #940910",
"c  c #970A11",
"v  c #970B11",
"b  c #980B12",
"n  c #9F0D14",
"m  c #AA0000",
"M  c #BD0000",
"N  c #DB0000",
"B  c #F10000",
"V  c #FF2929",
"C  c #826978",
"Z  c #B07B7B",
"A  c gray56",
"S  c #929292",
"D  c #979395",
"F  c #989797",
"G  c gray60",
"H  c gray62",
"J  c #A09E9F",
"K  c #A19FA0",
"L  c #A0A0A0",
"P  c gray63",
"I  c #A2A2A2",
"U  c gray64",
"Y  c gray65",
"T  c #A7A7A7",
"R  c gray66",
"E  c #A9A9A9",
"W  c #AAAAAA",
"Q  c gray67",
"!  c #ACACAC",
"~  c #AEAEAE",
"^  c #AFAFAF",
"/  c #B0ACAE",
"(  c gray69",
")  c #B1B1B1",
"_  c #B2B2B2",
"`  c gray70",
"'  c #B5B2B2",
"]  c #B4B4B4",
"[  c gray71",
"{  c #B6B6B6",
"}  c #B7B7B7",
"|  c #B8B7B7",
" . c gray72",
".. c #B9B9B9",
"X. c gray73",
"o. c #BBBBBB",
"O. c #BCBCBC",
"+. c gray74",
"@. c gray",
"#. c gray75",
"$. c #C0C0C0",
"%. c #C1C1C1",
"&. c gray76",
"*. c #C3C3C3",
"=. c gray77",
"-. c #C5C5C5",
";. c #C6C6C6",
":. c gray78",
">. c gray79",
",. c #CACACA",
"<. c #CBCBCB",
"1. c #CDCDCD",
"2. c #CECECE",
"3. c gray81",
"4. c #D0D0D0",
"5. c gray82",
"6. c gray83",
"7. c #D5D5D5",
"8. c gray84",
"9. c #D7D7D7",
"0. c #D8D8D8",
"q. c gray85",
"w. c gray86",
"e. c gainsboro",
"r. c gray87",
"t. c #DFDFDF",
"y. c gray88",
"u. c #E1E1E1",
"i. c #E2E2E2",
"p. c gray89",
"a. c #E4E4E4",
"s. c gray90",
"d. c #E6E6E6",
"f. c #E7E7E7",
"g. c gray91",
"h. c #E9E9E9",
"j. c #EAEAEA",
"k. c gray92",
"l. c #ECECEC",
"z. c gray93",
"x. c #EEEEEE",
"c. c gray94",
"v. c #F1F1F1",
"b. c gray95",
"n. c #F3F3F3",
/* pixels */
"                      j j j j j j j j j j                       ",
"                    j = = = = = = = = = = j                     ",
"                  j = ,.^ ^ ^ >.g.v.h.@.} = j                   ",
"                j = { Q >.>.g.c.v.x.a.%.P @.= j                 ",
"              j = _ ! L L _ *.;.&.[ U R 1.#.<.= j               ",
"            j = ..5.l.f.7.7.:.O.! P o.8.h.d.X.7.= j             ",
"          j = N F ! 4.j.b.n.b.h.w.X.( 6.z.n.d.} y.= j           ",
"        j = N B N S { <.y.k.c.b.v.t.] Q 2.h.b.0.=.=.= j         ",
"        j = * V B D D ) X.;.9.u.s.d.q.} ! :.a.h.+.q.= j         ",
"        j = . N B / | I ! ~ O.X. .O.<.<._ Q #.i.0.$.= j         ",
"        j = * M N J / q.q.a.7.o.Y I ( ....W H ` *.~ = j         ",
"        j = m m M J J J E &.p.x.h.e.8.<.X.W Q S I E = j         ",
"          j = Z C K ;.+.T U O.3.a.x.v.c.z.k.j.e.*.= j           ",
"          j = A A 4.4.l.v.d.*.] o.-.w.g.x.b.n.s...= j           ",
"            j = H O.O.;.3.8.q.2.E S T } <.r.u.=.= j             ",
"              j = ( ( G } =.<.2.;.] } ]  .+.( = j               ",
"                j = = A G G G G ] } T T ' = = j                 ",
"              j = q q g u f h f h h f u 0 = j                   ",
"              j = q k k k x v b c l s t 0 = j                   ",
"              j = q k x x n n n n l s s < = j                   ",
"              j = q d z n n n n n l s a > = j                   ",
"              j = q d z n n n n n l s i > = j                   ",
"              j = q e d z n n n n l s r < = j                   ",
"              j = q 6 e d z n n l l s q , = j                   ",
"                j = 1 6 e d l l l s y 4 - = j                   ",
"                j = 1 6 6 e d s s p w 2 $ = j                   ",
"                j = % 1 6 e d d d e 7 ; X = j                   ",
"                j = % 1 6 e e e e 5 3 # o = j                   ",
"                j = % % 1 6 6 6 1 : + O % = j                   ",
"                  j = % % 1 1 1 & O O @ % = j                   ",
"                    j = % % % # O O O % = j                     ",
"                      j = = 9 8 8 8 = = j                       "
};
