/* XPM */
static const char * SideRightIdle_01_xpm[] = {
"32 32 180 2",
"  	c None",
". 	c #3A004B",
"+ 	c #270032",
"@ 	c #B7B7B7",
"# 	c #BEBEBE",
"$ 	c #E9E9E9",
"% 	c #F1F1F1",
"& 	c #E8E8E8",
"* 	c #C9C9C9",
"= 	c #AFAFAF",
"- 	c #CACACA",
"; 	c #A1A1A1",
"> 	c #C1C1C1",
", 	c #E4E4E4",
"' 	c #EEEEEE",
") 	c #F0F0F0",
"! 	c #ABABAB",
"~ 	c #B6B6B6",
"{ 	c #CBCBCB",
"] 	c #BFBFBF",
"^ 	c #CDCDCD",
"/ 	c #A8A8A8",
"( 	c #A3A3A3",
"_ 	c #B5B5B5",
": 	c #C2C2C2",
"< 	c #C6C6C6",
"[ 	c #C3C3C3",
"} 	c #B2B2B2",
"| 	c #A0A0A0",
"1 	c #ACACAC",
"2 	c #D5D5D5",
"3 	c #BABABA",
"4 	c #E6E6E6",
"5 	c #D6D6D6",
"6 	c #BBBBBB",
"7 	c #BCBCBC",
"8 	c #C7C7C7",
"9 	c #E7E7E7",
"0 	c #ECECEC",
"a 	c #D1D1D1",
"b 	c #B9B9B9",
"c 	c #E0E0E0",
"d 	c #F3F3F3",
"e 	c #EDEDED",
"f 	c #D4D4D4",
"g 	c #B0B0B0",
"h 	c #DBDBDB",
"i 	c #F2F2F2",
"j 	c #EAEAEA",
"k 	c #D0D0D0",
"l 	c #989797",
"m 	c #A6773C",
"n 	c #C4C4C4",
"o 	c #D8D8D8",
"p 	c #CECECE",
"q 	c #B4B4B4",
"r 	c #DFDFDF",
"s 	c #EBEBEB",
"t 	c #929292",
"u 	c #CF6BA5",
"v 	c #E8AECF",
"w 	c #9C3971",
"x 	c #D9D9D9",
"y 	c #BDBDBD",
"z 	c #E5E5E5",
"A 	c #E1E1E1",
"B 	c #D7D7D7",
"C 	c #B1B1B1",
"D 	c #979395",
"E 	c #9A3971",
"F 	c #DC85B7",
"G 	c #361B29",
"H 	c #C0C0C0",
"I 	c #E2E2E2",
"J 	c #B8B8B8",
"K 	c #AEAEAE",
"L 	c #A2A2A2",
"M 	c #B8B7B7",
"N 	c #B0ACAE",
"O 	c #CB5599",
"P 	c #120018",
"Q 	c #B3B3B3",
"R 	c #9E9E9E",
"S 	c #AAAAAA",
"T 	c #A6A6A6",
"U 	c #A09E9F",
"V 	c #AC5085",
"W 	c #A52A71",
"X 	c #A9A9A9",
"Y 	c #DCDCDC",
"Z 	c #E3E3E3",
"` 	c #B17F40",
" .	c #956931",
"..	c #CFCFCF",
"+.	c #A7A7A7",
"@.	c #A19FA0",
"#.	c #826978",
"$.	c #7D7178",
"%.	c #C5C5C5",
"&.	c #8F8F8F",
"*.	c #DEDEDE",
"=.	c #999999",
"-.	c #B5B2B2",
";.	c #571416",
">.	c #62080A",
",.	c #700C0F",
"'.	c #75171B",
").	c #611314",
"!.	c #6C0103",
"~.	c #83060A",
"{.	c #91090F",
"].	c #970A11",
"^.	c #980B12",
"/.	c #970B11",
"(.	c #940910",
"_.	c #82050A",
":.	c #620002",
"<.	c #4A0001",
"[.	c #750306",
"}.	c #960A11",
"|.	c #9F0D14",
"1.	c #86060B",
"2.	c #660103",
"3.	c #490000",
"4.	c #740306",
"5.	c #940A10",
"6.	c #85060B",
"7.	c #680003",
"8.	c #710205",
"9.	c #90080E",
"0.	c #84060A",
"a.	c #6A0003",
"b.	c #9E0C13",
"c.	c #6B0003",
"d.	c #480001",
"e.	c #7C0409",
"f.	c #9B0B12",
"g.	c #420203",
"h.	c #550405",
"i.	c #6E0104",
"j.	c #8A070C",
"k.	c #81060A",
"l.	c #690002",
"m.	c #3C0203",
"n.	c #4C0405",
"o.	c #660002",
"p.	c #750206",
"q.	c #92090F",
"r.	c #390001",
"s.	c #410506",
"t.	c #550608",
"u.	c #680002",
"v.	c #7A0408",
"w.	c #390102",
"x.	c #3D0102",
"y.	c #430708",
"z.	c #560507",
"A.	c #770306",
"B.	c #9D0C13",
"C.	c #3B0506",
"D.	c #3D0001",
"E.	c #3D0101",
"F.	c #410606",
"G.	c #540608",
"H.	c #650103",
"I.	c #6C0003",
"J.	c #7A0307",
"K.	c #740205",
"L.	c #600305",
"M.	c #3E0001",
"N.	c #3F0405",
"O.	c #4B0607",
"P.	c #5F0204",
"Q.	c #670002",
"R.	c #601012",
"S.	c #3F0506",
"T.	c #470607",
"U.	c #580405",
"V.	c #461516",
"W.	c #4B1D1E",
"                      . . . . . . . . . .                       ",
"                    . + + + + + + + + + + .                     ",
"                  . + @ # $ % & * = = = - + .                   ",
"                . + # ; > , ' % ) & * * ! ~ + .                 ",
"              . + { ] ^ / ( _ : < [ } | | 1 } + .               ",
"            . + 2 3 4 $ 5 6 ; 1 7 8 2 2 9 0 a b + .             ",
"          . + c @ 4 d e f g 3 h $ i d i j k 1 l m + .           ",
"        . + n n o i $ p ! q r % i ) s c { ~ t u v w + .         ",
"        . + x y $ , 8 1 @ x 4 z A B < 3 C D D E F G + .         ",
"        . + H o I ] ! } { { 7 J 3 7 K 1 L M N O O P + .         ",
"        . + K [ Q R S b b g L T 6 2 , x x N U V W G + .         ",
"        . + X L t ! S 3 { 5 Y $ ' Z : X U U U ` m  .+ .         ",
"          . + [ Y j s e ) % ' , ..7 ( +.y < @.#.$.+ .           ",
"          . + b z d i ' & h %.6 q [ 4 % 0 k k &.&.+ .           ",
"            . + n A *.{ @ +.t X p x 5 ..< 7 7 R + .             ",
"              . + g y J q @ q < p { n @ =.g g + .               ",
"                . + + -.+.+.@ q =.=.=.=.&.+ + .                 ",
"                  . + ;.>.,.'.'.,.'.,.>.).+ .                   ",
"                  . + ;.!.~.{.].^./.(._.:.+ .                   ",
"                  . + <.[.}.|.|.|.|.|.1.2.+ .                   ",
"                  . + 3.4.5.|.|.|.|.|.6.7.+ .                   ",
"                  . + 3.8.9.|.|.|.|.|.0.a.+ .                   ",
"                  . + <.a.6.b.|.|.|.|.0.c.+ .                   ",
"                  . + d.:.e.f.|.|.|.|.~.a.+ .                   ",
"                  . + g.h.i.j.b.|.|.|.k.l.+ .                   ",
"                  . + m.n.o.p.q.|.|.|.k.l.+ .                   ",
"                  . + r.s.t.u.v.5.|.|.k.l.+ .                   ",
"                  . + w.x.y.z.u.A.9.B.k.u.+ .                   ",
"                  . + C.D.E.F.G.H.I.J.K.L.+ .                   ",
"                  . + C.M.D.D.N.O.P.Q.Q.R.+ .                   ",
"                    . + C.D.D.D.x.S.T.U.+ .                     ",
"                      . + + V.V.V.W.+ + .                       "};
