/* XPM */
static const char * SideLeftIdle_09_xpm[] = {
"32 32 175 2",
"  	c None",
". 	c #3A004B",
"+ 	c #270032",
"@ 	c #CACACA",
"# 	c #AFAFAF",
"$ 	c #C9C9C9",
"% 	c #E8E8E8",
"& 	c #F1F1F1",
"* 	c #E9E9E9",
"= 	c #BEBEBE",
"- 	c #B7B7B7",
"; 	c #B6B6B6",
"> 	c #ABABAB",
", 	c #F0F0F0",
"' 	c #EEEEEE",
") 	c #E4E4E4",
"! 	c #C1C1C1",
"~ 	c #A1A1A1",
"{ 	c #B2B2B2",
"] 	c #ACACAC",
"^ 	c #A0A0A0",
"/ 	c #C3C3C3",
"( 	c #C6C6C6",
"_ 	c #C2C2C2",
": 	c #B5B5B5",
"< 	c #A3A3A3",
"[ 	c #A8A8A8",
"} 	c #CDCDCD",
"| 	c #BFBFBF",
"1 	c #CBCBCB",
"2 	c #B9B9B9",
"3 	c #D1D1D1",
"4 	c #ECECEC",
"5 	c #E7E7E7",
"6 	c #D5D5D5",
"7 	c #C7C7C7",
"8 	c #BCBCBC",
"9 	c #BBBBBB",
"0 	c #D6D6D6",
"a 	c #E6E6E6",
"b 	c #BABABA",
"c 	c #A6773C",
"d 	c #989797",
"e 	c #D0D0D0",
"f 	c #EAEAEA",
"g 	c #F2F2F2",
"h 	c #F3F3F3",
"i 	c #DBDBDB",
"j 	c #B0B0B0",
"k 	c #D4D4D4",
"l 	c #EDEDED",
"m 	c #E0E0E0",
"n 	c #956931",
"o 	c #B17F40",
"p 	c #929292",
"q 	c #EBEBEB",
"r 	c #DFDFDF",
"s 	c #B4B4B4",
"t 	c #CECECE",
"u 	c #D8D8D8",
"v 	c #C4C4C4",
"w 	c #361B29",
"x 	c #DC85B7",
"y 	c #9A3971",
"z 	c #979395",
"A 	c #B1B1B1",
"B 	c #D7D7D7",
"C 	c #E1E1E1",
"D 	c #E5E5E5",
"E 	c #D9D9D9",
"F 	c #BDBDBD",
"G 	c #120018",
"H 	c #CB5599",
"I 	c #B0ACAE",
"J 	c #B8B7B7",
"K 	c #A2A2A2",
"L 	c #AEAEAE",
"M 	c #B8B8B8",
"N 	c #E2E2E2",
"O 	c #C0C0C0",
"P 	c #A52A71",
"Q 	c #A09E9F",
"R 	c #A6A6A6",
"S 	c #AAAAAA",
"T 	c #9E9E9E",
"U 	c #B3B3B3",
"V 	c #A9A9A9",
"W 	c #E3E3E3",
"X 	c #DCDCDC",
"Y 	c #7D7178",
"Z 	c #826978",
"` 	c #A19FA0",
" .	c #A7A7A7",
"..	c #CFCFCF",
"+.	c #8F8F8F",
"@.	c #C5C5C5",
"#.	c #DEDEDE",
"$.	c #999999",
"%.	c #611314",
"&.	c #62080A",
"*.	c #700C0F",
"=.	c #75171B",
"-.	c #571416",
";.	c #620002",
">.	c #82050A",
",.	c #940910",
"'.	c #970B11",
").	c #980B12",
"!.	c #970A11",
"~.	c #91090F",
"{.	c #83060A",
"].	c #6C0103",
"^.	c #660103",
"/.	c #86060B",
"(.	c #9F0D14",
"_.	c #960A11",
":.	c #750306",
"<.	c #4A0001",
"[.	c #680003",
"}.	c #85060B",
"|.	c #940A10",
"1.	c #740306",
"2.	c #490000",
"3.	c #6A0003",
"4.	c #84060A",
"5.	c #90080E",
"6.	c #710205",
"7.	c #6B0003",
"8.	c #9E0C13",
"9.	c #9B0B12",
"0.	c #7C0409",
"a.	c #480001",
"b.	c #690002",
"c.	c #81060A",
"d.	c #8A070C",
"e.	c #6E0104",
"f.	c #550405",
"g.	c #420203",
"h.	c #92090F",
"i.	c #750206",
"j.	c #660002",
"k.	c #4C0405",
"l.	c #3C0203",
"m.	c #7A0408",
"n.	c #680002",
"o.	c #550608",
"p.	c #410506",
"q.	c #390001",
"r.	c #9D0C13",
"s.	c #770306",
"t.	c #560507",
"u.	c #430708",
"v.	c #3D0102",
"w.	c #390102",
"x.	c #600305",
"y.	c #740205",
"z.	c #7A0307",
"A.	c #6C0003",
"B.	c #650103",
"C.	c #540608",
"D.	c #410606",
"E.	c #3D0101",
"F.	c #3D0001",
"G.	c #3B0506",
"H.	c #601012",
"I.	c #670002",
"J.	c #5F0204",
"K.	c #4B0607",
"L.	c #3F0405",
"M.	c #3E0001",
"N.	c #580405",
"O.	c #470607",
"P.	c #3F0506",
"Q.	c #4B1D1E",
"R.	c #461516",
"                      . . . . . . . . . .                       ",
"                    . + + + + + + + + + + .                     ",
"                  . + @ # # # $ % & * = - + .                   ",
"                . + ; > $ $ % , & ' ) ! ~ = + .                 ",
"              . + { ] ^ ^ { / ( _ : < [ } | 1 + .               ",
"            . + 2 3 4 5 6 6 7 8 ] ~ 9 0 * a b 6 + .             ",
"          . + c d ] e f g h g * i b j k l h a - m + .           ",
"        . + n o o p ; 1 m q , g & r s > t * g u v v + .         ",
"        . + w x y z z A b ( B C D a E - ] 7 ) * F E + .         ",
"        . + G H H I J K ] L 8 b M 8 1 1 { > | N u O + .         ",
"        . + w P o Q I E E ) 6 9 R K j 2 2 S T U / L + .         ",
"        . + n c o Q Q Q V _ W ' * X 0 1 b S > p K V + .         ",
"          . + Y Z ` ( F  .< 8 ..) ' & , l q f X / + .           ",
"          . + +.+.e e 4 & a / s 9 @.i % ' g h D 2 + .           ",
"            . + T 8 8 ( ..0 E t V p  .- 1 #.C v + .             ",
"              . + j j $.- v 1 t ( s - s M F j + .               ",
"                . + + %.&.*.=.*.=.=.*.&.-.+ + .                 ",
"                  . + ;.>.,.'.).!.~.{.].-.+ .                   ",
"                  . + ^./.(.(.(.(.(._.:.<.+ .                   ",
"                  . + [.}.(.(.(.(.(.|.1.2.+ .                   ",
"                  . + 3.4.(.(.(.(.(.5.6.2.+ .                   ",
"                  . + 7.4.(.(.(.(.8.}.3.<.+ .                   ",
"                  . + 3.{.(.(.(.(.9.0.;.a.+ .                   ",
"                  . + b.c.(.(.(.8.d.e.f.g.+ .                   ",
"                  . + b.c.(.(.(.h.i.j.k.l.+ .                   ",
"                  . + b.c.(.(.|.m.n.o.p.q.+ .                   ",
"                  . + n.c.r.5.s.n.t.u.v.w.+ .                   ",
"                  . + x.y.z.A.B.C.D.E.F.G.+ .                   ",
"                  . + H.I.I.J.K.L.F.F.M.G.+ .                   ",
"                    . + N.O.P.v.F.F.F.G.+ .                     ",
"                      . + + Q.R.R.R.+ + .                       ",
"                        . . + + + + . .                         "};
