/* XPM */
static const char * SideRightIdle_10_xpm[] = {
"32 32 179 2",
"  	c None",
". 	c #3A004B",
"+ 	c #270032",
"@ 	c #B7B7B7",
"# 	c #BEBEBE",
"$ 	c #E9E9E9",
"% 	c #F1F1F1",
"& 	c #E8E8E8",
"* 	c #C9C9C9",
"= 	c #AFAFAF",
"- 	c #CACACA",
"; 	c #A1A1A1",
"> 	c #C1C1C1",
", 	c #E4E4E4",
"' 	c #EEEEEE",
") 	c #F0F0F0",
"! 	c #ABABAB",
"~ 	c #B6B6B6",
"{ 	c #CBCBCB",
"] 	c #BFBFBF",
"^ 	c #CDCDCD",
"/ 	c #A8A8A8",
"( 	c #A3A3A3",
"_ 	c #B5B5B5",
": 	c #C2C2C2",
"< 	c #C6C6C6",
"[ 	c #C3C3C3",
"} 	c #B2B2B2",
"| 	c #A0A0A0",
"1 	c #ACACAC",
"2 	c #D5D5D5",
"3 	c #BABABA",
"4 	c #E6E6E6",
"5 	c #D6D6D6",
"6 	c #BBBBBB",
"7 	c #BCBCBC",
"8 	c #C7C7C7",
"9 	c #E7E7E7",
"0 	c #ECECEC",
"a 	c #D1D1D1",
"b 	c #B9B9B9",
"c 	c #E0E0E0",
"d 	c #F3F3F3",
"e 	c #EDEDED",
"f 	c #D4D4D4",
"g 	c #B0B0B0",
"h 	c #DBDBDB",
"i 	c #F2F2F2",
"j 	c #EAEAEA",
"k 	c #D0D0D0",
"l 	c #989797",
"m 	c #A6773C",
"n 	c #C4C4C4",
"o 	c #D8D8D8",
"p 	c #CECECE",
"q 	c #B4B4B4",
"r 	c #DFDFDF",
"s 	c #EBEBEB",
"t 	c #929292",
"u 	c #CF6BA5",
"v 	c #E8AECF",
"w 	c #9C3971",
"x 	c #D9D9D9",
"y 	c #BDBDBD",
"z 	c #E5E5E5",
"A 	c #E1E1E1",
"B 	c #D7D7D7",
"C 	c #B1B1B1",
"D 	c #979395",
"E 	c #9A3971",
"F 	c #DC85B7",
"G 	c #361B29",
"H 	c #C0C0C0",
"I 	c #E2E2E2",
"J 	c #B8B8B8",
"K 	c #AEAEAE",
"L 	c #A2A2A2",
"M 	c #B8B7B7",
"N 	c #B0ACAE",
"O 	c #CB5599",
"P 	c #120018",
"Q 	c #B3B3B3",
"R 	c #9E9E9E",
"S 	c #AAAAAA",
"T 	c #A6A6A6",
"U 	c #A09E9F",
"V 	c #AC5085",
"W 	c #A52A71",
"X 	c #A9A9A9",
"Y 	c #DCDCDC",
"Z 	c #E3E3E3",
"` 	c #B17F40",
" .	c #956931",
"..	c #CFCFCF",
"+.	c #A7A7A7",
"@.	c #A19FA0",
"#.	c #826978",
"$.	c #7D7178",
"%.	c #C5C5C5",
"&.	c #8F8F8F",
"*.	c #DEDEDE",
"=.	c #999999",
"-.	c #571416",
";.	c #62080A",
">.	c #700C0F",
",.	c #75171B",
"'.	c #611314",
").	c #6C0103",
"!.	c #83060A",
"~.	c #91090F",
"{.	c #970A11",
"].	c #980B12",
"^.	c #970B11",
"/.	c #940910",
"(.	c #82050A",
"_.	c #620002",
":.	c #4A0001",
"<.	c #750306",
"[.	c #960A11",
"}.	c #9F0D14",
"|.	c #86060B",
"1.	c #660103",
"2.	c #490000",
"3.	c #740306",
"4.	c #940A10",
"5.	c #85060B",
"6.	c #680003",
"7.	c #710205",
"8.	c #90080E",
"9.	c #84060A",
"0.	c #6A0003",
"a.	c #9E0C13",
"b.	c #6B0003",
"c.	c #480001",
"d.	c #7C0409",
"e.	c #9B0B12",
"f.	c #420203",
"g.	c #550405",
"h.	c #6E0104",
"i.	c #8A070C",
"j.	c #81060A",
"k.	c #690002",
"l.	c #3C0203",
"m.	c #4C0405",
"n.	c #660002",
"o.	c #750206",
"p.	c #92090F",
"q.	c #390001",
"r.	c #410506",
"s.	c #550608",
"t.	c #680002",
"u.	c #7A0408",
"v.	c #390102",
"w.	c #3D0102",
"x.	c #430708",
"y.	c #560507",
"z.	c #770306",
"A.	c #9D0C13",
"B.	c #3B0506",
"C.	c #3D0001",
"D.	c #3D0101",
"E.	c #410606",
"F.	c #540608",
"G.	c #650103",
"H.	c #6C0003",
"I.	c #7A0307",
"J.	c #740205",
"K.	c #600305",
"L.	c #3E0001",
"M.	c #3F0405",
"N.	c #4B0607",
"O.	c #5F0204",
"P.	c #670002",
"Q.	c #601012",
"R.	c #3F0506",
"S.	c #470607",
"T.	c #580405",
"U.	c #461516",
"V.	c #4B1D1E",
"                      . . . . . . . . . .                       ",
"                    . + + + + + + + + + + .                     ",
"                  . + @ # $ % & * = = = - + .                   ",
"                . + # ; > , ' % ) & * * ! ~ + .                 ",
"              . + { ] ^ / ( _ : < [ } | | 1 } + .               ",
"            . + 2 3 4 $ 5 6 ; 1 7 8 2 2 9 0 a b + .             ",
"          . + c @ 4 d e f g 3 h $ i d i j k 1 l m + .           ",
"        . + n n o i $ p ! q r % i ) s c { ~ t u v w + .         ",
"        . + x y $ , 8 1 @ x 4 z A B < 3 C D D E F G + .         ",
"        . + H o I ] ! } { { 7 J 3 7 K 1 L M N O O P + .         ",
"        . + K [ Q R S b b g L T 6 2 , x x N U V W G + .         ",
"        . + X L t ! S 3 { 5 Y $ ' Z : X U U U ` m  .+ .         ",
"          . + [ Y j s e ) % ' , ..7 ( +.y < @.#.$.+ .           ",
"          . + b z d i ' & h %.6 q [ 4 % 0 k k &.&.+ .           ",
"            . + n A *.{ @ +.t X p x 5 ..< 7 7 R + .             ",
"              . + g y J q @ q < p { n @ =.g g + .               ",
"                . + + -.;.>.,.,.>.,.>.;.'.+ + .                 ",
"                  . + -.).!.~.{.].^./.(._.+ .                   ",
"                  . + :.<.[.}.}.}.}.}.|.1.+ .                   ",
"                  . + 2.3.4.}.}.}.}.}.5.6.+ .                   ",
"                  . + 2.7.8.}.}.}.}.}.9.0.+ .                   ",
"                  . + :.0.5.a.}.}.}.}.9.b.+ .                   ",
"                  . + c._.d.e.}.}.}.}.!.0.+ .                   ",
"                  . + f.g.h.i.a.}.}.}.j.k.+ .                   ",
"                  . + l.m.n.o.p.}.}.}.j.k.+ .                   ",
"                  . + q.r.s.t.u.4.}.}.j.k.+ .                   ",
"                  . + v.w.x.y.t.z.8.A.j.t.+ .                   ",
"                  . + B.C.D.E.F.G.H.I.J.K.+ .                   ",
"                  . + B.L.C.C.M.N.O.P.P.Q.+ .                   ",
"                    . + B.C.C.C.w.R.S.T.+ .                     ",
"                      . + + U.U.U.V.+ + .                       ",
"                        . . + + + + . .                         "};
