/* XPM */
static const char * SideLeftIdle_06_xpm[] = {
"32 32 170 2",
"  	c None",
". 	c #3A004B",
"+ 	c #270032",
"@ 	c #CACACA",
"# 	c #AFAFAF",
"$ 	c #C9C9C9",
"% 	c #E8E8E8",
"& 	c #F1F1F1",
"* 	c #E9E9E9",
"= 	c #BEBEBE",
"- 	c #B7B7B7",
"; 	c #B6B6B6",
"> 	c #ABABAB",
", 	c #F0F0F0",
"' 	c #EEEEEE",
") 	c #E4E4E4",
"! 	c #C1C1C1",
"~ 	c #A1A1A1",
"{ 	c #B2B2B2",
"] 	c #ACACAC",
"^ 	c #A0A0A0",
"/ 	c #C3C3C3",
"( 	c #C6C6C6",
"_ 	c #C2C2C2",
": 	c #B5B5B5",
"< 	c #A3A3A3",
"[ 	c #A8A8A8",
"} 	c #CDCDCD",
"| 	c #BFBFBF",
"1 	c #CBCBCB",
"2 	c #B9B9B9",
"3 	c #D1D1D1",
"4 	c #ECECEC",
"5 	c #E7E7E7",
"6 	c #D5D5D5",
"7 	c #C7C7C7",
"8 	c #BCBCBC",
"9 	c #BBBBBB",
"0 	c #D6D6D6",
"a 	c #E6E6E6",
"b 	c #BABABA",
"c 	c #A6773C",
"d 	c #989797",
"e 	c #D0D0D0",
"f 	c #EAEAEA",
"g 	c #F2F2F2",
"h 	c #F3F3F3",
"i 	c #DBDBDB",
"j 	c #B0B0B0",
"k 	c #D4D4D4",
"l 	c #EDEDED",
"m 	c #E0E0E0",
"n 	c #956931",
"o 	c #B17F40",
"p 	c #929292",
"q 	c #EBEBEB",
"r 	c #DFDFDF",
"s 	c #B4B4B4",
"t 	c #CECECE",
"u 	c #D8D8D8",
"v 	c #C4C4C4",
"w 	c #8E642F",
"x 	c #979395",
"y 	c #B1B1B1",
"z 	c #D7D7D7",
"A 	c #E1E1E1",
"B 	c #E5E5E5",
"C 	c #D9D9D9",
"D 	c #BDBDBD",
"E 	c #B0ACAE",
"F 	c #B8B7B7",
"G 	c #A2A2A2",
"H 	c #AEAEAE",
"I 	c #B8B8B8",
"J 	c #E2E2E2",
"K 	c #C0C0C0",
"L 	c #A09E9F",
"M 	c #A6A6A6",
"N 	c #AAAAAA",
"O 	c #9E9E9E",
"P 	c #B3B3B3",
"Q 	c #A9A9A9",
"R 	c #E3E3E3",
"S 	c #DCDCDC",
"T 	c #7D7178",
"U 	c #826978",
"V 	c #A19FA0",
"W 	c #A7A7A7",
"X 	c #CFCFCF",
"Y 	c #8F8F8F",
"Z 	c #C5C5C5",
"` 	c #DEDEDE",
" .	c #999999",
"..	c #611314",
"+.	c #62080A",
"@.	c #700C0F",
"#.	c #75171B",
"$.	c #571416",
"%.	c #620002",
"&.	c #82050A",
"*.	c #940910",
"=.	c #970B11",
"-.	c #980B12",
";.	c #970A11",
">.	c #91090F",
",.	c #83060A",
"'.	c #6C0103",
").	c #660103",
"!.	c #86060B",
"~.	c #9F0D14",
"{.	c #960A11",
"].	c #750306",
"^.	c #4A0001",
"/.	c #680003",
"(.	c #85060B",
"_.	c #940A10",
":.	c #740306",
"<.	c #490000",
"[.	c #6A0003",
"}.	c #84060A",
"|.	c #90080E",
"1.	c #710205",
"2.	c #6B0003",
"3.	c #9E0C13",
"4.	c #9B0B12",
"5.	c #7C0409",
"6.	c #480001",
"7.	c #690002",
"8.	c #81060A",
"9.	c #8A070C",
"0.	c #6E0104",
"a.	c #550405",
"b.	c #420203",
"c.	c #92090F",
"d.	c #750206",
"e.	c #660002",
"f.	c #4C0405",
"g.	c #3C0203",
"h.	c #7A0408",
"i.	c #680002",
"j.	c #550608",
"k.	c #410506",
"l.	c #390001",
"m.	c #9D0C13",
"n.	c #770306",
"o.	c #560507",
"p.	c #430708",
"q.	c #3D0102",
"r.	c #390102",
"s.	c #600305",
"t.	c #740205",
"u.	c #7A0307",
"v.	c #6C0003",
"w.	c #650103",
"x.	c #540608",
"y.	c #410606",
"z.	c #3D0101",
"A.	c #3D0001",
"B.	c #3B0506",
"C.	c #601012",
"D.	c #670002",
"E.	c #5F0204",
"F.	c #4B0607",
"G.	c #3F0405",
"H.	c #3E0001",
"I.	c #580405",
"J.	c #470607",
"K.	c #3F0506",
"L.	c #4B1D1E",
"M.	c #461516",
"                      . . . . . . . . . .                       ",
"                    . + + + + + + + + + + .                     ",
"                  . + @ # # # $ % & * = - + .                   ",
"                . + ; > $ $ % , & ' ) ! ~ = + .                 ",
"              . + { ] ^ ^ { / ( _ : < [ } | 1 + .               ",
"            . + 2 3 4 5 6 6 7 8 ] ~ 9 0 * a b 6 + .             ",
"          . + c d ] e f g h g * i b j k l h a - m + .           ",
"        . + n o n p ; 1 m q , g & r s > t * g u v v + .         ",
"        . + w n o x x y b ( z A B a C - ] 7 ) * D C + .         ",
"        . + n w o E F G ] H 8 b I 8 1 1 { > | J u K + .         ",
"        . + w c o L E C C ) 6 9 M G j 2 2 N O P / H + .         ",
"        . + n o n L L L Q _ R ' * S 0 1 b N > p G Q + .         ",
"          . + T U V ( D W < 8 X ) ' & , l q f S / + .           ",
"          . + Y Y e e 4 & a / s 9 Z i % ' g h B 2 + .           ",
"            . + O 8 8 ( X 0 C t Q p W - 1 ` A v + .             ",
"              . + j j  .- v 1 t ( s - s I D j + .               ",
"                . + + ..+.@.#.@.#.#.@.+.$.+ + .                 ",
"                  . + %.&.*.=.-.;.>.,.'.$.+ .                   ",
"                  . + ).!.~.~.~.~.~.{.].^.+ .                   ",
"                  . + /.(.~.~.~.~.~._.:.<.+ .                   ",
"                  . + [.}.~.~.~.~.~.|.1.<.+ .                   ",
"                  . + 2.}.~.~.~.~.3.(.[.^.+ .                   ",
"                  . + [.,.~.~.~.~.4.5.%.6.+ .                   ",
"                  . + 7.8.~.~.~.3.9.0.a.b.+ .                   ",
"                  . + 7.8.~.~.~.c.d.e.f.g.+ .                   ",
"                  . + 7.8.~.~._.h.i.j.k.l.+ .                   ",
"                  . + i.8.m.|.n.i.o.p.q.r.+ .                   ",
"                  . + s.t.u.v.w.x.y.z.A.B.+ .                   ",
"                  . + C.D.D.E.F.G.A.A.H.B.+ .                   ",
"                    . + I.J.K.q.A.A.A.B.+ .                     ",
"                      . + + L.M.M.M.+ + .                       ",
"                        . . + + + + . .                         "};
