/* XPM */
static const char * SideRightIdle_07_xpm[] = {
"32 32 172 2",
"  	c None",
". 	c #3A004B",
"+ 	c #270032",
"@ 	c #B7B7B7",
"# 	c #BEBEBE",
"$ 	c #E9E9E9",
"% 	c #F1F1F1",
"& 	c #E8E8E8",
"* 	c #C9C9C9",
"= 	c #AFAFAF",
"- 	c #CACACA",
"; 	c #A1A1A1",
"> 	c #C1C1C1",
", 	c #E4E4E4",
"' 	c #EEEEEE",
") 	c #F0F0F0",
"! 	c #ABABAB",
"~ 	c #B6B6B6",
"{ 	c #CBCBCB",
"] 	c #BFBFBF",
"^ 	c #CDCDCD",
"/ 	c #A8A8A8",
"( 	c #A3A3A3",
"_ 	c #B5B5B5",
": 	c #C2C2C2",
"< 	c #C6C6C6",
"[ 	c #C3C3C3",
"} 	c #B2B2B2",
"| 	c #A0A0A0",
"1 	c #ACACAC",
"2 	c #D5D5D5",
"3 	c #BABABA",
"4 	c #E6E6E6",
"5 	c #D6D6D6",
"6 	c #BBBBBB",
"7 	c #BCBCBC",
"8 	c #C7C7C7",
"9 	c #E7E7E7",
"0 	c #ECECEC",
"a 	c #D1D1D1",
"b 	c #B9B9B9",
"c 	c #E0E0E0",
"d 	c #F3F3F3",
"e 	c #EDEDED",
"f 	c #D4D4D4",
"g 	c #B0B0B0",
"h 	c #DBDBDB",
"i 	c #F2F2F2",
"j 	c #EAEAEA",
"k 	c #D0D0D0",
"l 	c #989797",
"m 	c #A6773C",
"n 	c #C4C4C4",
"o 	c #D8D8D8",
"p 	c #CECECE",
"q 	c #B4B4B4",
"r 	c #DFDFDF",
"s 	c #EBEBEB",
"t 	c #929292",
"u 	c #956931",
"v 	c #B17F40",
"w 	c #D9D9D9",
"x 	c #BDBDBD",
"y 	c #E5E5E5",
"z 	c #E1E1E1",
"A 	c #D7D7D7",
"B 	c #B1B1B1",
"C 	c #979395",
"D 	c #8E642F",
"E 	c #C0C0C0",
"F 	c #E2E2E2",
"G 	c #B8B8B8",
"H 	c #AEAEAE",
"I 	c #A2A2A2",
"J 	c #B8B7B7",
"K 	c #B0ACAE",
"L 	c #CB5599",
"M 	c #120018",
"N 	c #B3B3B3",
"O 	c #9E9E9E",
"P 	c #AAAAAA",
"Q 	c #A6A6A6",
"R 	c #A09E9F",
"S 	c #A9A9A9",
"T 	c #DCDCDC",
"U 	c #E3E3E3",
"V 	c #CFCFCF",
"W 	c #A7A7A7",
"X 	c #A19FA0",
"Y 	c #826978",
"Z 	c #7D7178",
"` 	c #C5C5C5",
" .	c #8F8F8F",
"..	c #DEDEDE",
"+.	c #999999",
"@.	c #571416",
"#.	c #62080A",
"$.	c #700C0F",
"%.	c #75171B",
"&.	c #611314",
"*.	c #6C0103",
"=.	c #83060A",
"-.	c #91090F",
";.	c #970A11",
">.	c #980B12",
",.	c #970B11",
"'.	c #940910",
").	c #82050A",
"!.	c #620002",
"~.	c #4A0001",
"{.	c #750306",
"].	c #960A11",
"^.	c #9F0D14",
"/.	c #86060B",
"(.	c #660103",
"_.	c #490000",
":.	c #740306",
"<.	c #940A10",
"[.	c #85060B",
"}.	c #680003",
"|.	c #710205",
"1.	c #90080E",
"2.	c #84060A",
"3.	c #6A0003",
"4.	c #9E0C13",
"5.	c #6B0003",
"6.	c #480001",
"7.	c #7C0409",
"8.	c #9B0B12",
"9.	c #420203",
"0.	c #550405",
"a.	c #6E0104",
"b.	c #8A070C",
"c.	c #81060A",
"d.	c #690002",
"e.	c #3C0203",
"f.	c #4C0405",
"g.	c #660002",
"h.	c #750206",
"i.	c #92090F",
"j.	c #390001",
"k.	c #410506",
"l.	c #550608",
"m.	c #680002",
"n.	c #7A0408",
"o.	c #390102",
"p.	c #3D0102",
"q.	c #430708",
"r.	c #560507",
"s.	c #770306",
"t.	c #9D0C13",
"u.	c #3B0506",
"v.	c #3D0001",
"w.	c #3D0101",
"x.	c #410606",
"y.	c #540608",
"z.	c #650103",
"A.	c #6C0003",
"B.	c #7A0307",
"C.	c #740205",
"D.	c #600305",
"E.	c #3E0001",
"F.	c #3F0405",
"G.	c #4B0607",
"H.	c #5F0204",
"I.	c #670002",
"J.	c #601012",
"K.	c #3F0506",
"L.	c #470607",
"M.	c #580405",
"N.	c #461516",
"O.	c #4B1D1E",
"                      . . . . . . . . . .                       ",
"                    . + + + + + + + + + + .                     ",
"                  . + @ # $ % & * = = = - + .                   ",
"                . + # ; > , ' % ) & * * ! ~ + .                 ",
"              . + { ] ^ / ( _ : < [ } | | 1 } + .               ",
"            . + 2 3 4 $ 5 6 ; 1 7 8 2 2 9 0 a b + .             ",
"          . + c @ 4 d e f g 3 h $ i d i j k 1 l m + .           ",
"        . + n n o i $ p ! q r % i ) s c { ~ t u v u + .         ",
"        . + w x $ , 8 1 @ w 4 y z A < 3 B C C v u D + .         ",
"        . + E o F ] ! } { { 7 G 3 7 H 1 I J K v L M + .         ",
"        . + H [ N O P b b g I Q 6 2 , w w K R v m D + .         ",
"        . + S I t ! P 3 { 5 T $ ' U : S R R R u v u + .         ",
"          . + [ T j s e ) % ' , V 7 ( W x < X Y Z + .           ",
"          . + b y d i ' & h ` 6 q [ 4 % 0 k k  . .+ .           ",
"            . + n z ..{ @ W t S p w 5 V < 7 7 O + .             ",
"              . + g x G q @ q < p { n @ +.g g + .               ",
"                . + + @.#.$.%.%.$.%.$.#.&.+ + .                 ",
"                  . + @.*.=.-.;.>.,.'.).!.+ .                   ",
"                  . + ~.{.].^.^.^.^.^./.(.+ .                   ",
"                  . + _.:.<.^.^.^.^.^.[.}.+ .                   ",
"                  . + _.|.1.^.^.^.^.^.2.3.+ .                   ",
"                  . + ~.3.[.4.^.^.^.^.2.5.+ .                   ",
"                  . + 6.!.7.8.^.^.^.^.=.3.+ .                   ",
"                  . + 9.0.a.b.4.^.^.^.c.d.+ .                   ",
"                  . + e.f.g.h.i.^.^.^.c.d.+ .                   ",
"                  . + j.k.l.m.n.<.^.^.c.d.+ .                   ",
"                  . + o.p.q.r.m.s.1.t.c.m.+ .                   ",
"                  . + u.v.w.x.y.z.A.B.C.D.+ .                   ",
"                  . + u.E.v.v.F.G.H.I.I.J.+ .                   ",
"                    . + u.v.v.v.p.K.L.M.+ .                     ",
"                      . + + N.N.N.O.+ + .                       ",
"                        . . + + + + . .                         "};
