/* XPM */
static const char *SideRightAttack_02[] = {
/* columns rows colors chars-per-pixel */
"32 32 145 2 ",
"   c None",
".  c #120018",
"X  c #390001",
"o  c #390102",
"O  c #3D0001",
"+  c #3D0101",
"@  c #3E0001",
"#  c #3D0102",
"$  c #3C0203",
"%  c #3B0506",
"&  c #3F0405",
"*  c #361B29",
"=  c #270032",
"-  c #420203",
";  c #410506",
":  c #410606",
">  c #490000",
",  c #480001",
"<  c #4A0001",
"1  c #4B0607",
"2  c #4C0405",
"3  c #430708",
"4  c #550405",
"5  c #560507",
"6  c #540608",
"7  c #550608",
"8  c #461516",
"9  c #4B1D1E",
"0  c #571416",
"q  c #620002",
"w  c #660002",
"e  c #680002",
"r  c #6A0003",
"t  c #6C0103",
"y  c #6E0104",
"u  c #62080A",
"i  c #710205",
"p  c #750206",
"a  c #740306",
"s  c #750306",
"d  c #7A0408",
"f  c #700C0F",
"g  c #611314",
"h  c #75171B",
"j  c #3A004B",
"k  c #81060A",
"l  c #8A070C",
"z  c #92090F",
"x  c #940910",
"c  c #970A11",
"v  c #970B11",
"b  c #980B12",
"n  c #9F0D14",
"m  c #AA0000",
"M  c #BD0000",
"N  c #DB0000",
"B  c #F10000",
"V  c #FF2929",
"C  c #826978",
"Z  c #B07B7B",
"A  c gray56",
"S  c #929292",
"D  c #979395",
"F  c #989797",
"G  c gray60",
"H  c gray62",
"J  c #A09E9F",
"K  c #A19FA0",
"L  c #A0A0A0",
"P  c gray63",
"I  c #A2A2A2",
"U  c gray64",
"Y  c gray65",
"T  c #A7A7A7",
"R  c gray66",
"E  c #A9A9A9",
"W  c #AAAAAA",
"Q  c gray67",
"!  c #ACACAC",
"~  c #AEAEAE",
"^  c #AFAFAF",
"/  c #B0ACAE",
"(  c gray69",
")  c #B1B1B1",
"_  c #B2B2B2",
"`  c gray70",
"'  c #B5B2B2",
"]  c #B4B4B4",
"[  c gray71",
"{  c #B6B6B6",
"}  c #B7B7B7",
"|  c #B8B7B7",
" . c gray72",
".. c #B9B9B9",
"X. c gray73",
"o. c #BBBBBB",
"O. c #BCBCBC",
"+. c gray74",
"@. c gray",
"#. c gray75",
"$. c #C0C0C0",
"%. c #C1C1C1",
"&. c gray76",
"*. c #C3C3C3",
"=. c gray77",
"-. c #C5C5C5",
";. c #C6C6C6",
":. c gray78",
">. c gray79",
",. c #CACACA",
"<. c #CBCBCB",
"1. c #CDCDCD",
"2. c #CECECE",
"3. c gray81",
"4. c #D0D0D0",
"5. c gray82",
"6. c gray83",
"7. c #D5D5D5",
"8. c gray84",
"9. c #D7D7D7",
"0. c #D8D8D8",
"q. c gray85",
"w. c gray86",
"e. c gainsboro",
"r. c gray87",
"t. c #DFDFDF",
"y. c gray88",
"u. c #E1E1E1",
"i. c #E2E2E2",
"p. c gray89",
"a. c #E4E4E4",
"s. c gray90",
"d. c #E6E6E6",
"f. c #E7E7E7",
"g. c gray91",
"h. c #E9E9E9",
"j. c #EAEAEA",
"k. c gray92",
"l. c #ECECEC",
"z. c gray93",
"x. c #EEEEEE",
"c. c gray94",
"v. c #F1F1F1",
"b. c gray95",
"n. c #F3F3F3",
/* pixels */
"                      j j j j j j j j j j                       ",
"                    j = = = = = = = = = = j                     ",
"                  j = } @.h.v.g.>.^ ^ ^ ,.= j                   ",
"                j = @.P %.a.x.v.c.g.>.>.Q { = j                 ",
"              j = <.#.1.R U [ &.;.*._ L L ! _ = j               ",
"            j = 7.X.d.h.8.o.P ! O.:.7.7.f.l.5...= j             ",
"          j = y.} d.n.z.6.( X.w.h.b.n.b.j.4.! F N = j           ",
"        j = =.=.0.b.h.2.Q ] t.v.b.c.k.y.<.{ S N B N = j         ",
"        j = q.+.h.a.:.! } q.d.s.u.9.;.X.) D D B V * = j         ",
"        j = $.0.i.#.Q _ <.<.O. .X.O.~ ! I | / B N . = j         ",
"        j = ~ *.` H W ....( I Y o.7.a.q.q./ J N M * = j         ",
"        j = E I S Q W X.<.8.e.h.x.p.&.E J J J M m m = j         ",
"          j = *.e.j.k.z.c.v.x.a.3.O.U T +.;.K C Z = j           ",
"          j = ..s.n.b.x.g.w.-.o.] *.d.v.l.4.4.A A = j           ",
"            j = =.u.r.<.} T S E 2.q.8.3.;.O.O.H = j             ",
"              j = ( +. .] } ] ;.2.<.=.} G ( ( = j               ",
"                j = = ' T T } ] G G G G A = = j                 ",
"                  j = 0 u f h h f h f u g q q = j               ",
"                  j = 0 t s l c b v x k k k q = j               ",
"                  j = < s s l n n n n x x k q = j               ",
"                  j = > a s l n n n n n z d q = j               ",
"                  j = > i s l n n n n n z d q = j               ",
"                  j = < r s l n n n n z d e q = j               ",
"                  j = , q s l l n n z d e 6 q = j               ",
"                  j = - 4 y s l l l d e 6 1 = j                 ",
"                  j = $ 2 w p s s d e 6 6 1 = j                 ",
"                  j = X ; 7 e d d d e 6 1 % = j                 ",
"                  j = o # 3 5 e e e e 6 1 % = j                 ",
"                  j = % O + : 1 6 6 6 1 % % = j                 ",
"                  j = % @ O O & 1 1 1 % % = j                   ",
"                    j = % O O O # % % % = j                     ",
"                      j = = 8 8 8 9 = = j                       "
};
