/* XPM */
static const char * SideRightIdle_05_xpm[] = {
"32 32 171 2",
"  	c None",
". 	c #3A004B",
"+ 	c #270032",
"@ 	c #B7B7B7",
"# 	c #BEBEBE",
"$ 	c #E9E9E9",
"% 	c #F1F1F1",
"& 	c #E8E8E8",
"* 	c #C9C9C9",
"= 	c #AFAFAF",
"- 	c #CACACA",
"; 	c #A1A1A1",
"> 	c #C1C1C1",
", 	c #E4E4E4",
"' 	c #EEEEEE",
") 	c #F0F0F0",
"! 	c #ABABAB",
"~ 	c #B6B6B6",
"{ 	c #CBCBCB",
"] 	c #BFBFBF",
"^ 	c #CDCDCD",
"/ 	c #A8A8A8",
"( 	c #A3A3A3",
"_ 	c #B5B5B5",
": 	c #C2C2C2",
"< 	c #C6C6C6",
"[ 	c #C3C3C3",
"} 	c #B2B2B2",
"| 	c #A0A0A0",
"1 	c #ACACAC",
"2 	c #D5D5D5",
"3 	c #BABABA",
"4 	c #E6E6E6",
"5 	c #D6D6D6",
"6 	c #BBBBBB",
"7 	c #BCBCBC",
"8 	c #C7C7C7",
"9 	c #E7E7E7",
"0 	c #ECECEC",
"a 	c #D1D1D1",
"b 	c #B9B9B9",
"c 	c #E0E0E0",
"d 	c #F3F3F3",
"e 	c #EDEDED",
"f 	c #D4D4D4",
"g 	c #B0B0B0",
"h 	c #DBDBDB",
"i 	c #F2F2F2",
"j 	c #EAEAEA",
"k 	c #D0D0D0",
"l 	c #989797",
"m 	c #A6773C",
"n 	c #C4C4C4",
"o 	c #D8D8D8",
"p 	c #CECECE",
"q 	c #B4B4B4",
"r 	c #DFDFDF",
"s 	c #EBEBEB",
"t 	c #929292",
"u 	c #956931",
"v 	c #B17F40",
"w 	c #D9D9D9",
"x 	c #BDBDBD",
"y 	c #E5E5E5",
"z 	c #E1E1E1",
"A 	c #D7D7D7",
"B 	c #B1B1B1",
"C 	c #979395",
"D 	c #8E642F",
"E 	c #C0C0C0",
"F 	c #E2E2E2",
"G 	c #B8B8B8",
"H 	c #AEAEAE",
"I 	c #A2A2A2",
"J 	c #B8B7B7",
"K 	c #B0ACAE",
"L 	c #B3B3B3",
"M 	c #9E9E9E",
"N 	c #AAAAAA",
"O 	c #A6A6A6",
"P 	c #A09E9F",
"Q 	c #A9A9A9",
"R 	c #DCDCDC",
"S 	c #E3E3E3",
"T 	c #CFCFCF",
"U 	c #A7A7A7",
"V 	c #A19FA0",
"W 	c #826978",
"X 	c #7D7178",
"Y 	c #C5C5C5",
"Z 	c #8F8F8F",
"` 	c #DEDEDE",
" .	c #999999",
"..	c #B5B2B2",
"+.	c #571416",
"@.	c #62080A",
"#.	c #700C0F",
"$.	c #75171B",
"%.	c #611314",
"&.	c #6C0103",
"*.	c #83060A",
"=.	c #91090F",
"-.	c #970A11",
";.	c #980B12",
">.	c #970B11",
",.	c #940910",
"'.	c #82050A",
").	c #620002",
"!.	c #4A0001",
"~.	c #750306",
"{.	c #960A11",
"].	c #9F0D14",
"^.	c #86060B",
"/.	c #660103",
"(.	c #490000",
"_.	c #740306",
":.	c #940A10",
"<.	c #85060B",
"[.	c #680003",
"}.	c #710205",
"|.	c #90080E",
"1.	c #84060A",
"2.	c #6A0003",
"3.	c #9E0C13",
"4.	c #6B0003",
"5.	c #480001",
"6.	c #7C0409",
"7.	c #9B0B12",
"8.	c #420203",
"9.	c #550405",
"0.	c #6E0104",
"a.	c #8A070C",
"b.	c #81060A",
"c.	c #690002",
"d.	c #3C0203",
"e.	c #4C0405",
"f.	c #660002",
"g.	c #750206",
"h.	c #92090F",
"i.	c #390001",
"j.	c #410506",
"k.	c #550608",
"l.	c #680002",
"m.	c #7A0408",
"n.	c #390102",
"o.	c #3D0102",
"p.	c #430708",
"q.	c #560507",
"r.	c #770306",
"s.	c #9D0C13",
"t.	c #3B0506",
"u.	c #3D0001",
"v.	c #3D0101",
"w.	c #410606",
"x.	c #540608",
"y.	c #650103",
"z.	c #6C0003",
"A.	c #7A0307",
"B.	c #740205",
"C.	c #600305",
"D.	c #3E0001",
"E.	c #3F0405",
"F.	c #4B0607",
"G.	c #5F0204",
"H.	c #670002",
"I.	c #601012",
"J.	c #3F0506",
"K.	c #470607",
"L.	c #580405",
"M.	c #461516",
"N.	c #4B1D1E",
"                      . . . . . . . . . .                       ",
"                    . + + + + + + + + + + .                     ",
"                  . + @ # $ % & * = = = - + .                   ",
"                . + # ; > , ' % ) & * * ! ~ + .                 ",
"              . + { ] ^ / ( _ : < [ } | | 1 } + .               ",
"            . + 2 3 4 $ 5 6 ; 1 7 8 2 2 9 0 a b + .             ",
"          . + c @ 4 d e f g 3 h $ i d i j k 1 l m + .           ",
"        . + n n o i $ p ! q r % i ) s c { ~ t u v u + .         ",
"        . + w x $ , 8 1 @ w 4 y z A < 3 B C C v u D + .         ",
"        . + E o F ] ! } { { 7 G 3 7 H 1 I J K v D u + .         ",
"        . + H [ L M N b b g I O 6 2 , w w K P v m D + .         ",
"        . + Q I t ! N 3 { 5 R $ ' S : Q P P P u v u + .         ",
"          . + [ R j s e ) % ' , T 7 ( U x < V W X + .           ",
"          . + b y d i ' & h Y 6 q [ 4 % 0 k k Z Z + .           ",
"            . + n z ` { @ U t Q p w 5 T < 7 7 M + .             ",
"              . + g x G q @ q < p { n @  .g g + .               ",
"                . + + ..U U @ q  . . . .Z + + .                 ",
"                  . + +.@.#.$.$.#.$.#.@.%.+ .                   ",
"                  . + +.&.*.=.-.;.>.,.'.).+ .                   ",
"                  . + !.~.{.].].].].].^./.+ .                   ",
"                  . + (._.:.].].].].].<.[.+ .                   ",
"                  . + (.}.|.].].].].].1.2.+ .                   ",
"                  . + !.2.<.3.].].].].1.4.+ .                   ",
"                  . + 5.).6.7.].].].].*.2.+ .                   ",
"                  . + 8.9.0.a.3.].].].b.c.+ .                   ",
"                  . + d.e.f.g.h.].].].b.c.+ .                   ",
"                  . + i.j.k.l.m.:.].].b.c.+ .                   ",
"                  . + n.o.p.q.l.r.|.s.b.l.+ .                   ",
"                  . + t.u.v.w.x.y.z.A.B.C.+ .                   ",
"                  . + t.D.u.u.E.F.G.H.H.I.+ .                   ",
"                    . + t.u.u.u.o.J.K.L.+ .                     ",
"                      . + + M.M.M.N.+ + .                       "};
