/* XPM */
static const char * SideLeftIdle_08_xpm[] = {
"32 32 172 2",
"  	c None",
". 	c #3A004B",
"+ 	c #270032",
"@ 	c #CACACA",
"# 	c #AFAFAF",
"$ 	c #C9C9C9",
"% 	c #E8E8E8",
"& 	c #F1F1F1",
"* 	c #E9E9E9",
"= 	c #BEBEBE",
"- 	c #B7B7B7",
"; 	c #B6B6B6",
"> 	c #ABABAB",
", 	c #F0F0F0",
"' 	c #EEEEEE",
") 	c #E4E4E4",
"! 	c #C1C1C1",
"~ 	c #A1A1A1",
"{ 	c #B2B2B2",
"] 	c #ACACAC",
"^ 	c #A0A0A0",
"/ 	c #C3C3C3",
"( 	c #C6C6C6",
"_ 	c #C2C2C2",
": 	c #B5B5B5",
"< 	c #A3A3A3",
"[ 	c #A8A8A8",
"} 	c #CDCDCD",
"| 	c #BFBFBF",
"1 	c #CBCBCB",
"2 	c #B9B9B9",
"3 	c #D1D1D1",
"4 	c #ECECEC",
"5 	c #E7E7E7",
"6 	c #D5D5D5",
"7 	c #C7C7C7",
"8 	c #BCBCBC",
"9 	c #BBBBBB",
"0 	c #D6D6D6",
"a 	c #E6E6E6",
"b 	c #BABABA",
"c 	c #A6773C",
"d 	c #989797",
"e 	c #D0D0D0",
"f 	c #EAEAEA",
"g 	c #F2F2F2",
"h 	c #F3F3F3",
"i 	c #DBDBDB",
"j 	c #B0B0B0",
"k 	c #D4D4D4",
"l 	c #EDEDED",
"m 	c #E0E0E0",
"n 	c #956931",
"o 	c #B17F40",
"p 	c #929292",
"q 	c #EBEBEB",
"r 	c #DFDFDF",
"s 	c #B4B4B4",
"t 	c #CECECE",
"u 	c #D8D8D8",
"v 	c #C4C4C4",
"w 	c #361B29",
"x 	c #979395",
"y 	c #B1B1B1",
"z 	c #D7D7D7",
"A 	c #E1E1E1",
"B 	c #E5E5E5",
"C 	c #D9D9D9",
"D 	c #BDBDBD",
"E 	c #120018",
"F 	c #CB5599",
"G 	c #B0ACAE",
"H 	c #B8B7B7",
"I 	c #A2A2A2",
"J 	c #AEAEAE",
"K 	c #B8B8B8",
"L 	c #E2E2E2",
"M 	c #C0C0C0",
"N 	c #A09E9F",
"O 	c #A6A6A6",
"P 	c #AAAAAA",
"Q 	c #9E9E9E",
"R 	c #B3B3B3",
"S 	c #A9A9A9",
"T 	c #E3E3E3",
"U 	c #DCDCDC",
"V 	c #7D7178",
"W 	c #826978",
"X 	c #A19FA0",
"Y 	c #A7A7A7",
"Z 	c #CFCFCF",
"` 	c #8F8F8F",
" .	c #C5C5C5",
"..	c #DEDEDE",
"+.	c #999999",
"@.	c #611314",
"#.	c #62080A",
"$.	c #700C0F",
"%.	c #75171B",
"&.	c #571416",
"*.	c #620002",
"=.	c #82050A",
"-.	c #940910",
";.	c #970B11",
">.	c #980B12",
",.	c #970A11",
"'.	c #91090F",
").	c #83060A",
"!.	c #6C0103",
"~.	c #660103",
"{.	c #86060B",
"].	c #9F0D14",
"^.	c #960A11",
"/.	c #750306",
"(.	c #4A0001",
"_.	c #680003",
":.	c #85060B",
"<.	c #940A10",
"[.	c #740306",
"}.	c #490000",
"|.	c #6A0003",
"1.	c #84060A",
"2.	c #90080E",
"3.	c #710205",
"4.	c #6B0003",
"5.	c #9E0C13",
"6.	c #9B0B12",
"7.	c #7C0409",
"8.	c #480001",
"9.	c #690002",
"0.	c #81060A",
"a.	c #8A070C",
"b.	c #6E0104",
"c.	c #550405",
"d.	c #420203",
"e.	c #92090F",
"f.	c #750206",
"g.	c #660002",
"h.	c #4C0405",
"i.	c #3C0203",
"j.	c #7A0408",
"k.	c #680002",
"l.	c #550608",
"m.	c #410506",
"n.	c #390001",
"o.	c #9D0C13",
"p.	c #770306",
"q.	c #560507",
"r.	c #430708",
"s.	c #3D0102",
"t.	c #390102",
"u.	c #600305",
"v.	c #740205",
"w.	c #7A0307",
"x.	c #6C0003",
"y.	c #650103",
"z.	c #540608",
"A.	c #410606",
"B.	c #3D0101",
"C.	c #3D0001",
"D.	c #3B0506",
"E.	c #601012",
"F.	c #670002",
"G.	c #5F0204",
"H.	c #4B0607",
"I.	c #3F0405",
"J.	c #3E0001",
"K.	c #580405",
"L.	c #470607",
"M.	c #3F0506",
"N.	c #4B1D1E",
"O.	c #461516",
"                      . . . . . . . . . .                       ",
"                    . + + + + + + + + + + .                     ",
"                  . + @ # # # $ % & * = - + .                   ",
"                . + ; > $ $ % , & ' ) ! ~ = + .                 ",
"              . + { ] ^ ^ { / ( _ : < [ } | 1 + .               ",
"            . + 2 3 4 5 6 6 7 8 ] ~ 9 0 * a b 6 + .             ",
"          . + c d ] e f g h g * i b j k l h a - m + .           ",
"        . + n o o p ; 1 m q , g & r s > t * g u v v + .         ",
"        . + w o o x x y b ( z A B a C - ] 7 ) * D C + .         ",
"        . + E F o G H I ] J 8 b K 8 1 1 { > | L u M + .         ",
"        . + w c o N G C C ) 6 9 O I j 2 2 P Q R / J + .         ",
"        . + n o o N N N S _ T ' * U 0 1 b P > p I S + .         ",
"          . + V W X ( D Y < 8 Z ) ' & , l q f U / + .           ",
"          . + ` ` e e 4 & a / s 9  .i % ' g h B 2 + .           ",
"            . + Q 8 8 ( Z 0 C t S p Y - 1 ..A v + .             ",
"              . + j j +.- v 1 t ( s - s K D j + .               ",
"                . + + @.#.$.%.$.%.%.$.#.&.+ + .                 ",
"                  . + *.=.-.;.>.,.'.).!.&.+ .                   ",
"                  . + ~.{.].].].].].^./.(.+ .                   ",
"                  . + _.:.].].].].].<.[.}.+ .                   ",
"                  . + |.1.].].].].].2.3.}.+ .                   ",
"                  . + 4.1.].].].].5.:.|.(.+ .                   ",
"                  . + |.).].].].].6.7.*.8.+ .                   ",
"                  . + 9.0.].].].5.a.b.c.d.+ .                   ",
"                  . + 9.0.].].].e.f.g.h.i.+ .                   ",
"                  . + 9.0.].].<.j.k.l.m.n.+ .                   ",
"                  . + k.0.o.2.p.k.q.r.s.t.+ .                   ",
"                  . + u.v.w.x.y.z.A.B.C.D.+ .                   ",
"                  . + E.F.F.G.H.I.C.C.J.D.+ .                   ",
"                    . + K.L.M.s.C.C.C.D.+ .                     ",
"                      . + + N.O.O.O.+ + .                       ",
"                        . . + + + + . .                         "};
