/* XPM */
static const char * SideLeftIdle_10_xpm[] = {
"32 32 179 2",
"  	c None",
". 	c #3A004B",
"+ 	c #270032",
"@ 	c #CACACA",
"# 	c #AFAFAF",
"$ 	c #C9C9C9",
"% 	c #E8E8E8",
"& 	c #F1F1F1",
"* 	c #E9E9E9",
"= 	c #BEBEBE",
"- 	c #B7B7B7",
"; 	c #B6B6B6",
"> 	c #ABABAB",
", 	c #F0F0F0",
"' 	c #EEEEEE",
") 	c #E4E4E4",
"! 	c #C1C1C1",
"~ 	c #A1A1A1",
"{ 	c #B2B2B2",
"] 	c #ACACAC",
"^ 	c #A0A0A0",
"/ 	c #C3C3C3",
"( 	c #C6C6C6",
"_ 	c #C2C2C2",
": 	c #B5B5B5",
"< 	c #A3A3A3",
"[ 	c #A8A8A8",
"} 	c #CDCDCD",
"| 	c #BFBFBF",
"1 	c #CBCBCB",
"2 	c #B9B9B9",
"3 	c #D1D1D1",
"4 	c #ECECEC",
"5 	c #E7E7E7",
"6 	c #D5D5D5",
"7 	c #C7C7C7",
"8 	c #BCBCBC",
"9 	c #BBBBBB",
"0 	c #D6D6D6",
"a 	c #E6E6E6",
"b 	c #BABABA",
"c 	c #A6773C",
"d 	c #989797",
"e 	c #D0D0D0",
"f 	c #EAEAEA",
"g 	c #F2F2F2",
"h 	c #F3F3F3",
"i 	c #DBDBDB",
"j 	c #B0B0B0",
"k 	c #D4D4D4",
"l 	c #EDEDED",
"m 	c #E0E0E0",
"n 	c #9C3971",
"o 	c #E8AECF",
"p 	c #CF6BA5",
"q 	c #929292",
"r 	c #EBEBEB",
"s 	c #DFDFDF",
"t 	c #B4B4B4",
"u 	c #CECECE",
"v 	c #D8D8D8",
"w 	c #C4C4C4",
"x 	c #361B29",
"y 	c #DC85B7",
"z 	c #9A3971",
"A 	c #979395",
"B 	c #B1B1B1",
"C 	c #D7D7D7",
"D 	c #E1E1E1",
"E 	c #E5E5E5",
"F 	c #D9D9D9",
"G 	c #BDBDBD",
"H 	c #120018",
"I 	c #CB5599",
"J 	c #B0ACAE",
"K 	c #B8B7B7",
"L 	c #A2A2A2",
"M 	c #AEAEAE",
"N 	c #B8B8B8",
"O 	c #E2E2E2",
"P 	c #C0C0C0",
"Q 	c #A52A71",
"R 	c #AC5085",
"S 	c #A09E9F",
"T 	c #A6A6A6",
"U 	c #AAAAAA",
"V 	c #9E9E9E",
"W 	c #B3B3B3",
"X 	c #956931",
"Y 	c #B17F40",
"Z 	c #A9A9A9",
"` 	c #E3E3E3",
" .	c #DCDCDC",
"..	c #7D7178",
"+.	c #826978",
"@.	c #A19FA0",
"#.	c #A7A7A7",
"$.	c #CFCFCF",
"%.	c #8F8F8F",
"&.	c #C5C5C5",
"*.	c #DEDEDE",
"=.	c #999999",
"-.	c #611314",
";.	c #62080A",
">.	c #700C0F",
",.	c #75171B",
"'.	c #571416",
").	c #620002",
"!.	c #82050A",
"~.	c #940910",
"{.	c #970B11",
"].	c #980B12",
"^.	c #970A11",
"/.	c #91090F",
"(.	c #83060A",
"_.	c #6C0103",
":.	c #660103",
"<.	c #86060B",
"[.	c #9F0D14",
"}.	c #960A11",
"|.	c #750306",
"1.	c #4A0001",
"2.	c #680003",
"3.	c #85060B",
"4.	c #940A10",
"5.	c #740306",
"6.	c #490000",
"7.	c #6A0003",
"8.	c #84060A",
"9.	c #90080E",
"0.	c #710205",
"a.	c #6B0003",
"b.	c #9E0C13",
"c.	c #9B0B12",
"d.	c #7C0409",
"e.	c #480001",
"f.	c #690002",
"g.	c #81060A",
"h.	c #8A070C",
"i.	c #6E0104",
"j.	c #550405",
"k.	c #420203",
"l.	c #92090F",
"m.	c #750206",
"n.	c #660002",
"o.	c #4C0405",
"p.	c #3C0203",
"q.	c #7A0408",
"r.	c #680002",
"s.	c #550608",
"t.	c #410506",
"u.	c #390001",
"v.	c #9D0C13",
"w.	c #770306",
"x.	c #560507",
"y.	c #430708",
"z.	c #3D0102",
"A.	c #390102",
"B.	c #600305",
"C.	c #740205",
"D.	c #7A0307",
"E.	c #6C0003",
"F.	c #650103",
"G.	c #540608",
"H.	c #410606",
"I.	c #3D0101",
"J.	c #3D0001",
"K.	c #3B0506",
"L.	c #601012",
"M.	c #670002",
"N.	c #5F0204",
"O.	c #4B0607",
"P.	c #3F0405",
"Q.	c #3E0001",
"R.	c #580405",
"S.	c #470607",
"T.	c #3F0506",
"U.	c #4B1D1E",
"V.	c #461516",
"                      . . . . . . . . . .                       ",
"                    . + + + + + + + + + + .                     ",
"                  . + @ # # # $ % & * = - + .                   ",
"                . + ; > $ $ % , & ' ) ! ~ = + .                 ",
"              . + { ] ^ ^ { / ( _ : < [ } | 1 + .               ",
"            . + 2 3 4 5 6 6 7 8 ] ~ 9 0 * a b 6 + .             ",
"          . + c d ] e f g h g * i b j k l h a - m + .           ",
"        . + n o p q ; 1 m r , g & s t > u * g v w w + .         ",
"        . + x y z A A B b ( C D E a F - ] 7 ) * G F + .         ",
"        . + H I I J K L ] M 8 b N 8 1 1 { > | O v P + .         ",
"        . + x Q R S J F F ) 6 9 T L j 2 2 U V W / M + .         ",
"        . + X c Y S S S Z _ ` ' *  .0 1 b U > q L Z + .         ",
"          . + ..+.@.( G #.< 8 $.) ' & , l r f  ./ + .           ",
"          . + %.%.e e 4 & a / t 9 &.i % ' g h E 2 + .           ",
"            . + V 8 8 ( $.0 F u Z q #.- 1 *.D w + .             ",
"              . + j j =.- w 1 u ( t - t N G j + .               ",
"                . + + -.;.>.,.>.,.,.>.;.'.+ + .                 ",
"                  . + ).!.~.{.].^./.(._.'.+ .                   ",
"                  . + :.<.[.[.[.[.[.}.|.1.+ .                   ",
"                  . + 2.3.[.[.[.[.[.4.5.6.+ .                   ",
"                  . + 7.8.[.[.[.[.[.9.0.6.+ .                   ",
"                  . + a.8.[.[.[.[.b.3.7.1.+ .                   ",
"                  . + 7.(.[.[.[.[.c.d.).e.+ .                   ",
"                  . + f.g.[.[.[.b.h.i.j.k.+ .                   ",
"                  . + f.g.[.[.[.l.m.n.o.p.+ .                   ",
"                  . + f.g.[.[.4.q.r.s.t.u.+ .                   ",
"                  . + r.g.v.9.w.r.x.y.z.A.+ .                   ",
"                  . + B.C.D.E.F.G.H.I.J.K.+ .                   ",
"                  . + L.M.M.N.O.P.J.J.Q.K.+ .                   ",
"                    . + R.S.T.z.J.J.J.K.+ .                     ",
"                      . + + U.V.V.V.+ + .                       ",
"                        . . + + + + . .                         "};
