/* XPM */
static const char * SideLeftIdle_02_xpm[] = {
"32 32 176 2",
"  	c None",
". 	c #3A004B",
"+ 	c #270032",
"@ 	c #CACACA",
"# 	c #AFAFAF",
"$ 	c #C9C9C9",
"% 	c #E8E8E8",
"& 	c #F1F1F1",
"* 	c #E9E9E9",
"= 	c #BEBEBE",
"- 	c #B7B7B7",
"; 	c #B6B6B6",
"> 	c #ABABAB",
", 	c #F0F0F0",
"' 	c #EEEEEE",
") 	c #E4E4E4",
"! 	c #C1C1C1",
"~ 	c #A1A1A1",
"{ 	c #B2B2B2",
"] 	c #ACACAC",
"^ 	c #A0A0A0",
"/ 	c #C3C3C3",
"( 	c #C6C6C6",
"_ 	c #C2C2C2",
": 	c #B5B5B5",
"< 	c #A3A3A3",
"[ 	c #A8A8A8",
"} 	c #CDCDCD",
"| 	c #BFBFBF",
"1 	c #CBCBCB",
"2 	c #B9B9B9",
"3 	c #D1D1D1",
"4 	c #ECECEC",
"5 	c #E7E7E7",
"6 	c #D5D5D5",
"7 	c #C7C7C7",
"8 	c #BCBCBC",
"9 	c #BBBBBB",
"0 	c #D6D6D6",
"a 	c #E6E6E6",
"b 	c #BABABA",
"c 	c #A6773C",
"d 	c #989797",
"e 	c #D0D0D0",
"f 	c #EAEAEA",
"g 	c #F2F2F2",
"h 	c #F3F3F3",
"i 	c #DBDBDB",
"j 	c #B0B0B0",
"k 	c #D4D4D4",
"l 	c #EDEDED",
"m 	c #E0E0E0",
"n 	c #956931",
"o 	c #B17F40",
"p 	c #929292",
"q 	c #EBEBEB",
"r 	c #DFDFDF",
"s 	c #B4B4B4",
"t 	c #CECECE",
"u 	c #D8D8D8",
"v 	c #C4C4C4",
"w 	c #361B29",
"x 	c #DC85B7",
"y 	c #9A3971",
"z 	c #979395",
"A 	c #B1B1B1",
"B 	c #D7D7D7",
"C 	c #E1E1E1",
"D 	c #E5E5E5",
"E 	c #D9D9D9",
"F 	c #BDBDBD",
"G 	c #120018",
"H 	c #CB5599",
"I 	c #B0ACAE",
"J 	c #B8B7B7",
"K 	c #A2A2A2",
"L 	c #AEAEAE",
"M 	c #B8B8B8",
"N 	c #E2E2E2",
"O 	c #C0C0C0",
"P 	c #A52A71",
"Q 	c #A09E9F",
"R 	c #A6A6A6",
"S 	c #AAAAAA",
"T 	c #9E9E9E",
"U 	c #B3B3B3",
"V 	c #A9A9A9",
"W 	c #E3E3E3",
"X 	c #DCDCDC",
"Y 	c #7D7178",
"Z 	c #826978",
"` 	c #A19FA0",
" .	c #A7A7A7",
"..	c #CFCFCF",
"+.	c #8F8F8F",
"@.	c #C5C5C5",
"#.	c #DEDEDE",
"$.	c #999999",
"%.	c #B5B2B2",
"&.	c #611314",
"*.	c #62080A",
"=.	c #700C0F",
"-.	c #75171B",
";.	c #571416",
">.	c #620002",
",.	c #82050A",
"'.	c #940910",
").	c #970B11",
"!.	c #980B12",
"~.	c #970A11",
"{.	c #91090F",
"].	c #83060A",
"^.	c #6C0103",
"/.	c #660103",
"(.	c #86060B",
"_.	c #9F0D14",
":.	c #960A11",
"<.	c #750306",
"[.	c #4A0001",
"}.	c #680003",
"|.	c #85060B",
"1.	c #940A10",
"2.	c #740306",
"3.	c #490000",
"4.	c #6A0003",
"5.	c #84060A",
"6.	c #90080E",
"7.	c #710205",
"8.	c #6B0003",
"9.	c #9E0C13",
"0.	c #9B0B12",
"a.	c #7C0409",
"b.	c #480001",
"c.	c #690002",
"d.	c #81060A",
"e.	c #8A070C",
"f.	c #6E0104",
"g.	c #550405",
"h.	c #420203",
"i.	c #92090F",
"j.	c #750206",
"k.	c #660002",
"l.	c #4C0405",
"m.	c #3C0203",
"n.	c #7A0408",
"o.	c #680002",
"p.	c #550608",
"q.	c #410506",
"r.	c #390001",
"s.	c #9D0C13",
"t.	c #770306",
"u.	c #560507",
"v.	c #430708",
"w.	c #3D0102",
"x.	c #390102",
"y.	c #600305",
"z.	c #740205",
"A.	c #7A0307",
"B.	c #6C0003",
"C.	c #650103",
"D.	c #540608",
"E.	c #410606",
"F.	c #3D0101",
"G.	c #3D0001",
"H.	c #3B0506",
"I.	c #601012",
"J.	c #670002",
"K.	c #5F0204",
"L.	c #4B0607",
"M.	c #3F0405",
"N.	c #3E0001",
"O.	c #580405",
"P.	c #470607",
"Q.	c #3F0506",
"R.	c #4B1D1E",
"S.	c #461516",
"                      . . . . . . . . . .                       ",
"                    . + + + + + + + + + + .                     ",
"                  . + @ # # # $ % & * = - + .                   ",
"                . + ; > $ $ % , & ' ) ! ~ = + .                 ",
"              . + { ] ^ ^ { / ( _ : < [ } | 1 + .               ",
"            . + 2 3 4 5 6 6 7 8 ] ~ 9 0 * a b 6 + .             ",
"          . + c d ] e f g h g * i b j k l h a - m + .           ",
"        . + n o o p ; 1 m q , g & r s > t * g u v v + .         ",
"        . + w x y z z A b ( B C D a E - ] 7 ) * F E + .         ",
"        . + G H H I J K ] L 8 b M 8 1 1 { > | N u O + .         ",
"        . + w P o Q I E E ) 6 9 R K j 2 2 S T U / L + .         ",
"        . + n c o Q Q Q V _ W ' * X 0 1 b S > p K V + .         ",
"          . + Y Z ` ( F  .< 8 ..) ' & , l q f X / + .           ",
"          . + +.+.e e 4 & a / s 9 @.i % ' g h D 2 + .           ",
"            . + T 8 8 ( ..0 E t V p  .- 1 #.C v + .             ",
"              . + j j $.- v 1 t ( s - s M F j + .               ",
"                . + + +.$.$.$.$.s -  . .%.+ + .                 ",
"                  . + &.*.=.-.=.-.-.=.*.;.+ .                   ",
"                  . + >.,.'.).!.~.{.].^.;.+ .                   ",
"                  . + /.(._._._._._.:.<.[.+ .                   ",
"                  . + }.|._._._._._.1.2.3.+ .                   ",
"                  . + 4.5._._._._._.6.7.3.+ .                   ",
"                  . + 8.5._._._._.9.|.4.[.+ .                   ",
"                  . + 4.]._._._._.0.a.>.b.+ .                   ",
"                  . + c.d._._._.9.e.f.g.h.+ .                   ",
"                  . + c.d._._._.i.j.k.l.m.+ .                   ",
"                  . + c.d._._.1.n.o.p.q.r.+ .                   ",
"                  . + o.d.s.6.t.o.u.v.w.x.+ .                   ",
"                  . + y.z.A.B.C.D.E.F.G.H.+ .                   ",
"                  . + I.J.J.K.L.M.G.G.N.H.+ .                   ",
"                    . + O.P.Q.w.G.G.G.H.+ .                     ",
"                      . + + R.S.S.S.+ + .                       "};
