/* XPM */
static const char * Side_Right_Idle_1_xpm[] = {
"32 32 178 2",
"  	c None",
". 	c #3A004B",
"+ 	c #270032",
"@ 	c #B7B7B7",
"# 	c #BEBEBE",
"$ 	c #E9E9E9",
"% 	c #F1F1F1",
"& 	c #E8E8E8",
"* 	c #C9C9C9",
"= 	c #AFAFAF",
"- 	c #CACACA",
"; 	c #A1A1A1",
"> 	c #C1C1C1",
", 	c #E4E4E4",
"' 	c #EEEEEE",
") 	c #F0F0F0",
"! 	c #ABABAB",
"~ 	c #B6B6B6",
"{ 	c #CBCBCB",
"] 	c #BFBFBF",
"^ 	c #CDCDCD",
"/ 	c #A8A8A8",
"( 	c #A3A3A3",
"_ 	c #B5B5B5",
": 	c #C2C2C2",
"< 	c #C6C6C6",
"[ 	c #C3C3C3",
"} 	c #B2B2B2",
"| 	c #A0A0A0",
"1 	c #ACACAC",
"2 	c #D5D5D5",
"3 	c #BABABA",
"4 	c #E6E6E6",
"5 	c #D6D6D6",
"6 	c #BBBBBB",
"7 	c #BCBCBC",
"8 	c #C7C7C7",
"9 	c #E7E7E7",
"0 	c #ECECEC",
"a 	c #D1D1D1",
"b 	c #B9B9B9",
"c 	c #E0E0E0",
"d 	c #F3F3F3",
"e 	c #EDEDED",
"f 	c #D4D4D4",
"g 	c #B0B0B0",
"h 	c #DBDBDB",
"i 	c #F2F2F2",
"j 	c #EAEAEA",
"k 	c #D0D0D0",
"l 	c #989797",
"m 	c #CF6BA5",
"n 	c #C4C4C4",
"o 	c #D8D8D8",
"p 	c #CECECE",
"q 	c #B4B4B4",
"r 	c #DFDFDF",
"s 	c #EBEBEB",
"t 	c #929292",
"u 	c #E8AECF",
"v 	c #9C3971",
"w 	c #D9D9D9",
"x 	c #BDBDBD",
"y 	c #E5E5E5",
"z 	c #E1E1E1",
"A 	c #D7D7D7",
"B 	c #B1B1B1",
"C 	c #979395",
"D 	c #9A3971",
"E 	c #DC85B7",
"F 	c #361B29",
"G 	c #C0C0C0",
"H 	c #E2E2E2",
"I 	c #B8B8B8",
"J 	c #AEAEAE",
"K 	c #A2A2A2",
"L 	c #B8B7B7",
"M 	c #B0ACAE",
"N 	c #CB5599",
"O 	c #120018",
"P 	c #B3B3B3",
"Q 	c #9E9E9E",
"R 	c #AAAAAA",
"S 	c #A6A6A6",
"T 	c #A09E9F",
"U 	c #AC5085",
"V 	c #A52A71",
"W 	c #A9A9A9",
"X 	c #DCDCDC",
"Y 	c #E3E3E3",
"Z 	c #761C4F",
"` 	c #CFCFCF",
" .	c #A7A7A7",
"..	c #A19FA0",
"+.	c #826978",
"@.	c #7D7178",
"#.	c #C5C5C5",
"$.	c #8F8F8F",
"%.	c #DEDEDE",
"&.	c #999999",
"*.	c #B5B2B2",
"=.	c #571416",
"-.	c #62080A",
";.	c #700C0F",
">.	c #75171B",
",.	c #611314",
"'.	c #6C0103",
").	c #83060A",
"!.	c #91090F",
"~.	c #970A11",
"{.	c #980B12",
"].	c #970B11",
"^.	c #940910",
"/.	c #82050A",
"(.	c #620002",
"_.	c #4A0001",
":.	c #750306",
"<.	c #960A11",
"[.	c #9F0D14",
"}.	c #86060B",
"|.	c #660103",
"1.	c #490000",
"2.	c #740306",
"3.	c #940A10",
"4.	c #85060B",
"5.	c #680003",
"6.	c #710205",
"7.	c #90080E",
"8.	c #84060A",
"9.	c #6A0003",
"0.	c #9E0C13",
"a.	c #6B0003",
"b.	c #480001",
"c.	c #7C0409",
"d.	c #9B0B12",
"e.	c #420203",
"f.	c #550405",
"g.	c #6E0104",
"h.	c #8A070C",
"i.	c #81060A",
"j.	c #690002",
"k.	c #3C0203",
"l.	c #4C0405",
"m.	c #660002",
"n.	c #750206",
"o.	c #92090F",
"p.	c #390001",
"q.	c #410506",
"r.	c #550608",
"s.	c #680002",
"t.	c #7A0408",
"u.	c #390102",
"v.	c #3D0102",
"w.	c #430708",
"x.	c #560507",
"y.	c #770306",
"z.	c #9D0C13",
"A.	c #3B0506",
"B.	c #3D0001",
"C.	c #3D0101",
"D.	c #410606",
"E.	c #540608",
"F.	c #650103",
"G.	c #6C0003",
"H.	c #7A0307",
"I.	c #740205",
"J.	c #600305",
"K.	c #3E0001",
"L.	c #3F0405",
"M.	c #4B0607",
"N.	c #5F0204",
"O.	c #670002",
"P.	c #601012",
"Q.	c #3F0506",
"R.	c #470607",
"S.	c #580405",
"T.	c #461516",
"U.	c #4B1D1E",
"                      . . . . . . . . . .                       ",
"                    . + + + + + + + + + + .                     ",
"                  . + @ # $ % & * = = = - + .                   ",
"                . + # ; > , ' % ) & * * ! ~ + .                 ",
"              . + { ] ^ / ( _ : < [ } | | 1 } + .               ",
"            . + 2 3 4 $ 5 6 ; 1 7 8 2 2 9 0 a b + .             ",
"          . + c @ 4 d e f g 3 h $ i d i j k 1 l m + .           ",
"        . + n n o i $ p ! q r % i ) s c { ~ t m u v + .         ",
"        . + w x $ , 8 1 @ w 4 y z A < 3 B C C D E F + .         ",
"        . + G o H ] ! } { { 7 I 3 7 J 1 K L M N N O + .         ",
"        . + J [ P Q R b b g K S 6 2 , w w M T U V F + .         ",
"        . + W K t ! R 3 { 5 X $ ' Y : W T T T V Z Z + .         ",
"          . + [ X j s e ) % ' , ` 7 (  .x < ..+.@.+ .           ",
"          . + b y d i ' & h #.6 q [ 4 % 0 k k $.$.+ .           ",
"            . + n z %.{ @  .t W p w 5 ` < 7 7 Q + .             ",
"              . + g x I q @ q < p { n @ &.g g + .               ",
"                . + + *. . .@ q &.&.&.&.$.+ + .                 ",
"                  . + =.-.;.>.>.;.>.;.-.,.+ .                   ",
"                  . + =.'.).!.~.{.].^./.(.+ .                   ",
"                  . + _.:.<.[.[.[.[.[.}.|.+ .                   ",
"                  . + 1.2.3.[.[.[.[.[.4.5.+ .                   ",
"                  . + 1.6.7.[.[.[.[.[.8.9.+ .                   ",
"                  . + _.9.4.0.[.[.[.[.8.a.+ .                   ",
"                  . + b.(.c.d.[.[.[.[.).9.+ .                   ",
"                  . + e.f.g.h.0.[.[.[.i.j.+ .                   ",
"                  . + k.l.m.n.o.[.[.[.i.j.+ .                   ",
"                  . + p.q.r.s.t.3.[.[.i.j.+ .                   ",
"                  . + u.v.w.x.s.y.7.z.i.s.+ .                   ",
"                  . + A.B.C.D.E.F.G.H.I.J.+ .                   ",
"                  . + A.K.B.B.L.M.N.O.O.P.+ .                   ",
"                    . + A.B.B.B.v.Q.R.S.+ .                     ",
"                      . + + T.T.T.U.+ + .                       "};
