/* XPM */
static const char * SideRightAttack_7_xpm[] = {
"32 32 174 2",
"  	c None",
". 	c #3A004B",
"+ 	c #270032",
"@ 	c #B7B7B7",
"# 	c #BEBEBE",
"$ 	c #E9E9E9",
"% 	c #F1F1F1",
"& 	c #E8E8E8",
"* 	c #C9C9C9",
"= 	c #AFAFAF",
"- 	c #CACACA",
"; 	c #A1A1A1",
"> 	c #C1C1C1",
", 	c #E4E4E4",
"' 	c #EEEEEE",
") 	c #F0F0F0",
"! 	c #ABABAB",
"~ 	c #B6B6B6",
"{ 	c #CBCBCB",
"] 	c #BFBFBF",
"^ 	c #CDCDCD",
"/ 	c #A8A8A8",
"( 	c #A3A3A3",
"_ 	c #B5B5B5",
": 	c #C2C2C2",
"< 	c #C6C6C6",
"[ 	c #C3C3C3",
"} 	c #B2B2B2",
"| 	c #A0A0A0",
"1 	c #ACACAC",
"2 	c #D5D5D5",
"3 	c #BABABA",
"4 	c #E6E6E6",
"5 	c #D6D6D6",
"6 	c #BBBBBB",
"7 	c #BCBCBC",
"8 	c #C7C7C7",
"9 	c #E7E7E7",
"0 	c #ECECEC",
"a 	c #D1D1D1",
"b 	c #B9B9B9",
"c 	c #E0E0E0",
"d 	c #F3F3F3",
"e 	c #EDEDED",
"f 	c #D4D4D4",
"g 	c #B0B0B0",
"h 	c #DBDBDB",
"i 	c #F2F2F2",
"j 	c #EAEAEA",
"k 	c #D0D0D0",
"l 	c #989797",
"m 	c #DB0000",
"n 	c #C4C4C4",
"o 	c #D8D8D8",
"p 	c #CECECE",
"q 	c #B4B4B4",
"r 	c #DFDFDF",
"s 	c #EBEBEB",
"t 	c #929292",
"u 	c #F10000",
"v 	c #D9D9D9",
"w 	c #BDBDBD",
"x 	c #E5E5E5",
"y 	c #E1E1E1",
"z 	c #D7D7D7",
"A 	c #B1B1B1",
"B 	c #979395",
"C 	c #FF2929",
"D 	c #361B29",
"E 	c #C0C0C0",
"F 	c #E2E2E2",
"G 	c #B8B8B8",
"H 	c #AEAEAE",
"I 	c #A2A2A2",
"J 	c #B8B7B7",
"K 	c #B0ACAE",
"L 	c #120018",
"M 	c #B3B3B3",
"N 	c #9E9E9E",
"O 	c #AAAAAA",
"P 	c #A6A6A6",
"Q 	c #A09E9F",
"R 	c #BD0000",
"S 	c #A9A9A9",
"T 	c #DCDCDC",
"U 	c #E3E3E3",
"V 	c #AA0000",
"W 	c #CFCFCF",
"X 	c #A7A7A7",
"Y 	c #A19FA0",
"Z 	c #826978",
"` 	c #B07B7B",
" .	c #C5C5C5",
"..	c #8F8F8F",
"+.	c #DEDEDE",
"@.	c #999999",
"#.	c #B5B2B2",
"$.	c #571416",
"%.	c #62080A",
"&.	c #700C0F",
"*.	c #75171B",
"=.	c #611314",
"-.	c #6C0103",
";.	c #83060A",
">.	c #91090F",
",.	c #970A11",
"'.	c #980B12",
").	c #970B11",
"!.	c #940910",
"~.	c #82050A",
"{.	c #620002",
"].	c #4A0001",
"^.	c #750306",
"/.	c #960A11",
"(.	c #9F0D14",
"_.	c #86060B",
":.	c #660103",
"<.	c #490000",
"[.	c #740306",
"}.	c #940A10",
"|.	c #85060B",
"1.	c #680003",
"2.	c #710205",
"3.	c #90080E",
"4.	c #84060A",
"5.	c #6A0003",
"6.	c #9E0C13",
"7.	c #6B0003",
"8.	c #480001",
"9.	c #7C0409",
"0.	c #9B0B12",
"a.	c #420203",
"b.	c #550405",
"c.	c #6E0104",
"d.	c #8A070C",
"e.	c #81060A",
"f.	c #690002",
"g.	c #3C0203",
"h.	c #4C0405",
"i.	c #660002",
"j.	c #750206",
"k.	c #92090F",
"l.	c #390001",
"m.	c #410506",
"n.	c #550608",
"o.	c #680002",
"p.	c #7A0408",
"q.	c #390102",
"r.	c #3D0102",
"s.	c #430708",
"t.	c #560507",
"u.	c #770306",
"v.	c #9D0C13",
"w.	c #3B0506",
"x.	c #3D0001",
"y.	c #3D0101",
"z.	c #410606",
"A.	c #540608",
"B.	c #650103",
"C.	c #6C0003",
"D.	c #7A0307",
"E.	c #740205",
"F.	c #600305",
"G.	c #3E0001",
"H.	c #3F0405",
"I.	c #4B0607",
"J.	c #5F0204",
"K.	c #670002",
"L.	c #601012",
"M.	c #3F0506",
"N.	c #470607",
"O.	c #580405",
"P.	c #461516",
"Q.	c #4B1D1E",
"                      . . . . . . . . . .                       ",
"                    . + + + + + + + + + + .                     ",
"                  . + @ # $ % & * = = = - + .                   ",
"                . + # ; > , ' % ) & * * ! ~ + .                 ",
"              . + { ] ^ / ( _ : < [ } | | 1 } + .               ",
"            . + 2 3 4 $ 5 6 ; 1 7 8 2 2 9 0 a b + .             ",
"          . + c @ 4 d e f g 3 h $ i d i j k 1 l m + .           ",
"        . + n n o i $ p ! q r % i ) s c { ~ t m u m + .         ",
"        . + v w $ , 8 1 @ v 4 x y z < 3 A B B u C D + .         ",
"        . + E o F ] ! } { { 7 G 3 7 H 1 I J K u m L + .         ",
"        . + H [ M N O b b g I P 6 2 , v v K Q m R D + .         ",
"        . + S I t ! O 3 { 5 T $ ' U : S Q Q Q R V V + .         ",
"          . + [ T j s e ) % ' , W 7 ( X w < Y Z ` + .           ",
"          . + b x d i ' & h  .6 q [ 4 % 0 k k ....+ .           ",
"            . + n y +.{ @ X t S p v 5 W < 7 7 N + .             ",
"              . + g w G q @ q < p { n @ @.g g + .               ",
"                . + + #.X X @ q @.@.@.@...+ + .                 ",
"                  . + $.%.&.*.*.&.*.&.%.=.+ .                   ",
"                  . + $.-.;.>.,.'.).!.~.{.+ .                   ",
"                  . + ].^./.(.(.(.(.(._.:.+ .                   ",
"                  . + <.[.}.(.(.(.(.(.|.1.+ .                   ",
"                  . + <.2.3.(.(.(.(.(.4.5.+ .                   ",
"                  . + ].5.|.6.(.(.(.(.4.7.+ .                   ",
"                  . + 8.{.9.0.(.(.(.(.;.5.+ .                   ",
"                  . + a.b.c.d.6.(.(.(.e.f.+ .                   ",
"                  . + g.h.i.j.k.(.(.(.e.f.+ .                   ",
"                  . + l.m.n.o.p.}.(.(.e.f.+ .                   ",
"                  . + q.r.s.t.o.u.3.v.e.o.+ .                   ",
"                  . + w.x.y.z.A.B.C.D.E.F.+ .                   ",
"                  . + w.G.x.x.H.I.J.K.K.L.+ .                   ",
"                    . + w.x.x.x.r.M.N.O.+ .                     ",
"                      . + + P.P.P.Q.+ + .                       "};
