/* XPM */
static const char * SideRightIdle_02_xpm[] = {
"32 32 176 2",
"  	c None",
". 	c #3A004B",
"+ 	c #270032",
"@ 	c #B7B7B7",
"# 	c #BEBEBE",
"$ 	c #E9E9E9",
"% 	c #F1F1F1",
"& 	c #E8E8E8",
"* 	c #C9C9C9",
"= 	c #AFAFAF",
"- 	c #CACACA",
"; 	c #A1A1A1",
"> 	c #C1C1C1",
", 	c #E4E4E4",
"' 	c #EEEEEE",
") 	c #F0F0F0",
"! 	c #ABABAB",
"~ 	c #B6B6B6",
"{ 	c #CBCBCB",
"] 	c #BFBFBF",
"^ 	c #CDCDCD",
"/ 	c #A8A8A8",
"( 	c #A3A3A3",
"_ 	c #B5B5B5",
": 	c #C2C2C2",
"< 	c #C6C6C6",
"[ 	c #C3C3C3",
"} 	c #B2B2B2",
"| 	c #A0A0A0",
"1 	c #ACACAC",
"2 	c #D5D5D5",
"3 	c #BABABA",
"4 	c #E6E6E6",
"5 	c #D6D6D6",
"6 	c #BBBBBB",
"7 	c #BCBCBC",
"8 	c #C7C7C7",
"9 	c #E7E7E7",
"0 	c #ECECEC",
"a 	c #D1D1D1",
"b 	c #B9B9B9",
"c 	c #E0E0E0",
"d 	c #F3F3F3",
"e 	c #EDEDED",
"f 	c #D4D4D4",
"g 	c #B0B0B0",
"h 	c #DBDBDB",
"i 	c #F2F2F2",
"j 	c #EAEAEA",
"k 	c #D0D0D0",
"l 	c #989797",
"m 	c #A6773C",
"n 	c #C4C4C4",
"o 	c #D8D8D8",
"p 	c #CECECE",
"q 	c #B4B4B4",
"r 	c #DFDFDF",
"s 	c #EBEBEB",
"t 	c #929292",
"u 	c #B17F40",
"v 	c #956931",
"w 	c #D9D9D9",
"x 	c #BDBDBD",
"y 	c #E5E5E5",
"z 	c #E1E1E1",
"A 	c #D7D7D7",
"B 	c #B1B1B1",
"C 	c #979395",
"D 	c #9A3971",
"E 	c #DC85B7",
"F 	c #361B29",
"G 	c #C0C0C0",
"H 	c #E2E2E2",
"I 	c #B8B8B8",
"J 	c #AEAEAE",
"K 	c #A2A2A2",
"L 	c #B8B7B7",
"M 	c #B0ACAE",
"N 	c #CB5599",
"O 	c #120018",
"P 	c #B3B3B3",
"Q 	c #9E9E9E",
"R 	c #AAAAAA",
"S 	c #A6A6A6",
"T 	c #A09E9F",
"U 	c #A52A71",
"V 	c #A9A9A9",
"W 	c #DCDCDC",
"X 	c #E3E3E3",
"Y 	c #CFCFCF",
"Z 	c #A7A7A7",
"` 	c #A19FA0",
" .	c #826978",
"..	c #7D7178",
"+.	c #C5C5C5",
"@.	c #8F8F8F",
"#.	c #DEDEDE",
"$.	c #999999",
"%.	c #B5B2B2",
"&.	c #571416",
"*.	c #62080A",
"=.	c #700C0F",
"-.	c #75171B",
";.	c #611314",
">.	c #6C0103",
",.	c #83060A",
"'.	c #91090F",
").	c #970A11",
"!.	c #980B12",
"~.	c #970B11",
"{.	c #940910",
"].	c #82050A",
"^.	c #620002",
"/.	c #4A0001",
"(.	c #750306",
"_.	c #960A11",
":.	c #9F0D14",
"<.	c #86060B",
"[.	c #660103",
"}.	c #490000",
"|.	c #740306",
"1.	c #940A10",
"2.	c #85060B",
"3.	c #680003",
"4.	c #710205",
"5.	c #90080E",
"6.	c #84060A",
"7.	c #6A0003",
"8.	c #9E0C13",
"9.	c #6B0003",
"0.	c #480001",
"a.	c #7C0409",
"b.	c #9B0B12",
"c.	c #420203",
"d.	c #550405",
"e.	c #6E0104",
"f.	c #8A070C",
"g.	c #81060A",
"h.	c #690002",
"i.	c #3C0203",
"j.	c #4C0405",
"k.	c #660002",
"l.	c #750206",
"m.	c #92090F",
"n.	c #390001",
"o.	c #410506",
"p.	c #550608",
"q.	c #680002",
"r.	c #7A0408",
"s.	c #390102",
"t.	c #3D0102",
"u.	c #430708",
"v.	c #560507",
"w.	c #770306",
"x.	c #9D0C13",
"y.	c #3B0506",
"z.	c #3D0001",
"A.	c #3D0101",
"B.	c #410606",
"C.	c #540608",
"D.	c #650103",
"E.	c #6C0003",
"F.	c #7A0307",
"G.	c #740205",
"H.	c #600305",
"I.	c #3E0001",
"J.	c #3F0405",
"K.	c #4B0607",
"L.	c #5F0204",
"M.	c #670002",
"N.	c #601012",
"O.	c #3F0506",
"P.	c #470607",
"Q.	c #580405",
"R.	c #461516",
"S.	c #4B1D1E",
"                      . . . . . . . . . .                       ",
"                    . + + + + + + + + + + .                     ",
"                  . + @ # $ % & * = = = - + .                   ",
"                . + # ; > , ' % ) & * * ! ~ + .                 ",
"              . + { ] ^ / ( _ : < [ } | | 1 } + .               ",
"            . + 2 3 4 $ 5 6 ; 1 7 8 2 2 9 0 a b + .             ",
"          . + c @ 4 d e f g 3 h $ i d i j k 1 l m + .           ",
"        . + n n o i $ p ! q r % i ) s c { ~ t u u v + .         ",
"        . + w x $ , 8 1 @ w 4 y z A < 3 B C C D E F + .         ",
"        . + G o H ] ! } { { 7 I 3 7 J 1 K L M N N O + .         ",
"        . + J [ P Q R b b g K S 6 2 , w w M T u U F + .         ",
"        . + V K t ! R 3 { 5 W $ ' X : V T T T u m v + .         ",
"          . + [ W j s e ) % ' , Y 7 ( Z x < `  ...+ .           ",
"          . + b y d i ' & h +.6 q [ 4 % 0 k k @.@.+ .           ",
"            . + n z #.{ @ Z t V p w 5 Y < 7 7 Q + .             ",
"              . + g x I q @ q < p { n @ $.g g + .               ",
"                . + + %.Z Z @ q $.$.$.$.@.+ + .                 ",
"                  . + &.*.=.-.-.=.-.=.*.;.+ .                   ",
"                  . + &.>.,.'.).!.~.{.].^.+ .                   ",
"                  . + /.(._.:.:.:.:.:.<.[.+ .                   ",
"                  . + }.|.1.:.:.:.:.:.2.3.+ .                   ",
"                  . + }.4.5.:.:.:.:.:.6.7.+ .                   ",
"                  . + /.7.2.8.:.:.:.:.6.9.+ .                   ",
"                  . + 0.^.a.b.:.:.:.:.,.7.+ .                   ",
"                  . + c.d.e.f.8.:.:.:.g.h.+ .                   ",
"                  . + i.j.k.l.m.:.:.:.g.h.+ .                   ",
"                  . + n.o.p.q.r.1.:.:.g.h.+ .                   ",
"                  . + s.t.u.v.q.w.5.x.g.q.+ .                   ",
"                  . + y.z.A.B.C.D.E.F.G.H.+ .                   ",
"                  . + y.I.z.z.J.K.L.M.M.N.+ .                   ",
"                    . + y.z.z.z.t.O.P.Q.+ .                     ",
"                      . + + R.R.R.S.+ + .                       "};
