/* XPM */
static const char *SideLeftAttack_00[] = {
/* columns rows colors chars-per-pixel */
"32 32 174 2 ",
"   c None",
".  c #120018",
"X  c #390001",
"o  c #390102",
"O  c #3D0001",
"+  c #3D0101",
"@  c #3E0001",
"#  c #3D0102",
"$  c #3C0203",
"%  c #3B0506",
"&  c #3F0405",
"*  c #3F0506",
"=  c #361B29",
"-  c #270032",
";  c #420203",
":  c #410506",
">  c #410606",
",  c #470607",
"<  c #490000",
"1  c #480001",
"2  c #4A0001",
"3  c #4B0607",
"4  c #4C0405",
"5  c #430708",
"6  c #550405",
"7  c #560507",
"8  c #5F0204",
"9  c #580405",
"0  c #540608",
"q  c #550608",
"w  c #461516",
"e  c #4B1D1E",
"r  c #571416",
"t  c #620002",
"y  c #650103",
"u  c #660002",
"i  c #670002",
"p  c #660103",
"a  c #600305",
"s  c #680002",
"d  c #690002",
"f  c #680003",
"g  c #6A0003",
"h  c #6B0003",
"j  c #6C0003",
"k  c #6C0103",
"l  c #6E0104",
"z  c #62080A",
"x  c #710205",
"c  c #740205",
"v  c #750206",
"b  c #740306",
"n  c #750306",
"m  c #770306",
"M  c #7A0307",
"N  c #7A0408",
"B  c #7C0409",
"V  c #700C0F",
"C  c #601012",
"Z  c #611314",
"A  c #75171B",
"S  c #3A004B",
"D  c #82050A",
"F  c #81060A",
"G  c #83060A",
"H  c #84060A",
"J  c #85060B",
"K  c #86060B",
"L  c #8A070C",
"P  c #90080E",
"I  c #91090F",
"U  c #92090F",
"Y  c #940910",
"T  c #940A10",
"R  c #960A11",
"E  c #970A11",
"W  c #970B11",
"Q  c #980B12",
"!  c #9B0B12",
"~  c #9D0C13",
"^  c #9E0C13",
"/  c #9F0D14",
"(  c #AA0000",
")  c #BD0000",
"_  c #DB0000",
"`  c #F10000",
"'  c #FF2929",
"]  c #826978",
"[  c #B07B7B",
"{  c gray56",
"}  c #929292",
"|  c #979395",
" . c #989797",
".. c gray60",
"X. c gray62",
"o. c #A09E9F",
"O. c #A19FA0",
"+. c #A0A0A0",
"@. c gray63",
"#. c #A2A2A2",
"$. c gray64",
"%. c gray65",
"&. c #A7A7A7",
"*. c gray66",
"=. c #A9A9A9",
"-. c #AAAAAA",
";. c gray67",
":. c #ACACAC",
">. c #AEAEAE",
",. c #AFAFAF",
"<. c #B0ACAE",
"1. c gray69",
"2. c #B1B1B1",
"3. c #B2B2B2",
"4. c gray70",
"5. c #B5B2B2",
"6. c #B4B4B4",
"7. c gray71",
"8. c #B6B6B6",
"9. c #B7B7B7",
"0. c #B8B7B7",
"q. c gray72",
"w. c #B9B9B9",
"e. c gray73",
"r. c #BBBBBB",
"t. c #BCBCBC",
"y. c gray74",
"u. c gray",
"i. c gray75",
"p. c #C0C0C0",
"a. c #C1C1C1",
"s. c gray76",
"d. c #C3C3C3",
"f. c gray77",
"g. c #C5C5C5",
"h. c #C6C6C6",
"j. c gray78",
"k. c gray79",
"l. c #CACACA",
"z. c #CBCBCB",
"x. c #CDCDCD",
"c. c #CECECE",
"v. c gray81",
"b. c #D0D0D0",
"n. c gray82",
"m. c gray83",
"M. c #D5D5D5",
"N. c gray84",
"B. c #D7D7D7",
"V. c #D8D8D8",
"C. c gray85",
"Z. c gray86",
"A. c gainsboro",
"S. c gray87",
"D. c #DFDFDF",
"F. c gray88",
"G. c #E1E1E1",
"H. c #E2E2E2",
"J. c gray89",
"K. c #E4E4E4",
"L. c gray90",
"P. c #E6E6E6",
"I. c #E7E7E7",
"U. c gray91",
"Y. c #E9E9E9",
"T. c #EAEAEA",
"R. c gray92",
"E. c #ECECEC",
"W. c gray93",
"Q. c #EEEEEE",
"!. c gray94",
"~. c #F1F1F1",
"^. c gray95",
"/. c #F3F3F3",
/* pixels */
"                      S S S S S S S S S S                       ",
"                    S - - - - - - - - - - S                     ",
"                  S - l.,.,.,.k.U.~.Y.u.9.- S                   ",
"                S - 8.;.k.k.U.!.~.Q.K.a.@.u.- S                 ",
"              S - 3.:.+.+.3.d.h.s.7.$.*.x.i.z.- S               ",
"            S - w.n.E.I.M.M.j.t.:.@.r.N.Y.P.e.M.- S             ",
"          S - _  .:.b.T.^./.^.Y.Z.e.1.m.W./.P.9.F.- S           ",
"        S - _ ` _ } 8.z.F.R.!.^.~.D.6.;.c.Y.^.V.f.f.- S         ",
"        S - = ' ` | | 2.e.h.B.G.L.P.C.9.:.j.K.Y.y.C.- S         ",
"        S - . _ ` <.0.#.:.>.t.e.q.t.z.z.3.;.i.H.V.p.- S         ",
"        S - = ) _ o.<.C.C.K.M.r.%.#.1.w.w.-.X.4.d.>.- S         ",
"        S - ( ( ) o.o.o.=.s.J.Q.Y.A.N.z.e.-.;.} #.=.- S         ",
"          S - [ ] O.h.y.&.$.t.v.K.Q.~.!.W.R.T.A.d.- S           ",
"          S - { { b.b.E.~.P.d.6.r.g.Z.U.Q.^./.L.w.- S           ",
"            S - X.t.t.h.v.N.C.c.=.} &.9.z.S.G.f.- S             ",
"              S - 1.1...9.f.z.c.h.6.9.6.q.y.1.- S               ",
"                S - - { ........6.9.&.&.5.- - S                 ",
"                  S - Z z V A V A A V z r - S                   ",
"                  S - t D Y W Q E I G k r - S                   ",
"                  S - p K / / / / / R n 2 - S                   ",
"                  S - f J / / / / / T b < - S                   ",
"                  S - g H / / / / / P x < - S                   ",
"                  S - h H / / / / ^ J g 2 - S                   ",
"                  S - g G / / / / ! B t 1 - S                   ",
"                  S - d F / / / ^ L l 6 ; - S                   ",
"                  S - d F / / / U v u 4 $ - S                   ",
"                  S - d F / / T N s q : X - S                   ",
"                  S - s F ~ P m s 7 5 # o - S                   ",
"                  S - a c M j y 0 > + O % - S                   ",
"                  S - C i i 8 3 & O O @ % - S                   ",
"                    S - 9 , * # O O O % - S                     ",
"                      S - - e w w w - - S                       "
};
