/* XPM */
static const char *  TheFool_0_xpm[] = {
"32 32 7 1",
" 	c None",
".	c #5B22C3",
"+	c #0F0F0F",
"@	c #563420",
"#	c #6C4228",
"$	c #4A2B19",
"%	c #321D10",
"                                ",
"                                ",
"                    ..          ",
"                 .   .. ..      ",
"          .   ..  ++     .   .  ",
"          .   .  +++++       .. ",
"             .   +@@@+++    .   ",
"            .   ++@##@@++   .   ",
"       .   ..  ++@#####@++      ",
"      ..   .   +@#######@+++    ",
"      .   .   ++@#$$#####@@++  .",
"      .  .   ++@#$$$$######@++ .",
"      . ..  ++@##$#$#######@++  ",
"     .     ++@###$$$$#####@++   ",
"     .    ++@###$$$######@++ .  ",
"    .    ++@$$$$$########@+  .  ",
"   ..  +++@#$#$$$$$#%%##@++  .  ",
"  .   ++@@####$##%%$$%#@++   .  ",
" .   ++@#####$$##%%%%##@+       ",
"   +++@####$$$###%%%%#@++       ",
"   ++@##$$$##$###%%%%@++        ",
"    ++@######$######@++    .    ",
"  .  ++@####$######@++    .     ",
"  .   ++@###$#####@++    ..     ",
"   .   ++@##$####@++     .      ",
"   .    ++@@####@++    ..       ",
"    .    +++@##@++     .        ",
"     ...   ++@@++    ..         ",
"      ..    ++++  ...     ..    ",
"         .    +         ..      ",
"          ..   ..       .       ",
"              ..                "};
